<?xml version="1.0" encoding="UTF-8"?> <svg xmlns="http://www.w3.org/2000/svg" width="25" height="25" viewBox="0 0 25 25" fill="none"><g clip-path="url(#clip0)"><path d="M19.1541 6.6543C17.9431 6.6543 15.9771 7.10889 13.4875 9.27441C13.3349 9.40713 13.3188 9.63847 13.4516 9.79106C13.5843 9.94365 13.8156 9.95971 13.9682 9.827C16.2869 7.81006 18.0681 7.38667 19.1541 7.38667C21.9738 7.38672 24.2676 9.68066 24.2676 12.5003C24.2676 15.3199 21.9738 17.6139 19.1541 17.6139C17.7136 17.6139 16.0561 16.8843 14.3604 15.5039C13.0001 14.3966 12.0453 13.2266 11.8673 13.0026C11.8589 12.992 11.6302 12.7089 11.2472 12.2978L11.2073 12.2512C10.2925 11.2749 7.9406 9.00283 5.84602 9.00283C3.9175 9.00283 2.34851 10.5718 2.34851 12.5003C2.34851 14.4289 3.9175 15.9978 5.84602 15.9978C7.75588 15.9978 9.88132 14.1101 10.9349 13.037C11.0794 13.1986 11.2011 13.3422 11.2945 13.4591C11.4803 13.6928 12.4792 14.917 13.898 16.072C15.7519 17.5811 17.5203 18.3463 19.1541 18.3463C22.3776 18.3463 25.0001 15.7238 25.0001 12.5003C25.0001 9.2768 22.3776 6.6543 19.1541 6.6543ZM5.84607 15.2654C4.32141 15.2654 3.08098 14.0249 3.08098 12.5003C3.08098 10.9756 4.32141 9.7352 5.84607 9.7352C7.52273 9.7352 9.56438 11.613 10.4349 12.5003C9.56433 13.3875 7.52268 15.2654 5.84607 15.2654Z" fill="white"></path><path d="M11.0843 15.1277C8.74214 17.1826 6.94292 17.6139 5.84595 17.6139C3.02632 17.6139 0.732422 15.32 0.732422 12.5003C0.732422 9.68072 3.02632 7.38677 5.846 7.38677C7.28643 7.38677 8.94399 8.11636 10.6396 9.49668C12 10.6041 12.9547 11.7741 13.1328 11.9981C13.1412 12.0086 13.7763 12.7356 13.7904 12.7507C14.7053 13.7271 17.0594 15.9978 19.154 15.9978C21.0825 15.9978 22.6515 14.4288 22.6515 12.5003C22.6515 10.5718 21.0825 9.00278 19.154 9.00278C17.2441 9.00278 15.1186 10.8907 14.065 11.9637C13.9205 11.8021 13.799 11.6585 13.7055 11.5415C13.5197 11.3078 12.5209 10.0836 11.102 8.92866C9.2481 7.41953 7.47969 6.6543 5.84595 6.6543C2.62246 6.65435 0 9.27686 0 12.5003C0 15.7238 2.62246 18.3463 5.846 18.3463C7.06875 18.3463 9.05391 17.8835 11.5673 15.6783C11.7194 15.545 11.7345 15.3136 11.6011 15.1615C11.4677 15.0095 11.2363 14.9943 11.0843 15.1277ZM19.154 9.73526C20.6787 9.73526 21.9191 10.9757 21.9191 12.5003C21.9191 14.025 20.6787 15.2654 19.154 15.2654C17.4773 15.2654 15.4357 13.3876 14.5651 12.5003C15.4357 11.6131 17.4774 9.73526 19.154 9.73526Z" fill="white"></path></g><defs><clipPath id="clip0"><rect width="25" height="25" fill="white"></rect></clipPath></defs></svg> 