<?xml version="1.0" encoding="UTF-8"?> <svg xmlns="http://www.w3.org/2000/svg" width="25" height="25" viewBox="0 0 25 25" fill="none"><g clip-path="url(#clip0)"><path d="M24.6433 10.8615L24.6395 10.8482C24.6004 10.6862 24.4803 10.5532 24.3187 10.4996C24.2588 10.4797 22.8266 10.0138 20.7817 10.1573C18.8993 10.2893 16.1166 10.9854 13.5499 13.5521C10.9833 16.1188 10.2872 18.9014 10.1553 20.7837C10.0119 22.8287 10.4778 24.2607 10.4978 24.3207C10.5463 24.4669 10.6611 24.5817 10.8073 24.6302C10.8593 24.6475 11.9427 25 13.5629 25C13.8113 25 14.0724 24.9917 14.3442 24.9727C16.2266 24.8407 19.0092 24.1447 21.5759 21.5781C26.1173 17.0366 24.9279 11.8543 24.6433 10.8615ZM19.6288 11.2912C20.0148 11.2167 20.4079 11.1642 20.8082 11.1344C21.7973 11.061 22.6351 11.1467 23.2056 11.2439C23.1813 11.2607 23.1579 11.2795 23.1363 11.3011L19.6288 14.8086V11.2912ZM18.6523 11.5323V15.7852L15.3794 19.0581V13.2865C15.3794 13.2706 15.3785 13.2548 15.377 13.2393C16.3898 12.4551 17.4843 11.885 18.6523 11.5323ZM11.1294 20.852C11.3044 18.3556 12.3511 16.1319 14.2404 14.2426C14.2943 14.1888 14.3484 14.1358 14.4028 14.0833V20.0129C14.4028 20.0199 14.4036 20.0266 14.4039 20.0335L11.2391 23.1982C11.1441 22.6381 11.0614 21.822 11.1294 20.852ZM14.3177 23.9955C13.3348 24.0685 12.5011 23.9842 11.9307 23.8877L13.456 22.3624C13.4577 22.3624 13.4592 22.3626 13.4609 22.3626H19.0905C17.6448 23.3191 16.0471 23.8671 14.3177 23.9955ZM20.8854 20.8875C20.712 21.0608 20.5358 21.227 20.3568 21.3861H14.4323L17.2663 18.5522H22.6922C22.2434 19.331 21.6542 20.1186 20.8854 20.8875ZM23.1874 17.5756H18.2428L23.8268 11.9916C23.8476 11.9708 23.8658 11.9483 23.882 11.925C24.0846 13.103 24.2125 15.2447 23.1874 17.5756Z" fill="white"></path><path d="M11.4502 13.552C8.8835 10.9854 6.10084 10.2893 4.21837 10.1573C2.1736 10.0138 0.741325 10.4797 0.681364 10.4996C0.519841 10.5532 0.399724 10.6862 0.360564 10.8482L0.356755 10.8615C0.0721857 11.8543 -1.11722 17.0366 3.42423 21.5781C4.86505 23.0189 6.51529 24.0204 8.32901 24.5547C8.37505 24.5683 8.42153 24.5747 8.46724 24.5747C8.67817 24.5747 8.87275 24.4369 8.9354 24.2243C9.01162 23.9656 8.86367 23.6941 8.60503 23.618C6.94966 23.1303 5.43892 22.2116 4.1148 20.8876C2.96066 19.7334 2.21032 18.537 1.734 17.3915H6.57315L8.92988 19.7483C9.02524 19.8436 9.15019 19.8913 9.27515 19.8913C9.4001 19.8913 9.5251 19.8436 9.62041 19.7483C9.81108 19.5576 9.81108 19.2484 9.62041 19.0577L9.08208 18.5194V12.8455C9.66694 13.2437 10.2266 13.7096 10.7596 14.2426C10.9503 14.4333 11.2595 14.4333 11.4502 14.2426C11.6409 14.0519 11.6409 13.7427 11.4502 13.552ZM4.15006 11.1315C4.36388 11.1465 4.57559 11.1683 4.78536 11.1961V14.2227L1.83585 11.2732C1.82462 11.262 1.81286 11.2515 1.80084 11.2416C2.3611 11.1464 3.17853 11.0633 4.15006 11.1315ZM1.38727 16.415V16.415C0.834684 14.5535 0.949186 12.9122 1.11681 11.9323C1.12585 11.943 1.13517 11.9536 1.14528 11.9638L5.59649 16.4151H1.38727V16.415ZM8.10557 17.5429L5.76187 15.1992V11.3744C6.57779 11.5664 7.35982 11.8606 8.10557 12.2559V17.5429Z" fill="white"></path><path d="M9.22216 21.9533C8.27861 21.6753 7.38281 21.2297 6.55962 20.6291C6.34174 20.4701 6.03633 20.5178 5.87734 20.7356C5.71836 20.9535 5.76611 21.2589 5.98393 21.4179C6.89799 22.085 7.89462 22.5803 8.94613 22.89C8.99218 22.9036 9.03866 22.9101 9.08437 22.9101C9.2953 22.9101 9.48988 22.7723 9.55253 22.5597C9.62875 22.3009 9.48085 22.0294 9.22216 21.9533Z" fill="white"></path><path d="M5.38524 19.6198L5.38353 19.6181C5.19286 19.4275 4.88461 19.4284 4.69384 19.619C4.50316 19.8096 4.50404 20.1197 4.69472 20.3104C4.79008 20.4057 4.91503 20.4534 5.03998 20.4534C5.16493 20.4534 5.28993 20.4057 5.38524 20.3104C5.57592 20.1197 5.57592 19.8105 5.38524 19.6198Z" fill="white"></path><path d="M6.25737 6.20106H3.61347V4.07709H5.43476C5.70444 4.07709 5.92304 3.85849 5.92304 3.58881C5.92304 3.31913 5.70444 3.10053 5.43476 3.10053H3.61347V0.976561H6.25732C6.527 0.976561 6.7456 0.757958 6.7456 0.48828C6.7456 0.218603 6.527 0 6.25732 0H3.12524C2.85557 0 2.63696 0.218603 2.63696 0.48828V6.68929C2.63696 6.95897 2.85557 7.17758 3.12524 7.17758H6.25737C6.52704 7.17758 6.74565 6.95897 6.74565 6.68929C6.74565 6.41962 6.52704 6.20106 6.25737 6.20106Z" fill="white"></path><path d="M18.7499 0C16.771 0 15.1611 1.60991 15.1611 3.58876C15.1611 5.56762 16.771 7.17753 18.7499 7.17753C20.7287 7.17753 22.3387 5.56762 22.3387 3.58876C22.3387 1.60991 20.7287 0 18.7499 0ZM18.7499 6.20101C17.3095 6.20101 16.1376 5.02919 16.1376 3.58876C16.1376 2.14834 17.3095 0.976512 18.7499 0.976512C20.1903 0.976512 21.3621 2.14834 21.3621 3.58876C21.3621 5.02919 20.1903 6.20101 18.7499 6.20101Z" fill="white"></path><path d="M13.2584 5.43617C12.2399 6.45468 10.5826 6.45468 9.56415 5.43617C8.54564 4.41772 8.54564 2.76044 9.56415 1.74194C10.5826 0.723436 12.2399 0.723436 13.2584 1.74194C13.4491 1.93261 13.7582 1.93261 13.949 1.74194C14.1396 1.55127 14.1396 1.24209 13.949 1.05137C12.5497 -0.347851 10.2729 -0.347851 8.87367 1.05137C7.4744 2.45063 7.4744 4.72743 8.87367 6.12665C9.57328 6.82631 10.4923 7.17611 11.4113 7.17611C12.3304 7.17611 13.2493 6.82626 13.949 6.1267C14.1397 5.93603 14.1397 5.62685 13.949 5.43612C13.7583 5.2455 13.4491 5.2455 13.2584 5.43617Z" fill="white"></path><path d="M12.5032 8.31836C12.2335 8.31836 12.0149 8.53696 12.0149 8.80664V10.1874C12.0149 10.4571 12.2335 10.6757 12.5032 10.6757C12.7728 10.6757 12.9915 10.4571 12.9915 10.1874V8.80664C12.9914 8.53696 12.7728 8.31836 12.5032 8.31836Z" fill="white"></path><path d="M15.3526 9.66353C15.1619 9.47281 14.8528 9.47286 14.6621 9.66353L13.6665 10.6591C13.4758 10.8498 13.4757 11.159 13.6665 11.3497C13.7618 11.445 13.8868 11.4927 14.0117 11.4927C14.1367 11.4927 14.2617 11.445 14.357 11.3497L15.3526 10.3541C15.5433 10.1633 15.5434 9.85416 15.3526 9.66353Z" fill="white"></path><path d="M11.335 10.6442L10.3377 9.64691C10.147 9.45619 9.83785 9.45629 9.64717 9.64691C9.4565 9.83759 9.45645 10.1468 9.64717 10.3374L10.6444 11.3348C10.7398 11.4301 10.8648 11.4778 10.9897 11.4778C11.1147 11.4778 11.2397 11.4301 11.335 11.3348C11.5256 11.1441 11.5257 10.8349 11.335 10.6442Z" fill="white"></path></g><defs><clipPath id="clip0"><rect width="25" height="25" fill="white"></rect></clipPath></defs></svg> 