<?xml version="1.0" encoding="UTF-8"?> <svg xmlns="http://www.w3.org/2000/svg" width="25" height="25" viewBox="0 0 25 25" fill="none"><g clip-path="url(#clip0)"><path d="M23.4375 6.24967H1.5625C0.701042 6.24967 0 5.54863 0 4.68717V3.64551C0 2.78405 0.701042 2.08301 1.5625 2.08301H23.4375C24.299 2.08301 25 2.78405 25 3.64551V4.68717C25 5.54863 24.299 6.24967 23.4375 6.24967ZM1.5625 3.12467C1.27604 3.12467 1.04167 3.35801 1.04167 3.64551V4.68717C1.04167 4.97467 1.27604 5.20801 1.5625 5.20801H23.4375C23.724 5.20801 23.9583 4.97467 23.9583 4.68717V3.64551C23.9583 3.35801 23.724 3.12467 23.4375 3.12467H1.5625Z" fill="white"></path><path d="M23.4375 22.9167H1.5625C0.701042 22.9167 0 22.2156 0 21.3542V20.3125C0 19.451 0.701042 18.75 1.5625 18.75H23.4375C24.299 18.75 25 19.451 25 20.3125V21.3542C25 22.2156 24.299 22.9167 23.4375 22.9167ZM1.5625 19.7917C1.27604 19.7917 1.04167 20.025 1.04167 20.3125V21.3542C1.04167 21.6417 1.27604 21.875 1.5625 21.875H23.4375C23.724 21.875 23.9583 21.6417 23.9583 21.3542V20.3125C23.9583 20.025 23.724 19.7917 23.4375 19.7917H1.5625Z" fill="white"></path><path d="M9.89589 16.6665C9.76256 16.6665 9.62922 16.6155 9.52714 16.5145L2.23547 9.22279C2.03235 9.01966 2.03235 8.68945 2.23547 8.48633C2.4386 8.2832 2.76881 8.2832 2.97193 8.48633L9.89589 15.4092L16.5584 8.74674C16.7615 8.54362 17.0917 8.54362 17.2948 8.74674C17.498 8.94987 17.498 9.28008 17.2948 9.4832L10.2636 16.5145C10.1626 16.6155 10.0292 16.6665 9.89589 16.6665Z" fill="white"></path><path d="M15.1041 16.6672C14.9708 16.6672 14.8375 16.6161 14.7354 16.5151L13.6 15.3797C13.3969 15.1765 13.3969 14.8463 13.6 14.6432C13.8031 14.4401 14.1333 14.4401 14.3364 14.6432L15.1031 15.4099L21.5052 9.00781C21.7083 8.80469 22.0385 8.80469 22.2416 9.00781C22.4448 9.21094 22.4448 9.54114 22.2416 9.74427L15.4708 16.5151C15.3708 16.6161 15.2375 16.6672 15.1041 16.6672Z" fill="white"></path><path d="M12.5 14.0624C12.3666 14.0624 12.2333 14.0113 12.1312 13.9103L7.44373 9.22279C7.2406 9.01966 7.2406 8.68945 7.44373 8.48633C7.64685 8.2832 7.97706 8.2832 8.18018 8.48633L12.8677 13.1738C13.0708 13.377 13.0708 13.7072 12.8677 13.9103C12.7666 14.0113 12.6333 14.0624 12.5 14.0624Z" fill="white"></path><path d="M17.1875 11.458C16.9 11.458 16.6667 11.2247 16.6667 10.9372V9.37467H15.1042C14.8167 9.37467 14.5834 9.14134 14.5834 8.85384C14.5834 8.56634 14.8167 8.33301 15.1042 8.33301H17.1875C17.475 8.33301 17.7084 8.56634 17.7084 8.85384V10.9372C17.7084 11.2247 17.475 11.458 17.1875 11.458Z" fill="white"></path><path d="M22.3958 11.458C22.1083 11.458 21.875 11.2247 21.875 10.9372V9.37467H20.3125C20.025 9.37467 19.7916 9.14134 19.7916 8.85384C19.7916 8.56634 20.025 8.33301 20.3125 8.33301H22.3958C22.6833 8.33301 22.9166 8.56634 22.9166 8.85384V10.9372C22.9166 11.2247 22.6833 11.458 22.3958 11.458Z" fill="white"></path></g><defs><clipPath id="clip0"><rect width="25" height="25" fill="white"></rect></clipPath></defs></svg> 