<?xml version="1.0" encoding="UTF-8"?> <svg xmlns="http://www.w3.org/2000/svg" width="25" height="25" viewBox="0 0 25 25" fill="none"><g clip-path="url(#clip0)"><path d="M12.5 3.20863C12.7027 3.20863 12.867 3.04434 12.867 2.84158V0.367048C12.867 0.16429 12.7027 0 12.5 0C12.2972 0 12.1329 0.16429 12.1329 0.367048V2.84158C12.1329 3.04434 12.2972 3.20863 12.5 3.20863Z" fill="white"></path><path d="M5.65197 5.83052C5.79537 5.97381 6.02768 5.97381 6.17108 5.83052C6.31442 5.68712 6.31442 5.45476 6.17108 5.31141L4.42129 3.56157C4.27794 3.41833 4.04558 3.41823 3.90219 3.56157C3.75884 3.70497 3.75884 3.93733 3.90219 4.08068L5.65197 5.83052Z" fill="white"></path><path d="M3.18245 11.792H0.707868C0.505111 11.792 0.34082 11.9563 0.34082 12.159C0.34082 12.3618 0.505111 12.5261 0.707868 12.5261H3.1824C3.38516 12.5261 3.54945 12.3618 3.54945 12.159C3.54945 11.9563 3.38516 11.792 3.18245 11.792Z" fill="white"></path><path d="M5.65197 18.4883L3.90219 20.2381C3.75884 20.3815 3.75884 20.6138 3.90219 20.7572C4.04558 20.9005 4.2779 20.9005 4.42129 20.7572L6.17108 19.0074C6.31442 18.864 6.31442 18.6316 6.17108 18.4883C6.02773 18.345 5.79537 18.345 5.65197 18.4883Z" fill="white"></path><path d="M19.3482 18.4883C19.2048 18.345 18.9724 18.345 18.8291 18.4883C18.6857 18.6317 18.6857 18.8641 18.8291 19.0074L20.5789 20.7572C20.7222 20.9005 20.9546 20.9005 21.098 20.7572C21.2413 20.6138 21.2413 20.3815 21.098 20.2381L19.3482 18.4883Z" fill="white"></path><path d="M24.2921 11.792H21.8176C21.6149 11.792 21.4506 11.9563 21.4506 12.159C21.4506 12.3618 21.6149 12.5261 21.8176 12.5261H24.2921C24.4949 12.5261 24.6592 12.3618 24.6592 12.159C24.6592 11.9563 24.4949 11.792 24.2921 11.792Z" fill="white"></path><path d="M20.5789 3.56157L18.8291 5.31141C18.6857 5.45481 18.6857 5.68717 18.8291 5.83052C18.9725 5.97381 19.2048 5.97381 19.3482 5.83052L21.098 4.08068C21.2413 3.93728 21.2413 3.70492 21.098 3.56157C20.9546 3.41828 20.7222 3.41828 20.5789 3.56157Z" fill="white"></path><path d="M19.751 11.4178C19.751 7.36206 16.4982 4.0625 12.5 4.0625C11.0995 4.0625 9.74012 4.46836 8.56899 5.23617C7.42958 5.98324 6.52126 7.03421 5.94225 8.27547C5.85656 8.45919 5.93604 8.67761 6.11971 8.7633C6.30358 8.84909 6.52185 8.76952 6.60754 8.58585C7.68123 6.28397 9.99417 4.7966 12.5 4.7966C16.0935 4.7966 19.0169 7.76684 19.0169 11.4178C19.0169 13.1519 18.3616 14.7914 17.1718 16.0341C16.486 16.7504 15.9023 17.4347 15.7521 18.3937H9.34395C9.1547 17.3982 8.47567 16.6997 7.86549 16.0727C6.65163 14.8252 5.98312 13.172 5.98312 11.4178C5.98312 10.9846 6.02457 10.5514 6.10625 10.1301C6.14486 9.9311 6.01483 9.73847 5.81579 9.69986C5.61681 9.66154 5.42418 9.79133 5.38557 9.99037C5.29493 10.4576 5.24902 10.9378 5.24902 11.4178C5.24902 13.3644 5.99139 15.1994 7.33938 16.5846C8.11356 17.3802 8.66159 18.0152 8.66159 18.946C8.66159 18.9493 8.66164 18.9526 8.66173 18.9558L8.68278 21.1098C8.68278 21.8086 9.05555 22.422 9.61263 22.7616V23.1653C9.61263 24.1772 10.4359 25.0005 11.4479 25.0005H13.6991C14.7111 25.0005 15.5343 24.1772 15.5343 23.1653V22.7616C16.0914 22.422 16.4642 21.8086 16.4642 21.1098C16.4642 21.1098 16.4616 18.7105 16.4567 18.6866C16.5263 17.8359 17.042 17.2312 17.7021 16.5418C19.0233 15.1617 19.751 13.342 19.751 11.4178ZM14.8002 23.1653C14.8002 23.7724 14.3062 24.2664 13.699 24.2664H11.4478C10.8407 24.2664 10.3467 23.7724 10.3467 23.1653V23.0238C10.4347 23.0361 10.5245 23.0429 10.6158 23.0429H14.531C14.6224 23.0429 14.7121 23.0361 14.8002 23.0238V23.1653ZM14.531 22.3088H10.6158C9.95467 22.3088 9.41682 21.771 9.41682 21.1098V21.0853H13.1362C13.339 21.0853 13.5033 20.921 13.5033 20.7183C13.5033 20.5155 13.339 20.3512 13.1362 20.3512H9.41682V19.1277H15.7187L15.73 20.3512H14.8491C14.6464 20.3512 14.4821 20.5155 14.4821 20.7183C14.4821 20.921 14.6464 21.0853 14.8491 21.0853H15.73V21.1098C15.73 21.771 15.1921 22.3088 14.531 22.3088Z" fill="white"></path><path d="M14.8864 11.4658C14.7621 11.6259 14.7911 11.8565 14.9512 11.9808C15.1112 12.1051 15.3418 12.0762 15.4662 11.916L16.1928 10.9802C16.3852 10.7324 16.4696 10.4245 16.4305 10.1132C16.3913 9.80194 16.2332 9.52455 15.9854 9.33212C15.7376 9.13969 15.4295 9.05483 15.1184 9.09452C14.8071 9.13367 14.5297 9.29169 14.3374 9.53953L11.9668 12.5926L10.6062 11.0872C10.1719 10.6069 9.42767 10.5694 8.94733 11.0035C8.71457 11.2139 8.57769 11.5023 8.56183 11.8157C8.54602 12.129 8.65315 12.4297 8.8635 12.6625L11.1637 15.2074C11.6267 15.7444 12.5417 15.7115 12.9628 15.1401L14.4156 13.2692C14.5399 13.1091 14.5109 12.8785 14.3508 12.7542C14.1907 12.6299 13.9601 12.6588 13.8358 12.819L12.383 14.6899C12.2253 14.9042 11.8812 14.9167 11.7084 14.7151L9.4082 12.1703C9.24533 11.9901 9.25942 11.711 9.43966 11.5482C9.61976 11.3855 9.89887 11.3994 10.0617 11.5796L11.7159 13.4098C11.8601 13.5769 12.1467 13.5674 12.2781 13.3887L14.9173 9.98982C15.0586 9.79984 15.3515 9.76298 15.5353 9.91205C15.7253 10.0534 15.7621 10.3461 15.6131 10.5301L14.8864 11.4658Z" fill="white"></path></g><defs><clipPath id="clip0"><rect width="25" height="25" fill="white"></rect></clipPath></defs></svg> 