<?xml version="1.0" encoding="UTF-8"?> <svg xmlns="http://www.w3.org/2000/svg" width="25" height="25" viewBox="0 0 25 25" fill="none"><g clip-path="url(#clip0)"><path d="M24.6363 1.60713L6.60787 6.65515C6.26139 6.75889 6.22569 7.00563 6.52838 7.20339L10.4867 9.79006C10.7894 9.98782 10.7626 10.2603 10.4273 10.3956L0.675712 14.3287C0.340282 14.4639 0.353365 14.645 0.704509 14.7309L9.32044 16.8405C9.67164 16.9265 9.70399 17.1467 9.39223 17.33L0.157314 22.7112C-0.154382 22.8945 0.0363439 23.4881 0.387421 23.4015L21.0828 18.5638C21.4339 18.4773 21.486 18.2269 21.1985 18.0075L16.2482 14.2304C15.9607 14.011 15.995 13.7092 16.3242 13.5598L24.4174 9.88513C24.7467 9.73569 24.7337 9.52517 24.3885 9.41748L18.1739 7.47775C17.8287 7.36999 17.7882 7.11148 18.0837 6.90314L24.8446 2.10021C25.1401 1.89193 24.9827 1.50338 24.6363 1.60713ZM21.1211 3.5562L15.8812 7.24882C15.5857 7.45717 15.6262 7.71574 15.9714 7.82343L21.6264 9.58855C21.9716 9.69631 21.9846 9.90676 21.6554 10.0562L14.415 13.3436C14.0858 13.493 14.0516 13.7948 14.3391 14.0142L18.9641 17.5431C19.2516 17.7625 19.1995 18.0128 18.8484 18.0994L4.28958 21.6915C3.9385 21.7781 3.90628 21.6991 4.21798 21.5158L11.9852 16.9495C12.2969 16.7662 12.2646 16.5459 11.9133 16.46L3.91148 14.5008C3.56027 14.4148 3.54732 14.2338 3.88268 14.0986L12.5482 10.6035C12.8836 10.4682 12.9103 10.1957 12.6076 9.99788L8.84497 7.53909C8.54221 7.34133 8.57798 7.09459 8.92445 6.99084L21.0287 3.36607C21.3751 3.26232 21.4166 3.34785 21.1211 3.5562Z" fill="white"></path><path d="M21.9849 13.0391C20.8452 13.0391 19.9433 13.6373 19.6875 14.5628C19.6574 14.6714 19.5776 14.9598 19.7666 15.2082C19.8996 15.3831 20.115 15.4718 20.4067 15.4718H23.431C23.8471 15.4718 24.0589 15.2978 24.1633 15.1519C24.3005 14.9603 24.3327 14.7004 24.2495 14.4567C23.9513 13.5822 23.0835 13.0391 21.9849 13.0391ZM23.3776 14.6829H20.6423C20.478 14.6829 20.5176 14.5852 20.5428 14.539C20.7832 14.1001 21.321 13.828 21.9849 13.828C22.6655 13.828 23.2072 14.1064 23.4408 14.5646C23.4598 14.6019 23.4926 14.6829 23.3776 14.6829Z" fill="white"></path><path d="M2.95144 10.9835H5.9757C6.3918 10.9835 6.60363 10.8095 6.7081 10.6636C6.84518 10.472 6.87739 10.2122 6.79429 9.96844C6.49607 9.09397 5.62837 8.55078 4.52965 8.55078C3.38989 8.55078 2.48814 9.14893 2.23232 10.0745C2.20221 10.1831 2.1224 10.4716 2.31142 10.72C2.44435 10.8948 2.65967 10.9835 2.95144 10.9835ZM3.10936 10.0127C3.35952 9.59626 3.88522 9.33978 4.52958 9.33978C5.17349 9.33978 5.69313 9.58902 5.94513 10.0039C5.9811 10.0632 6.05249 10.1946 5.89359 10.1946H3.18569C3.02133 10.1945 3.07478 10.0703 3.10936 10.0127Z" fill="white"></path></g><defs><clipPath id="clip0"><rect width="25" height="25" fill="white"></rect></clipPath></defs></svg> 