<?xml version="1.0" encoding="UTF-8"?> <svg xmlns="http://www.w3.org/2000/svg" width="27" height="27" viewBox="0 0 27 27" fill="none"><path d="M18.163 19.9758H14.7661C14.6694 19.9758 14.5766 19.9373 14.5082 19.8689C14.4397 19.8005 14.4013 19.7077 14.4013 19.6109C14.4013 19.5141 14.4397 19.4213 14.5082 19.3529C14.5766 19.2845 14.6694 19.246 14.7661 19.246H17.7982V10.5549H4.18871V19.246H8.58534C8.68211 19.246 8.77491 19.2845 8.84333 19.3529C8.91176 19.4213 8.9502 19.5141 8.9502 19.6109C8.9502 19.7077 8.91176 19.8005 8.84333 19.8689C8.77491 19.9373 8.68211 19.9758 8.58534 19.9758H3.82385C3.72708 19.9758 3.63428 19.9373 3.56585 19.8689C3.49743 19.8005 3.45898 19.7077 3.45898 19.6109V10.1901C3.45898 10.0933 3.49743 10.0005 3.56585 9.93206C3.63428 9.86364 3.72708 9.8252 3.82385 9.8252H18.163C18.2598 9.8252 18.3526 9.86364 18.421 9.93206C18.4895 10.0005 18.5279 10.0933 18.5279 10.1901V19.6109C18.5279 19.7077 18.4895 19.8005 18.421 19.8689C18.3526 19.9373 18.2598 19.9758 18.163 19.9758Z" fill="white"></path><path d="M12.212 19.9758H11.1393C11.0425 19.9758 10.9497 19.9374 10.8813 19.869C10.8129 19.8005 10.7744 19.7077 10.7744 19.611C10.7744 19.5142 10.8129 19.4214 10.8813 19.353C10.9497 19.2845 11.0425 19.2461 11.1393 19.2461H12.212C12.3088 19.2461 12.4016 19.2845 12.47 19.353C12.5384 19.4214 12.5769 19.5142 12.5769 19.611C12.5769 19.7077 12.5384 19.8005 12.47 19.869C12.4016 19.9374 12.3088 19.9758 12.212 19.9758Z" fill="white"></path><path d="M20.5185 10.5552H1.46783C1.39498 10.5551 1.32383 10.5333 1.26352 10.4924C1.2032 10.4516 1.1565 10.3936 1.12942 10.326C1.10234 10.2583 1.09612 10.1842 1.11156 10.113C1.12701 10.0418 1.1634 9.97684 1.21607 9.92652L10.7412 0.830438C10.8091 0.765645 10.8993 0.729492 10.9932 0.729492C11.087 0.729492 11.1772 0.765645 11.2451 0.830438L20.7703 9.92652C20.8229 9.97684 20.8593 10.0418 20.8748 10.113C20.8902 10.1842 20.884 10.2583 20.8569 10.326C20.8298 10.3936 20.7831 10.4516 20.7228 10.4924C20.6625 10.5333 20.5914 10.5551 20.5185 10.5552ZM2.37817 9.82545H19.6082L10.993 1.59884L2.37817 9.82545Z" fill="white"></path><path d="M24.0734 21.1654C23.9766 21.1654 23.8838 21.127 23.8154 21.0585C23.7469 20.9901 23.7085 20.8973 23.7085 20.8006V4.75744C23.7085 4.66067 23.7469 4.56787 23.8154 4.49944C23.8838 4.43102 23.9766 4.39258 24.0734 4.39258C24.1701 4.39258 24.2629 4.43102 24.3314 4.49944C24.3998 4.56787 24.4382 4.66067 24.4382 4.75744V20.8006C24.4382 20.8973 24.3998 20.9901 24.3314 21.0585C24.2629 21.127 24.1701 21.1654 24.0734 21.1654Z" fill="white"></path><path d="M25.5321 6.58089C25.4353 6.58087 25.3425 6.54242 25.2741 6.47399L24.0734 5.27358L22.873 6.47399C22.8042 6.54045 22.712 6.57723 22.6163 6.57639C22.5207 6.57556 22.4292 6.53719 22.3615 6.46954C22.2939 6.40189 22.2555 6.31038 22.2547 6.21471C22.2538 6.11905 22.2906 6.02688 22.3571 5.95807L23.8165 4.49861C23.8504 4.46469 23.8906 4.43778 23.9349 4.41941C23.9792 4.40105 24.0267 4.3916 24.0747 4.3916C24.1226 4.3916 24.1701 4.40105 24.2144 4.41941C24.2587 4.43778 24.2989 4.46469 24.3328 4.49861L25.7922 5.95807C25.8433 6.0091 25.878 6.0741 25.8921 6.14487C25.9061 6.21563 25.8989 6.28898 25.8713 6.35564C25.8437 6.42231 25.7969 6.47928 25.737 6.51938C25.677 6.55947 25.6064 6.58088 25.5343 6.58089H25.5321Z" fill="white"></path><path d="M24.0735 21.1654C23.9767 21.1653 23.884 21.1269 23.8155 21.0585L22.3561 19.599C22.2896 19.5302 22.2528 19.438 22.2537 19.3423C22.2545 19.2467 22.2929 19.1552 22.3605 19.0875C22.4282 19.0199 22.5197 18.9815 22.6154 18.9807C22.711 18.9798 22.8032 19.0166 22.872 19.0831L24.0724 20.2838L25.2732 19.0831C25.3068 19.0482 25.3471 19.0204 25.3916 19.0013C25.4361 18.9822 25.484 18.9721 25.5325 18.9717C25.5809 18.9713 25.6289 18.9805 25.6738 18.9989C25.7186 19.0172 25.7594 19.0443 25.7936 19.0785C25.8279 19.1128 25.855 19.1535 25.8733 19.1984C25.8917 19.2432 25.9009 19.2913 25.9005 19.3397C25.9001 19.3882 25.89 19.436 25.8709 19.4806C25.8517 19.5251 25.824 19.5653 25.7891 19.599L24.3296 21.0585C24.2617 21.1264 24.1696 21.1649 24.0735 21.1654Z" fill="white"></path></svg> 