<?xml version="1.0" encoding="UTF-8"?> <svg xmlns="http://www.w3.org/2000/svg" width="25" height="25" viewBox="0 0 25 25" fill="none"><path d="M20.8008 11.8652C20.8008 11.5955 20.5822 11.377 20.3125 11.377C20.0428 11.377 19.8242 11.5955 19.8242 11.8652C19.8242 13.4808 18.5101 14.7949 16.8945 14.7949C16.6248 14.7949 16.4062 15.0135 16.4062 15.2832C16.4062 15.5529 16.6248 15.7715 16.8945 15.7715C19.0485 15.7715 20.8008 14.0192 20.8008 11.8652Z" fill="white"></path><path d="M10.6281 16.6246C10.3701 17.0139 8.10547 20.4704 8.10547 21.9238C8.10547 23.5912 9.4471 25 11.0352 25C12.6232 25 13.9648 23.5912 13.9648 21.9238C13.9648 20.4704 11.7002 17.0139 11.4422 16.6246C11.3516 16.4883 11.1988 16.4062 11.0352 16.4062C10.8715 16.4062 10.7187 16.4883 10.6281 16.6246ZM12.9883 21.9238C12.9883 23.0423 12.0756 24.0234 11.0352 24.0234C9.9947 24.0234 9.08203 23.0423 9.08203 21.9238C9.08203 21.1714 10.1545 19.2076 11.0352 17.7977C11.9158 19.2076 12.9883 21.1714 12.9883 21.9238Z" fill="white"></path><path d="M5.66406 8.10547C5.50365 8.10547 5.35355 8.18424 5.26237 8.31623C4.95358 8.76312 2.24609 12.7325 2.24609 14.4531C2.24609 16.3378 3.77941 17.8711 5.66406 17.8711C7.54871 17.8711 9.08203 16.3378 9.08203 14.4531C9.08203 12.7325 6.37455 8.76312 6.06575 8.31623C5.97458 8.18424 5.82447 8.10547 5.66406 8.10547ZM5.66406 16.8945C4.31786 16.8945 3.22266 15.7993 3.22266 14.4531C3.22266 13.5088 4.58813 11.1115 5.66406 9.46922C6.74 11.1113 8.10547 13.5082 8.10547 14.4531C8.10547 15.7993 7.01027 16.8945 5.66406 16.8945Z" fill="white"></path><path d="M12.0117 11.377C12.0117 11.6467 11.7931 11.8652 11.5234 11.8652C11.2537 11.8652 11.0352 11.6467 11.0352 11.377C11.0352 11.1073 11.2537 10.8887 11.5234 10.8887C11.7931 10.8887 12.0117 11.1073 12.0117 11.377Z" fill="white"></path><path d="M17.3061 0.225449C17.2163 0.0850678 17.0612 0 16.8945 0C16.7278 0 16.5728 0.0850678 16.4829 0.225449C16.3424 0.445747 13.0234 5.66044 11.6379 9.33685C11.5427 9.5892 11.6703 9.87091 11.9226 9.9659C12.1748 10.0611 12.4565 9.93366 12.5517 9.68132C13.6187 6.84967 15.9504 2.94476 16.8959 1.40896C18.5652 4.10843 21.7773 9.74159 21.7773 11.8652C21.7773 14.5576 19.5869 16.748 16.8945 16.748C14.7146 16.748 12.7813 15.2842 12.1929 13.188C12.1201 12.9284 11.8505 12.7769 11.5908 12.8498C11.3312 12.9227 11.1799 13.1924 11.2526 13.452C11.9589 15.9676 14.279 17.7246 16.8945 17.7246C20.1254 17.7246 22.7539 15.0961 22.7539 11.8652C22.7539 9.17377 18.6989 2.40307 17.3061 0.225449Z" fill="white"></path></svg> 