<?xml version="1.0" encoding="UTF-8"?> <svg xmlns="http://www.w3.org/2000/svg" width="25" height="25" viewBox="0 0 25 25" fill="none"><path d="M12.5 7.74902C12.2303 7.74902 12.0117 7.96763 12.0117 8.2373V21.5529C12.0117 21.8226 12.2303 22.0412 12.5 22.0412C12.7697 22.0412 12.9883 21.8226 12.9883 21.5529V8.2373C12.9883 7.96763 12.7697 7.74902 12.5 7.74902Z" fill="white"></path><path d="M16.9215 21.5529V8.2373C16.9215 7.96763 16.7029 7.74902 16.4332 7.74902C16.1635 7.74902 15.9449 7.96763 15.9449 8.2373V21.5529C15.9449 21.8226 16.1635 22.0412 16.4332 22.0412C16.7029 22.0412 16.9215 21.8226 16.9215 21.5529Z" fill="white"></path><path d="M8.07825 8.2373V21.5529C8.07825 21.8226 8.29685 22.0412 8.56653 22.0412C8.83621 22.0412 9.05481 21.8226 9.05481 21.5529V8.2373C9.05481 7.96763 8.83621 7.74902 8.56653 7.74902C8.29685 7.74902 8.07825 7.96763 8.07825 8.2373Z" fill="white"></path><path d="M12.5 25C12.7697 25 12.9883 24.7814 12.9883 24.5117C12.9883 24.242 12.7697 24.0234 12.5 24.0234C12.2303 24.0234 12.0117 24.242 12.0117 24.5117C12.0117 24.7814 12.2303 25 12.5 25Z" fill="white"></path><path d="M22.0006 2.2373H15.9873V0.488281C15.9873 0.218604 15.7687 0 15.499 0H9.50088C9.2312 0 9.0126 0.218604 9.0126 0.488281V2.2373H2.99927C2.72959 2.2373 2.51099 2.45591 2.51099 2.72559V5.27876C2.51099 5.54844 2.72959 5.76704 2.99927 5.76704H3.51172L4.46475 24.5365C4.47793 24.7962 4.69238 25 4.95239 25H10.3027C10.5724 25 10.791 24.7814 10.791 24.5117C10.791 24.242 10.5724 24.0234 10.3027 24.0234H5.4165L4.48955 5.76704H20.5104L19.5834 24.0234H14.6972C14.4275 24.0234 14.2089 24.242 14.2089 24.5117C14.2089 24.7814 14.4275 25 14.6972 25H20.0475C20.3076 25 20.522 24.7962 20.5352 24.5365L21.4882 5.76704H22.0006C22.2703 5.76704 22.4889 5.54844 22.4889 5.27876V2.72559C22.4889 2.45591 22.2703 2.2373 22.0006 2.2373ZM9.98916 0.976562H15.0108V2.2373H9.98916V0.976562ZM21.5124 4.79048H3.48755V3.21387H21.5124V4.79048Z" fill="white"></path></svg> 