<?xml version="1.0" encoding="UTF-8"?> <svg xmlns="http://www.w3.org/2000/svg" width="25" height="25" viewBox="0 0 25 25" fill="none"><path d="M12.5 0C5.60761 0 0 5.60761 0 12.5C0 19.3924 5.60761 25 12.5 25C19.3924 25 25 19.3924 25 12.5C25 5.60761 19.3924 0 12.5 0ZM12.5 23.913C6.20652 23.913 1.08696 18.7935 1.08696 12.5C1.08696 6.20652 6.20652 1.08696 12.5 1.08696C18.7935 1.08696 23.913 6.20652 23.913 12.5C23.913 18.7935 18.7935 23.913 12.5 23.913Z" fill="white"></path><path d="M9.7826 10.3257C9.7826 9.42683 9.05108 8.69531 8.15216 8.69531C7.25325 8.69531 6.52173 9.42683 6.52173 10.3257C6.52173 11.2247 7.25325 11.9562 8.15216 11.9562C9.05108 11.9562 9.7826 11.2247 9.7826 10.3257ZM7.60869 10.3257C7.60869 10.0263 7.85271 9.78227 8.15216 9.78227C8.45162 9.78227 8.69564 10.0263 8.69564 10.3257C8.69564 10.6252 8.45162 10.8692 8.15216 10.8692C7.85271 10.8692 7.60869 10.6252 7.60869 10.3257Z" fill="white"></path><path d="M16.8477 8.69531C15.9488 8.69531 15.2173 9.42683 15.2173 10.3257C15.2173 11.2247 15.9488 11.9562 16.8477 11.9562C17.7466 11.9562 18.4781 11.2247 18.4781 10.3257C18.4781 9.42683 17.7466 8.69531 16.8477 8.69531ZM16.8477 10.8692C16.5483 10.8692 16.3042 10.6252 16.3042 10.3257C16.3042 10.0263 16.5483 9.78227 16.8477 9.78227C17.1472 9.78227 17.3912 10.0263 17.3912 10.3257C17.3912 10.6252 17.1472 10.8692 16.8477 10.8692Z" fill="white"></path><path d="M17.7538 15.3564C17.5299 15.1558 17.1859 15.1754 16.9864 15.3988C15.8527 16.6656 14.2179 17.3917 12.5 17.3917C10.7826 17.3917 9.14726 16.6656 8.01356 15.3988C7.81302 15.1754 7.47008 15.1558 7.24617 15.3564C7.02225 15.5564 7.00378 15.8999 7.20378 16.1238C8.54345 17.6205 10.4739 18.4787 12.5 18.4787C14.5266 18.4787 16.457 17.62 17.7962 16.1238C17.9962 15.8999 17.9772 15.5564 17.7538 15.3564Z" fill="white"></path></svg> 