<?xml version="1.0" encoding="UTF-8"?> <svg xmlns="http://www.w3.org/2000/svg" width="25" height="25" viewBox="0 0 25 25" fill="none"><g clip-path="url(#clip0)"><path d="M21.5699 18.3335C21.7023 17.631 21.6989 16.9097 21.5599 16.2085L23.4683 11.6031C23.4685 11.6 23.4685 11.597 23.4683 11.5939C23.7775 10.7473 24.2307 9.96041 24.8079 9.26807C24.9515 9.11639 25.0092 8.90269 24.9616 8.69932L24.1791 5.32015C24.1698 5.28483 24.1558 5.25091 24.1374 5.21932C24.1341 5.21307 24.1329 5.20557 24.1295 5.19973C24.1262 5.1939 24.1116 5.17973 24.1033 5.1689C24.0862 5.14394 24.0665 5.12089 24.0445 5.10015C24.03 5.08996 24.0149 5.08077 23.9991 5.07265C23.9788 5.0577 23.9572 5.04459 23.9345 5.03348C23.9031 5.02162 23.8704 5.01365 23.837 5.00973C23.8274 5.00973 23.8191 5.00348 23.8095 5.00265C23.7297 4.99733 23.65 5.01512 23.5799 5.0539C23.5737 5.05723 23.5662 5.05848 23.5599 5.06223H23.5558L20.6137 6.89848C20.4355 7.00882 20.3249 7.20149 20.3195 7.41098C20.2378 8.31063 20.0008 9.18932 19.6191 10.0081V10.0127L18.6654 12.3181C18.1973 12.0692 17.6961 11.8882 17.177 11.7806C17.3735 10.4243 17.4458 9.0529 17.3929 7.68349C18.1685 6.75288 18.5407 5.55126 18.427 4.34515C18.1666 1.91682 15.972 0.163068 15.8783 0.0893178C15.7374 -0.0216437 15.5413 -0.0299887 15.3915 0.068601C15.2416 0.167191 15.1717 0.350592 15.2179 0.523901C15.4324 1.32973 15.2466 2.18015 13.6616 3.9289C12.9495 4.61652 12.7238 5.66645 13.0904 6.58598C13.2305 6.93769 13.4314 7.26206 13.6837 7.54432C13.5829 8.18807 13.5037 8.79765 13.4491 9.3914C13.3551 10.3734 13.3309 11.3609 13.3766 12.3464C13.0049 12.5479 12.6569 12.7904 12.3391 13.0693L10.3183 4.42765C10.3183 4.4189 10.3099 4.41265 10.3074 4.40473C10.3007 4.37695 10.2909 4.34999 10.2783 4.32432L8.21412 0.512234C8.00754 0.130682 7.57113 -0.065387 7.14868 0.0335554C6.72623 0.132498 6.42227 0.501965 6.40661 0.935568L6.24995 5.26682C6.25005 5.29808 6.25354 5.32923 6.26036 5.35973C6.26036 5.3664 6.26036 5.37223 6.26036 5.37848L8.32203 14.1772C7.9968 14.1916 7.67395 14.2398 7.3587 14.321L5.09078 8.8439C4.90893 8.42521 4.42659 8.22766 4.00328 8.39849L0.537031 9.83348C0.112809 10.0106 -0.0887935 10.497 0.0857811 10.9222L3.16161 18.3422C1.35891 18.4369 -0.0403969 19.9502 0.0061323 21.7548C0.0526615 23.5594 1.52809 24.9985 3.33328 25.0002H21.6666C22.8575 24.9829 23.9487 24.3316 24.5292 23.2916C25.1097 22.2517 25.0913 20.981 24.4809 19.9583C23.8705 18.9356 22.7608 18.3162 21.5699 18.3335ZM21.1454 7.54848L22.892 6.45848L22.2737 7.95182C22.1856 8.16445 22.2865 8.40827 22.4991 8.4964C22.7117 8.58454 22.9556 8.48361 23.0437 8.27098L23.662 6.77765L24.1249 8.78307C23.6297 9.3873 23.2228 10.0589 22.9166 10.7777C22.4822 10.979 21.9834 10.9895 21.5409 10.8065C21.0984 10.6235 20.7527 10.2637 20.5874 9.81432C20.8801 9.08937 21.0679 8.32643 21.1454 7.54848ZM20.187 10.8197C20.4627 11.1567 20.8204 11.4172 21.2258 11.576C21.548 11.7146 21.8946 11.7877 22.2454 11.791C22.3298 11.7907 22.4141 11.7855 22.4979 11.7756L21.1683 14.9839C20.7702 14.1061 20.1543 13.3447 19.3791 12.7718L20.187 10.8197ZM14.4787 7.8439L16.572 7.97182C16.5849 8.36098 16.5804 8.76348 16.5674 9.17223C15.8701 9.22206 15.1693 9.18821 14.4799 9.0714C14.4274 9.0639 14.3762 9.05807 14.3241 9.05098C14.3658 8.65848 14.4166 8.26099 14.4779 7.8439H14.4787ZM14.2799 4.48848C15.3862 3.26807 15.9595 2.32932 16.0929 1.44682C16.888 2.26496 17.4129 3.30747 17.5966 4.43348C17.6841 5.41373 17.381 6.38888 16.7533 7.14682C15.9302 7.09682 15.1162 7.04682 14.3112 6.99682C13.9653 6.67346 13.7663 6.22296 13.7603 5.74949C13.7542 5.27603 13.9416 4.82059 14.2791 4.48848H14.2799ZM14.2483 9.8814L14.3691 9.89723C14.906 9.98027 15.448 10.0263 15.9912 10.0352C16.1637 10.0352 16.3454 10.0214 16.5274 10.0072C16.4895 10.5435 16.4274 11.1035 16.3487 11.6822C16.2458 11.6768 16.1449 11.6668 16.0416 11.6668C15.4125 11.6679 14.7882 11.7754 14.1949 11.9847C14.1757 11.2832 14.1933 10.5811 14.2474 9.8814H14.2483ZM11.0254 14.7539L9.83328 9.67598C9.77755 9.45568 9.55558 9.32066 9.33432 9.37248C9.11307 9.4243 8.97414 9.64385 9.02203 9.86598L10.0933 14.4364C9.79875 14.3311 9.49448 14.2553 9.18495 14.2102L7.3562 6.40598C7.61238 6.52263 7.89054 6.58315 8.17203 6.58348C8.19828 6.58348 8.2262 6.57973 8.25286 6.57848L8.54745 7.8364C8.57919 7.98364 8.68793 8.10228 8.83184 8.14671C8.97576 8.19114 9.13245 8.15444 9.24167 8.05073C9.35089 7.94701 9.39564 7.79242 9.3587 7.6464L9.0637 6.38765C9.3464 6.2625 9.59574 6.07268 9.79162 5.83348L11.6508 13.7831C11.4093 14.0842 11.1998 14.4096 11.0254 14.7539ZM8.47953 5.71223C7.94665 5.81558 7.40257 5.59772 7.08828 5.15515L7.1412 3.68765C7.28618 3.71473 7.4333 3.72867 7.58078 3.72932C7.72323 3.72992 7.86528 3.71412 8.00411 3.68223C8.2852 3.60842 8.54813 3.47766 8.77662 3.29807L9.47828 4.59307C9.39468 5.13037 9.00379 5.56872 8.47953 5.71307V5.71223ZM7.33828 0.844734C7.39504 0.831589 7.45361 0.85781 7.48161 0.908901L8.37495 2.56098C8.2138 2.70677 8.02137 2.81368 7.81245 2.87348C7.59892 2.91268 7.37923 2.90227 7.17036 2.84307L7.23828 0.965568C7.24055 0.907346 7.28151 0.857847 7.33828 0.844734ZM4.32286 9.16682L4.6412 9.93598L3.09953 10.5743C2.91676 10.6511 2.81337 10.846 2.85231 11.0403C2.89124 11.2347 3.06172 11.3747 3.25995 11.3752C3.31469 11.375 3.36889 11.3643 3.41953 11.3435L4.9612 10.7047L5.27995 11.4747L4.5087 11.7943C4.32488 11.8704 4.22048 12.0658 4.25942 12.2609C4.29835 12.456 4.46977 12.5963 4.6687 12.596C4.7233 12.5958 4.77735 12.585 4.82786 12.5643L5.59911 12.2447L5.91786 13.0147L4.37495 13.6543C4.19113 13.7304 4.08673 13.9258 4.12567 14.1209C4.1646 14.316 4.33602 14.4563 4.53495 14.456C4.58955 14.4558 4.64361 14.4451 4.69411 14.4243L6.23578 13.786L6.57286 14.5997C5.21511 15.2195 4.21948 16.4313 3.87495 17.8835L0.854948 10.6018L4.32286 9.16682ZM21.6666 24.1668H3.33328C1.95257 24.1668 0.833281 23.0475 0.833281 21.6668C0.833281 20.2861 1.95257 19.1668 3.33328 19.1668C3.57471 19.166 3.81493 19.2008 4.0462 19.2702C4.17113 19.3079 4.30653 19.2849 4.41202 19.2081C4.51751 19.1312 4.5809 19.0094 4.58328 18.8789C4.61292 17.3939 5.47136 16.0505 6.80647 15.3997C8.14157 14.749 9.72863 14.9004 10.9166 15.7918C11.0216 15.87 11.1572 15.8942 11.2828 15.8574C11.4083 15.8205 11.5093 15.7268 11.5554 15.6043C12.3694 13.4348 14.6193 12.1587 16.8991 12.5733C19.1789 12.988 20.8353 14.9746 20.8333 17.2918C20.8341 17.7683 20.7632 18.2423 20.6229 18.6977C20.5791 18.8393 20.6139 18.9936 20.7143 19.1028C20.8147 19.2119 20.9655 19.2595 21.1104 19.2277C21.2931 19.1874 21.4796 19.167 21.6666 19.1668C23.0473 19.1668 24.1666 20.2861 24.1666 21.6668C24.1666 23.0475 23.0473 24.1668 21.6666 24.1668Z" fill="white"></path><path d="M16.1186 6.54211C16.2494 6.5426 16.3728 6.48166 16.452 6.37752C16.9722 5.67346 17.1732 4.78349 17.0061 3.92419C16.9706 3.77726 16.8583 3.66111 16.7126 3.62067C16.567 3.58023 16.4108 3.62185 16.3046 3.72942C16.1984 3.837 16.1588 3.99365 16.2011 4.13877C16.3009 4.74937 16.152 5.37449 15.7878 5.87461C15.6931 6.00086 15.6779 6.16979 15.7485 6.31095C15.819 6.45211 15.9633 6.54127 16.1211 6.54127L16.1186 6.54211Z" fill="white"></path><path d="M15.5708 19.1664C15.2609 19.1674 14.9554 19.2386 14.677 19.3747C13.9275 18.3491 12.5279 18.0486 11.4234 18.6763C10.319 19.3039 9.86077 20.66 10.3583 21.8289C10.4237 21.9825 10.5746 22.0823 10.7416 22.0822C10.7978 22.0824 10.8533 22.071 10.9049 22.0489C11.0066 22.0056 11.0869 21.9237 11.1282 21.8211C11.1694 21.7186 11.1683 21.6039 11.1249 21.5022C11.0342 21.2908 10.9875 21.0631 10.9874 20.8331C10.9874 19.9126 11.7336 19.1664 12.6541 19.1664C13.3006 19.1632 13.8894 19.5378 14.1604 20.1247C14.1694 20.1383 14.1791 20.1514 14.1895 20.1639C14.1961 20.1782 14.2035 20.1921 14.2116 20.2056C14.2191 20.2147 14.2299 20.2189 14.2383 20.2277C14.2578 20.248 14.2795 20.2661 14.3029 20.2818C14.3237 20.2978 14.346 20.3118 14.3695 20.3235C14.3937 20.3336 14.4188 20.3415 14.4445 20.3468C14.4702 20.3536 14.4964 20.3576 14.5229 20.3589C14.577 20.3585 14.6307 20.3495 14.682 20.3322C14.6931 20.3302 14.7041 20.3276 14.7149 20.3243C14.7285 20.3156 14.7414 20.306 14.7537 20.2956C14.7687 20.2889 14.7833 20.2814 14.7974 20.2731C15.0163 20.0961 15.2893 19.9996 15.5708 19.9997C16.058 20.0005 16.5003 20.2843 16.7041 20.7268C16.7996 20.9362 17.0468 21.0286 17.2562 20.9331C17.4656 20.8376 17.5579 20.5904 17.4624 20.381C17.1232 19.6415 16.3844 19.1671 15.5708 19.1664Z" fill="white"></path><path d="M7.36826 16.2715C7.30534 16.292 5.83325 16.8011 5.83325 18.3336C5.83325 18.5638 6.0198 18.7503 6.24992 18.7503C6.48004 18.7503 6.66659 18.5638 6.66659 18.3336C6.7006 17.7524 7.08304 17.2496 7.63409 17.0615C7.85271 16.9881 7.97042 16.7514 7.89701 16.5328C7.8236 16.3142 7.58687 16.1965 7.36826 16.2699V16.2715Z" fill="white"></path><path d="M13.232 15.8205C13.2651 15.8289 13.2991 15.8331 13.3333 15.833C13.5242 15.8328 13.6906 15.7028 13.737 15.5176C13.9288 14.7395 14.6176 14.1861 15.4187 14.1663C15.6488 14.1658 15.8349 13.9788 15.8343 13.7486C15.8337 13.5185 15.6467 13.3324 15.4166 13.333C14.2323 13.3487 13.2089 14.1642 12.9291 15.3151C12.8732 15.5383 13.0088 15.7646 13.232 15.8205Z" fill="white"></path></g><defs><clipPath id="clip0"><rect width="25" height="25" fill="white"></rect></clipPath></defs></svg> 