<?xml version="1.0" encoding="UTF-8"?> <svg xmlns="http://www.w3.org/2000/svg" width="25" height="25" viewBox="0 0 25 25" fill="none"><g clip-path="url(#clip0)"><path d="M16.96 7.5752C16.6905 7.5752 16.4717 7.7934 16.4717 8.06329C16.4717 8.33299 16.6905 8.55157 16.96 8.55157C17.23 8.55157 17.4482 8.33299 17.4482 8.06329C17.4482 7.7934 17.23 7.5752 16.96 7.5752Z" fill="white"></path><path d="M8.08814 16.4473C7.81805 16.4473 7.59985 16.666 7.59985 16.9355C7.59985 17.2056 7.81805 17.4238 8.08814 17.4238C8.35764 17.4238 8.57642 17.2056 8.57642 16.9355C8.57642 16.666 8.35764 16.4473 8.08814 16.4473Z" fill="white"></path><path d="M24.4169 3.00393C24.2521 2.96559 24.079 3.01538 23.9599 3.13554L21.9357 5.17583H20.9652L19.8969 4.069V3.08499L21.8922 1.05996C22.0102 0.940179 22.0583 0.767945 22.0192 0.604104C21.9803 0.440453 21.8598 0.308465 21.7003 0.254678C21.1991 0.0856863 20.6745 4.63241e-05 20.141 4.63241e-05C18.5507 4.63241e-05 17.1059 0.741624 16.177 2.03462C15.3076 3.24502 15.0396 4.72837 15.4236 6.14801L11.8269 9.7447L5.83477 3.73883V2.56009C5.83477 2.38862 5.74475 2.22955 5.59769 2.14143L2.1452 0.0696646C1.95294 -0.0457301 1.70708 -0.0154032 1.54877 0.143098L0.167847 1.52383C0.00953671 1.68233 -0.0207901 1.92819 0.0944138 2.12045L2.1658 5.57294C2.25392 5.72 2.4128 5.80983 2.58427 5.81002L3.76263 5.81041L9.75533 11.8163L6.17238 15.3992C4.75273 15.0155 3.26863 15.2838 2.05765 16.1538C0.76542 17.0821 0.0244141 18.5265 0.0244141 20.1169C0.0244141 20.6502 0.110054 21.1749 0.279045 21.6759C0.333023 21.8363 0.466347 21.9575 0.631142 21.9956C0.796128 22.0339 0.969124 21.9842 1.08833 21.864L3.11241 19.8239H4.08821L5.20001 20.9357V21.9115L3.15991 23.9356C3.03974 24.0548 2.98996 24.2278 3.0283 24.3928C3.06645 24.5576 3.18756 24.6909 3.34797 24.7449C3.84903 24.9138 4.37374 24.9995 4.90704 24.9995C6.49739 24.9995 7.94163 24.2583 8.87013 22.9661C9.74007 21.7551 10.0084 20.2712 9.62468 18.8515L12.5023 15.9739L13.1615 16.6899L12.859 16.9922C12.6682 17.183 12.6682 17.4922 12.859 17.6829C13.0497 17.8734 13.3587 17.8734 13.5496 17.6829L13.8235 17.409L20.0083 24.1271C20.0129 24.132 20.0176 24.1368 20.0224 24.1416C21.1668 25.286 23.021 25.2864 24.1659 24.1414C25.3077 22.9991 25.3077 21.1403 24.1659 19.998C24.161 19.9931 24.1558 19.9883 24.1507 19.9835L17.4221 13.8106L17.693 13.5398C17.8837 13.3492 17.8837 13.04 17.693 12.8493C17.5022 12.6586 17.1932 12.6586 17.0023 12.8493L16.7019 13.1499L15.9845 12.4915L18.8761 9.59993C19.2871 9.70979 19.7113 9.76549 20.141 9.76549C22.8335 9.76549 25.0237 7.57509 25.0237 4.88286C25.0237 4.34938 24.938 3.82485 24.769 3.3236C24.7151 3.1632 24.5817 3.04208 24.4169 3.00393ZM4.3108 4.97728C4.21925 4.88553 4.09508 4.8388 3.96538 4.8388L2.86102 4.83842L1.12801 1.94497L1.96972 1.10326L4.85821 2.83666V3.94101C4.85821 4.07033 4.90952 4.19431 5.00088 4.28586L11.1364 10.4353L10.4458 11.1258L4.3108 4.97728ZM16.7309 14.5018L23.4823 20.6956C24.2365 21.4577 24.2342 22.6918 23.4753 23.4511C22.7146 24.2118 21.4832 24.214 20.7195 23.4578L14.5146 16.7178L16.7309 14.5018ZM16.0107 13.8409L13.8525 15.9987L13.1933 15.2827L15.2933 13.1825L16.0107 13.8409ZM20.141 8.78892C19.714 8.78892 19.294 8.72045 18.8931 8.58541C18.7174 8.52647 18.5232 8.57187 18.392 8.7029C15.9441 11.1508 10.6695 16.4252 8.72727 18.3676C8.59604 18.4989 8.55046 18.693 8.60978 18.8689C9.01566 20.0741 8.82149 21.3597 8.07686 22.3963C7.33433 23.4299 6.17886 24.0229 4.90704 24.0229C4.76418 24.0229 4.62208 24.0151 4.48132 24L6.03219 22.4612C6.1245 22.3696 6.17657 22.2449 6.17657 22.1146V20.7333C6.17657 20.6038 6.12507 20.4796 6.03352 20.3881L4.63562 18.9902C4.54407 18.8986 4.4199 18.8471 4.29039 18.8471H2.90909C2.77882 18.8471 2.65408 18.8992 2.56233 18.9915L1.02367 20.5424C1.00842 20.4016 1.00079 20.2595 1.00079 20.1167C1.00079 18.8447 1.59359 17.6894 2.62737 16.9468C3.66383 16.2022 4.94957 16.0079 6.15502 16.4139C6.33069 16.4733 6.52485 16.4277 6.65608 16.2964C6.68297 16.2697 16.3139 6.63858 16.3208 6.63171C16.452 6.50048 16.4974 6.30651 16.4383 6.13065C16.0322 4.9254 16.226 3.64022 16.9701 2.60434C17.7132 1.5698 18.8688 0.976609 20.1409 0.976609C20.2881 0.976609 20.4344 0.984811 20.5794 1.00083L19.0607 2.54216C18.9707 2.63352 18.9203 2.75655 18.9203 2.88472V4.26602C18.9203 4.39267 18.9694 4.51417 19.0573 4.60515L20.4064 6.00305C20.4983 6.09842 20.6251 6.1522 20.7577 6.1522H22.139C22.2691 6.1522 22.3938 6.10032 22.4856 6.00782L24.0242 4.45714C24.0395 4.5979 24.0471 4.74 24.0471 4.88286C24.0471 7.03664 22.2948 8.78892 20.141 8.78892Z" fill="white"></path><path d="M15.2338 9.09911L9.12362 15.2093C8.93308 15.3998 8.93308 15.709 9.12362 15.8998C9.31436 16.0905 9.62354 16.0905 9.81427 15.8998L15.9245 9.78957C16.1152 9.59902 16.1152 9.28984 15.9245 9.09911C15.7337 8.90837 15.4246 8.90837 15.2338 9.09911Z" fill="white"></path><path d="M21.4041 22.0707C21.5949 22.2609 21.904 22.2609 22.0948 22.0696C22.2851 21.8786 22.2845 21.5695 22.0936 21.3791L17.6924 16.992C17.5015 16.8017 17.1921 16.8022 17.002 16.9932C16.8114 17.1843 16.812 17.4933 17.0029 17.6836L21.4041 22.0707Z" fill="white"></path></g><defs><clipPath id="clip0"><rect width="24.9512" height="25" fill="white"></rect></clipPath></defs></svg> 