<?xml version="1.0" encoding="UTF-8"?> <svg xmlns="http://www.w3.org/2000/svg" width="25" height="25" viewBox="0 0 25 25" fill="none"><path d="M14.1662 23.332C19.2284 23.332 23.3322 19.2282 23.3322 14.166C23.3322 9.10375 19.2284 5 14.1662 5C9.104 5 5.00024 9.10375 5.00024 14.166C5.00597 19.2258 9.10634 23.3262 14.1662 23.332ZM7.08342 13.7493H5.85476C6.07193 9.48232 9.48256 6.07169 13.7496 5.85452V7.08318C13.7496 7.31326 13.9361 7.49981 14.1662 7.49981C14.3963 7.49981 14.5829 7.31326 14.5829 7.08318V5.85452C18.8499 6.07169 22.2605 9.48232 22.4777 13.7493H20.8324C20.6023 13.7493 20.4158 13.9359 20.4158 14.166C20.4158 14.3961 20.6023 14.5826 20.8324 14.5826H22.4777C22.2605 18.8496 18.8499 22.2603 14.5829 22.4774V21.2488C14.5829 21.0187 14.3963 20.8321 14.1662 20.8321C13.9361 20.8321 13.7496 21.0187 13.7496 21.2488V22.4774C9.48262 22.2603 6.07193 18.8496 5.85476 14.5826H7.08342C7.31351 14.5826 7.50006 14.3961 7.50006 14.166C7.50006 13.9359 7.31351 13.7493 7.08342 13.7493Z" fill="white"></path><path d="M23.5468 8.75653C23.4226 8.54134 23.2909 8.33052 23.1522 8.12439L24.1809 7.09572C24.3435 6.93302 24.3435 6.66929 24.1809 6.5066L21.8269 4.15261C21.6642 3.98996 21.4005 3.98996 21.2378 4.15261L20.2074 5.17961C18.5408 4.05438 16.5924 3.41834 14.5829 3.3435V0.833271H17.4993C17.7294 0.833271 17.9159 0.646722 17.9159 0.416635C17.9159 0.186549 17.7294 0 17.4993 0H10.8331C10.603 0 10.4165 0.186549 10.4165 0.416635C10.4165 0.646722 10.603 0.833271 10.8331 0.833271H13.7496V3.34725C10.0338 3.48911 6.65116 5.52906 4.79192 8.74934H2.50043C2.27034 8.74934 2.08379 8.93589 2.08379 9.16598C2.08379 9.39607 2.27034 9.58261 2.50043 9.58261H5.00024C5.01107 9.58261 5.02024 9.5772 5.03107 9.57637C5.18122 9.57829 5.32048 9.49851 5.39479 9.36805C8.04558 4.52341 14.1218 2.7449 18.9665 5.39564C23.8112 8.04638 25.5896 14.1227 22.9388 18.9673C20.288 23.812 14.2118 25.5905 9.36715 22.9397C7.69061 22.0224 6.31207 20.6439 5.39474 18.9673C5.32115 18.8363 5.1821 18.7557 5.03185 18.7569C5.02102 18.7569 5.01144 18.7507 5.00019 18.7507H2.50038C2.27029 18.7507 2.08374 18.9372 2.08374 19.1673C2.08374 19.3974 2.27029 19.5839 2.50038 19.5839H4.79187C7.7818 24.7629 14.404 26.5376 19.583 23.5477C24.762 20.5577 26.5366 13.9355 23.5468 8.75653ZM20.8883 5.6803L21.5323 5.03629L23.2971 6.80116L22.6522 7.44611C22.1335 6.7922 21.5417 6.19974 20.8883 5.6803Z" fill="white"></path><path d="M4.16709 14.1657C4.16709 13.9356 3.98054 13.749 3.75045 13.749H0.417368C0.187281 13.749 0.000732422 13.9356 0.000732422 14.1657C0.000732422 14.3957 0.187281 14.5823 0.417368 14.5823H3.75045C3.98054 14.5823 4.16709 14.3957 4.16709 14.1657Z" fill="white"></path><path d="M1.25062 12.0823H4.16707C4.39715 12.0823 4.5837 11.8957 4.5837 11.6657C4.5837 11.4356 4.39715 11.249 4.16707 11.249H1.25062C1.02053 11.249 0.833984 11.4356 0.833984 11.6657C0.833984 11.8957 1.02048 12.0823 1.25062 12.0823Z" fill="white"></path><path d="M4.5837 16.6657C4.5837 16.4356 4.39715 16.249 4.16707 16.249H1.25062C1.02053 16.249 0.833984 16.4356 0.833984 16.6657C0.833984 16.8957 1.02053 17.0823 1.25062 17.0823H4.16707C4.39715 17.0823 4.5837 16.8957 4.5837 16.6657Z" fill="white"></path><path d="M13.0384 16.9602C13.2011 17.1228 13.4649 17.1228 13.6276 16.9602L19.4188 11.169C19.5787 11.0034 19.5741 10.7397 19.4086 10.5798C19.2471 10.4239 18.9912 10.4239 18.8297 10.5798L13.333 16.0765L10.854 13.5975C10.6885 13.4377 10.4247 13.4422 10.2649 13.6077C10.109 13.7692 10.109 14.0251 10.2649 14.1866L13.0384 16.9602Z" fill="white"></path></svg> 