<svg width="186" height="186" viewBox="0 0 186 186" fill="none" xmlns="http://www.w3.org/2000/svg">
<path d="M93 186C144.362 186 186 144.362 186 93C186 41.6375 144.362 0 93 0C41.6375 0 0 41.6375 0 93C0 144.362 41.6375 186 93 186Z" fill="#333333"/>
<g opacity="0.5" filter="url(#filter0_d_120_49)">
<path d="M93 9L116.084 60.6764L176 65.149L130.35 101.559L144.297 156L93 126.826L41.7032 156L55.65 101.559L10 65.149L69.9164 60.6764L93 9Z" fill="#802C8E"/>
</g>
<g opacity="0.5" filter="url(#filter1_d_120_49)">
<path fill-rule="evenodd" clip-rule="evenodd" d="M116.084 61.6764L93 10L69.9164 61.6764L10 66.149L55.65 102.559L41.7032 157L93 127.826L144.297 157L130.35 102.559L176 66.149L116.084 61.6764ZM171.409 67.5407L114.817 63.3163L93 14.475L71.1829 63.3163L14.5906 67.5407L57.7073 101.931L44.5291 153.371L93 125.804L141.471 153.371L128.293 101.931L171.409 67.5407Z" fill="#FCFF61"/>
</g>
<path d="M63.0968 77.1725C63.1568 77.1725 63.2168 77.185 63.2768 77.21C63.3368 77.23 63.3943 77.2675 63.4493 77.3225L64.4543 78.38C64.0143 78.955 63.4618 79.39 62.7968 79.685C62.1368 79.975 61.3543 80.12 60.4493 80.12C59.6193 80.12 58.8743 79.98 58.2143 79.7C57.5593 79.415 57.0018 79.025 56.5418 78.53C56.0868 78.03 55.7368 77.44 55.4918 76.76C55.2468 76.075 55.1243 75.3325 55.1243 74.5325C55.1243 73.7175 55.2568 72.97 55.5218 72.29C55.7868 71.605 56.1593 71.015 56.6393 70.52C57.1193 70.025 57.6943 69.64 58.3643 69.365C59.0343 69.09 59.7718 68.9525 60.5768 68.9525C60.9868 68.9525 61.3718 68.99 61.7318 69.065C62.0968 69.135 62.4368 69.235 62.7518 69.365C63.0668 69.49 63.3568 69.6425 63.6218 69.8225C63.8868 70.0025 64.1218 70.1975 64.3268 70.4075L63.4718 71.555C63.4168 71.625 63.3518 71.69 63.2768 71.75C63.2018 71.805 63.0968 71.8325 62.9618 71.8325C62.8718 71.8325 62.7868 71.8125 62.7068 71.7725C62.6268 71.7325 62.5418 71.685 62.4518 71.63C62.3618 71.57 62.2618 71.5075 62.1518 71.4425C62.0468 71.3725 61.9193 71.31 61.7693 71.255C61.6243 71.195 61.4518 71.145 61.2518 71.105C61.0568 71.065 60.8268 71.045 60.5618 71.045C60.1418 71.045 59.7568 71.1225 59.4068 71.2775C59.0618 71.4325 58.7618 71.66 58.5068 71.96C58.2568 72.255 58.0618 72.62 57.9218 73.055C57.7868 73.485 57.7193 73.9775 57.7193 74.5325C57.7193 75.0925 57.7943 75.59 57.9443 76.025C58.0993 76.46 58.3068 76.8275 58.5668 77.1275C58.8318 77.4225 59.1393 77.6475 59.4893 77.8025C59.8393 77.9575 60.2143 78.035 60.6143 78.035C60.8443 78.035 61.0543 78.025 61.2443 78.005C61.4343 77.98 61.6118 77.9425 61.7768 77.8925C61.9418 77.8375 62.0968 77.7675 62.2418 77.6825C62.3868 77.5925 62.5343 77.48 62.6843 77.345C62.7443 77.295 62.8093 77.255 62.8793 77.225C62.9493 77.19 63.0218 77.1725 63.0968 77.1725ZM68.7148 72.1025C69.3048 72.1025 69.8423 72.195 70.3273 72.38C70.8123 72.565 71.2273 72.83 71.5723 73.175C71.9223 73.52 72.1923 73.94 72.3823 74.435C72.5773 74.925 72.6748 75.4775 72.6748 76.0925C72.6748 76.7125 72.5773 77.2725 72.3823 77.7725C72.1923 78.2675 71.9223 78.69 71.5723 79.04C71.2273 79.385 70.8123 79.6525 70.3273 79.8425C69.8423 80.0275 69.3048 80.12 68.7148 80.12C68.1198 80.12 67.5773 80.0275 67.0873 79.8425C66.6023 79.6525 66.1823 79.385 65.8273 79.04C65.4773 78.69 65.2048 78.2675 65.0098 77.7725C64.8198 77.2725 64.7248 76.7125 64.7248 76.0925C64.7248 75.4775 64.8198 74.925 65.0098 74.435C65.2048 73.94 65.4773 73.52 65.8273 73.175C66.1823 72.83 66.6023 72.565 67.0873 72.38C67.5773 72.195 68.1198 72.1025 68.7148 72.1025ZM68.7148 78.395C69.2498 78.395 69.6423 78.2075 69.8923 77.8325C70.1473 77.4525 70.2748 76.8775 70.2748 76.1075C70.2748 75.3375 70.1473 74.765 69.8923 74.39C69.6423 74.015 69.2498 73.8275 68.7148 73.8275C68.1648 73.8275 67.7623 74.015 67.5073 74.39C67.2523 74.765 67.1248 75.3375 67.1248 76.1075C67.1248 76.8775 67.2523 77.4525 67.5073 77.8325C67.7623 78.2075 68.1648 78.395 68.7148 78.395ZM73.2863 73.1C73.5913 72.805 73.9663 72.565 74.4113 72.38C74.8563 72.195 75.3938 72.1025 76.0238 72.1025C76.5138 72.1025 76.9513 72.16 77.3363 72.275C77.7213 72.39 78.0463 72.545 78.3113 72.74C78.5813 72.935 78.7863 73.1625 78.9263 73.4225C79.0713 73.6775 79.1438 73.9475 79.1438 74.2325C79.1438 74.3775 79.1238 74.5275 79.0838 74.6825C79.0438 74.8325 78.9763 74.9825 78.8813 75.1325C78.7913 75.2775 78.6713 75.415 78.5213 75.545C78.3713 75.67 78.1863 75.78 77.9663 75.875C78.1563 75.955 78.3313 76.0525 78.4913 76.1675C78.6513 76.2825 78.7888 76.4175 78.9038 76.5725C79.0188 76.7225 79.1088 76.8925 79.1738 77.0825C79.2388 77.2725 79.2713 77.48 79.2713 77.705C79.2713 78.095 79.1788 78.44 78.9938 78.74C78.8138 79.04 78.5738 79.2925 78.2738 79.4975C77.9788 79.7025 77.6413 79.8575 77.2613 79.9625C76.8813 80.0675 76.4963 80.12 76.1063 80.12C75.9063 80.12 75.6788 80.1 75.4238 80.06C75.1738 80.025 74.9138 79.96 74.6438 79.865C74.3738 79.765 74.1038 79.63 73.8338 79.46C73.5638 79.285 73.3088 79.06 73.0688 78.785L73.7438 77.9525C73.8388 77.8175 73.9788 77.75 74.1638 77.75C74.3038 77.75 74.4263 77.785 74.5313 77.855C74.6413 77.925 74.7588 78.0025 74.8838 78.0875C75.0088 78.1675 75.1538 78.2425 75.3188 78.3125C75.4838 78.3775 75.6938 78.41 75.9488 78.41C76.3338 78.41 76.6138 78.325 76.7888 78.155C76.9688 77.98 77.0588 77.765 77.0588 77.51C77.0588 77.255 76.9613 77.06 76.7663 76.925C76.5763 76.785 76.2463 76.715 75.7763 76.715H74.8988V75.2675H75.7763C76.1913 75.2675 76.5038 75.2 76.7138 75.065C76.9238 74.93 77.0288 74.745 77.0288 74.51C77.0288 74.285 76.9363 74.1125 76.7513 73.9925C76.5663 73.8725 76.3013 73.8125 75.9563 73.8125C75.7163 73.8125 75.5138 73.8375 75.3488 73.8875C75.1838 73.9375 75.0413 73.9925 74.9213 74.0525C74.8013 74.1075 74.6938 74.16 74.5988 74.21C74.5088 74.26 74.4163 74.285 74.3213 74.285C74.2163 74.285 74.1263 74.265 74.0513 74.225C73.9763 74.185 73.8963 74.1 73.8113 73.97L73.2863 73.1ZM83.841 78.47C84.131 78.47 84.361 78.3925 84.531 78.2375C84.701 78.0775 84.786 77.8625 84.786 77.5925C84.786 77.4825 84.7735 77.3775 84.7485 77.2775C84.7285 77.1775 84.6835 77.09 84.6135 77.015C84.5485 76.94 84.4535 76.8825 84.3285 76.8425C84.2035 76.7975 84.041 76.775 83.841 76.775H82.701V78.47H83.841ZM82.701 73.6775V75.395H83.6835C83.9685 75.395 84.201 75.31 84.381 75.14C84.561 74.965 84.651 74.7425 84.651 74.4725C84.651 74.3775 84.636 74.2825 84.606 74.1875C84.576 74.0925 84.5235 74.0075 84.4485 73.9325C84.3735 73.8575 84.2735 73.7975 84.1485 73.7525C84.0235 73.7025 83.8685 73.6775 83.6835 73.6775H82.701ZM83.751 72.2225C84.251 72.2225 84.686 72.27 85.056 72.365C85.426 72.46 85.731 72.5925 85.971 72.7625C86.216 72.9325 86.396 73.135 86.511 73.37C86.631 73.6 86.691 73.8525 86.691 74.1275C86.691 74.2975 86.6685 74.4725 86.6235 74.6525C86.5835 74.8275 86.511 74.9975 86.406 75.1625C86.301 75.3225 86.156 75.47 85.971 75.605C85.791 75.735 85.5585 75.84 85.2735 75.92C85.5085 75.975 85.726 76.0525 85.926 76.1525C86.131 76.2525 86.306 76.375 86.451 76.52C86.601 76.665 86.716 76.835 86.796 77.03C86.881 77.22 86.9235 77.4375 86.9235 77.6825C86.9235 78.0975 86.836 78.4525 86.661 78.7475C86.486 79.0375 86.2535 79.275 85.9635 79.46C85.6785 79.645 85.351 79.7825 84.981 79.8725C84.616 79.9575 84.241 80 83.856 80H80.496V72.2225H83.751ZM92.9507 75.1775C92.9507 74.9925 92.9257 74.8125 92.8757 74.6375C92.8307 74.4625 92.7532 74.3075 92.6432 74.1725C92.5382 74.0325 92.3982 73.92 92.2232 73.835C92.0482 73.75 91.8357 73.7075 91.5857 73.7075C91.1457 73.7075 90.8007 73.835 90.5507 74.09C90.3007 74.34 90.1357 74.7025 90.0557 75.1775H92.9507ZM90.0257 76.5275C90.1007 77.1775 90.2982 77.65 90.6182 77.945C90.9382 78.235 91.3507 78.38 91.8557 78.38C92.1257 78.38 92.3582 78.3475 92.5532 78.2825C92.7482 78.2175 92.9207 78.145 93.0707 78.065C93.2257 77.985 93.3657 77.9125 93.4907 77.8475C93.6207 77.7825 93.7557 77.75 93.8957 77.75C94.0807 77.75 94.2207 77.8175 94.3157 77.9525L94.9907 78.785C94.7507 79.06 94.4907 79.285 94.2107 79.46C93.9357 79.63 93.6507 79.765 93.3557 79.865C93.0657 79.96 92.7732 80.025 92.4782 80.06C92.1882 80.1 91.9107 80.12 91.6457 80.12C91.1007 80.12 90.5882 80.0325 90.1082 79.8575C89.6332 79.6775 89.2157 79.4125 88.8557 79.0625C88.5007 78.7125 88.2182 78.2775 88.0082 77.7575C87.8032 77.2375 87.7007 76.6325 87.7007 75.9425C87.7007 75.4225 87.7882 74.93 87.9632 74.465C88.1432 74 88.3982 73.5925 88.7282 73.2425C89.0632 72.8925 89.4657 72.615 89.9357 72.41C90.4107 72.205 90.9457 72.1025 91.5407 72.1025C92.0557 72.1025 92.5257 72.1825 92.9507 72.3425C93.3807 72.5025 93.7482 72.735 94.0532 73.04C94.3632 73.345 94.6032 73.72 94.7732 74.165C94.9482 74.605 95.0357 75.105 95.0357 75.665C95.0357 75.84 95.0282 75.9825 95.0132 76.0925C94.9982 76.2025 94.9707 76.29 94.9307 76.355C94.8907 76.42 94.8357 76.465 94.7657 76.49C94.7007 76.515 94.6157 76.5275 94.5107 76.5275H90.0257ZM95.7716 73.1C96.0766 72.805 96.4516 72.565 96.8966 72.38C97.3416 72.195 97.8791 72.1025 98.5091 72.1025C98.9991 72.1025 99.4366 72.16 99.8216 72.275C100.207 72.39 100.532 72.545 100.797 72.74C101.067 72.935 101.272 73.1625 101.412 73.4225C101.557 73.6775 101.629 73.9475 101.629 74.2325C101.629 74.3775 101.609 74.5275 101.569 74.6825C101.529 74.8325 101.462 74.9825 101.367 75.1325C101.277 75.2775 101.157 75.415 101.007 75.545C100.857 75.67 100.672 75.78 100.452 75.875C100.642 75.955 100.817 76.0525 100.977 76.1675C101.137 76.2825 101.274 76.4175 101.389 76.5725C101.504 76.7225 101.594 76.8925 101.659 77.0825C101.724 77.2725 101.757 77.48 101.757 77.705C101.757 78.095 101.664 78.44 101.479 78.74C101.299 79.04 101.059 79.2925 100.759 79.4975C100.464 79.7025 100.127 79.8575 99.7466 79.9625C99.3666 80.0675 98.9816 80.12 98.5916 80.12C98.3916 80.12 98.1641 80.1 97.9091 80.06C97.6591 80.025 97.3991 79.96 97.1291 79.865C96.8591 79.765 96.5891 79.63 96.3191 79.46C96.0491 79.285 95.7941 79.06 95.5541 78.785L96.2291 77.9525C96.3241 77.8175 96.4641 77.75 96.6491 77.75C96.7891 77.75 96.9116 77.785 97.0166 77.855C97.1266 77.925 97.2441 78.0025 97.3691 78.0875C97.4941 78.1675 97.6391 78.2425 97.8041 78.3125C97.9691 78.3775 98.1791 78.41 98.4341 78.41C98.8191 78.41 99.0991 78.325 99.2741 78.155C99.4541 77.98 99.5441 77.765 99.5441 77.51C99.5441 77.255 99.4466 77.06 99.2516 76.925C99.0616 76.785 98.7316 76.715 98.2616 76.715H97.3841V75.2675H98.2616C98.6766 75.2675 98.9891 75.2 99.1991 75.065C99.4091 74.93 99.5141 74.745 99.5141 74.51C99.5141 74.285 99.4216 74.1125 99.2366 73.9925C99.0516 73.8725 98.7866 73.8125 98.4416 73.8125C98.2016 73.8125 97.9991 73.8375 97.8341 73.8875C97.6691 73.9375 97.5266 73.9925 97.4066 74.0525C97.2866 74.1075 97.1791 74.16 97.0841 74.21C96.9941 74.26 96.9016 74.285 96.8066 74.285C96.7016 74.285 96.6116 74.265 96.5366 74.225C96.4616 74.185 96.3816 74.1 96.2966 73.97L95.7716 73.1ZM108.021 78.4025V73.94H106.589C106.544 74.49 106.486 74.9925 106.416 75.4475C106.351 75.9025 106.276 76.3125 106.191 76.6775C106.106 77.0425 106.011 77.3675 105.906 77.6525C105.806 77.9375 105.699 78.1875 105.584 78.4025H108.021ZM111.704 78.335V81.89C111.704 82.09 111.641 82.25 111.516 82.37C111.396 82.49 111.241 82.55 111.051 82.55H109.589V80H104.406V81.92C104.406 82 104.394 82.0775 104.369 82.1525C104.344 82.2275 104.304 82.295 104.249 82.355C104.199 82.415 104.134 82.4625 104.054 82.4975C103.974 82.5325 103.879 82.55 103.769 82.55H102.291V78.4025H102.479C102.649 78.4025 102.814 78.385 102.974 78.35C103.139 78.31 103.294 78.2225 103.439 78.0875C103.589 77.9525 103.726 77.7525 103.851 77.4875C103.981 77.2225 104.099 76.8625 104.204 76.4075C104.314 75.9475 104.409 75.3775 104.489 74.6975C104.574 74.0125 104.641 73.1875 104.691 72.2225H110.271V78.335H111.704ZM119.983 72.2225V80H117.658V76.04C117.658 75.91 117.665 75.77 117.68 75.62C117.695 75.465 117.715 75.3075 117.74 75.1475C117.62 75.4175 117.493 75.645 117.358 75.83C117.348 75.84 117.305 75.9 117.23 76.01C117.16 76.12 117.068 76.2625 116.953 76.4375C116.843 76.6075 116.715 76.8 116.57 77.015C116.43 77.23 116.285 77.45 116.135 77.675C115.785 78.2 115.393 78.7925 114.958 79.4525C114.913 79.5175 114.86 79.585 114.8 79.655C114.745 79.72 114.683 79.78 114.613 79.835C114.543 79.885 114.468 79.9275 114.388 79.9625C114.308 79.9925 114.223 80.0075 114.133 80.0075H112.708V72.23H115.033V76.19C115.033 76.315 115.025 76.455 115.01 76.61C114.995 76.765 114.975 76.9225 114.95 77.0825C115.07 76.8125 115.198 76.585 115.333 76.4C115.338 76.39 115.378 76.33 115.453 76.22C115.528 76.11 115.62 75.97 115.73 75.8C115.845 75.625 115.973 75.43 116.113 75.215C116.258 75 116.405 74.78 116.555 74.555C116.905 74.03 117.298 73.4375 117.733 72.7775C117.778 72.7125 117.828 72.6475 117.883 72.5825C117.943 72.5125 118.008 72.4525 118.078 72.4025C118.148 72.3475 118.223 72.305 118.303 72.275C118.383 72.24 118.468 72.2225 118.558 72.2225H119.983ZM126.393 75.1775C126.393 74.9925 126.368 74.8125 126.318 74.6375C126.273 74.4625 126.196 74.3075 126.086 74.1725C125.981 74.0325 125.841 73.92 125.666 73.835C125.491 73.75 125.278 73.7075 125.028 73.7075C124.588 73.7075 124.243 73.835 123.993 74.09C123.743 74.34 123.578 74.7025 123.498 75.1775H126.393ZM123.468 76.5275C123.543 77.1775 123.741 77.65 124.061 77.945C124.381 78.235 124.793 78.38 125.298 78.38C125.568 78.38 125.801 78.3475 125.996 78.2825C126.191 78.2175 126.363 78.145 126.513 78.065C126.668 77.985 126.808 77.9125 126.933 77.8475C127.063 77.7825 127.198 77.75 127.338 77.75C127.523 77.75 127.663 77.8175 127.758 77.9525L128.433 78.785C128.193 79.06 127.933 79.285 127.653 79.46C127.378 79.63 127.093 79.765 126.798 79.865C126.508 79.96 126.216 80.025 125.921 80.06C125.631 80.1 125.353 80.12 125.088 80.12C124.543 80.12 124.031 80.0325 123.551 79.8575C123.076 79.6775 122.658 79.4125 122.298 79.0625C121.943 78.7125 121.661 78.2775 121.451 77.7575C121.246 77.2375 121.143 76.6325 121.143 75.9425C121.143 75.4225 121.231 74.93 121.406 74.465C121.586 74 121.841 73.5925 122.171 73.2425C122.506 72.8925 122.908 72.615 123.378 72.41C123.853 72.205 124.388 72.1025 124.983 72.1025C125.498 72.1025 125.968 72.1825 126.393 72.3425C126.823 72.5025 127.191 72.735 127.496 73.04C127.806 73.345 128.046 73.72 128.216 74.165C128.391 74.605 128.478 75.105 128.478 75.665C128.478 75.84 128.471 75.9825 128.456 76.0925C128.441 76.2025 128.413 76.29 128.373 76.355C128.333 76.42 128.278 76.465 128.208 76.49C128.143 76.515 128.058 76.5275 127.953 76.5275H123.468ZM67.7633 98H65.4383V91.8875H63.0383V98H60.7133V90.2225H67.7633V98ZM72.9262 90.1025C73.5162 90.1025 74.0537 90.195 74.5387 90.38C75.0237 90.565 75.4387 90.83 75.7837 91.175C76.1337 91.52 76.4037 91.94 76.5937 92.435C76.7887 92.925 76.8862 93.4775 76.8862 94.0925C76.8862 94.7125 76.7887 95.2725 76.5937 95.7725C76.4037 96.2675 76.1337 96.69 75.7837 97.04C75.4387 97.385 75.0237 97.6525 74.5387 97.8425C74.0537 98.0275 73.5162 98.12 72.9262 98.12C72.3312 98.12 71.7887 98.0275 71.2987 97.8425C70.8137 97.6525 70.3937 97.385 70.0387 97.04C69.6887 96.69 69.4162 96.2675 69.2212 95.7725C69.0312 95.2725 68.9362 94.7125 68.9362 94.0925C68.9362 93.4775 69.0312 92.925 69.2212 92.435C69.4162 91.94 69.6887 91.52 70.0387 91.175C70.3937 90.83 70.8137 90.565 71.2987 90.38C71.7887 90.195 72.3312 90.1025 72.9262 90.1025ZM72.9262 96.395C73.4612 96.395 73.8537 96.2075 74.1037 95.8325C74.3587 95.4525 74.4862 94.8775 74.4862 94.1075C74.4862 93.3375 74.3587 92.765 74.1037 92.39C73.8537 92.015 73.4612 91.8275 72.9262 91.8275C72.3762 91.8275 71.9737 92.015 71.7187 92.39C71.4637 92.765 71.3362 93.3375 71.3362 94.1075C71.3362 94.8775 71.4637 95.4525 71.7187 95.8325C71.9737 96.2075 72.3762 96.395 72.9262 96.395ZM84.7877 91.8875H82.2002V98H79.8752V91.8875H77.2877V90.2225H84.7877V91.8875ZM89.1713 90.1025C89.7613 90.1025 90.2988 90.195 90.7838 90.38C91.2688 90.565 91.6838 90.83 92.0288 91.175C92.3788 91.52 92.6488 91.94 92.8388 92.435C93.0338 92.925 93.1313 93.4775 93.1313 94.0925C93.1313 94.7125 93.0338 95.2725 92.8388 95.7725C92.6488 96.2675 92.3788 96.69 92.0288 97.04C91.6838 97.385 91.2688 97.6525 90.7838 97.8425C90.2988 98.0275 89.7613 98.12 89.1713 98.12C88.5763 98.12 88.0338 98.0275 87.5438 97.8425C87.0588 97.6525 86.6388 97.385 86.2838 97.04C85.9338 96.69 85.6613 96.2675 85.4663 95.7725C85.2763 95.2725 85.1813 94.7125 85.1813 94.0925C85.1813 93.4775 85.2763 92.925 85.4663 92.435C85.6613 91.94 85.9338 91.52 86.2838 91.175C86.6388 90.83 87.0588 90.565 87.5438 90.38C88.0338 90.195 88.5763 90.1025 89.1713 90.1025ZM89.1713 96.395C89.7063 96.395 90.0988 96.2075 90.3488 95.8325C90.6038 95.4525 90.7313 94.8775 90.7313 94.1075C90.7313 93.3375 90.6038 92.765 90.3488 92.39C90.0988 92.015 89.7063 91.8275 89.1713 91.8275C88.6213 91.8275 88.2188 92.015 87.9638 92.39C87.7088 92.765 87.5813 93.3375 87.5813 94.1075C87.5813 94.8775 87.7088 95.4525 87.9638 95.8325C88.2188 96.2075 88.6213 96.395 89.1713 96.395ZM101.716 98H99.391V91.94H97.981C97.916 92.87 97.8185 93.6675 97.6885 94.3325C97.5585 94.9975 97.4035 95.56 97.2235 96.02C97.0485 96.475 96.851 96.8425 96.631 97.1225C96.411 97.3975 96.176 97.61 95.926 97.76C95.681 97.905 95.4235 98 95.1535 98.045C94.8885 98.095 94.6185 98.12 94.3435 98.12C93.9985 98.12 93.7535 98.09 93.6085 98.03C93.4685 97.975 93.3985 97.8975 93.3985 97.7975V96.4025H93.886C94.046 96.4025 94.2035 96.3825 94.3585 96.3425C94.5135 96.2975 94.6635 96.205 94.8085 96.065C94.9535 95.92 95.091 95.7125 95.221 95.4425C95.351 95.1675 95.4685 94.8025 95.5735 94.3475C95.6835 93.8875 95.7785 93.3225 95.8585 92.6525C95.9435 91.9775 96.011 91.1675 96.061 90.2225H101.716V98ZM107.871 90.8075C107.986 90.6325 108.139 90.4925 108.329 90.3875C108.524 90.2775 108.726 90.2225 108.936 90.2225H110.774L109.139 93.05C109.014 93.26 108.886 93.43 108.756 93.56C108.626 93.69 108.469 93.79 108.284 93.86C108.539 93.945 108.746 94.065 108.906 94.22C109.066 94.375 109.209 94.57 109.334 94.805L110.961 98H109.356C109.151 98 108.971 97.985 108.816 97.955C108.666 97.92 108.531 97.87 108.411 97.805C108.291 97.74 108.186 97.66 108.096 97.565C108.006 97.47 107.924 97.36 107.849 97.235L107.024 95.2775C106.949 95.1025 106.839 94.975 106.694 94.895C106.554 94.81 106.391 94.7675 106.206 94.7675H105.621V98H103.296V90.2225H105.621V93.305H106.101C106.311 93.305 106.466 93.2725 106.566 93.2075C106.671 93.1375 106.764 93.0225 106.844 92.8625L107.871 90.8075ZM115.114 90.1025C115.704 90.1025 116.241 90.195 116.726 90.38C117.211 90.565 117.626 90.83 117.971 91.175C118.321 91.52 118.591 91.94 118.781 92.435C118.976 92.925 119.074 93.4775 119.074 94.0925C119.074 94.7125 118.976 95.2725 118.781 95.7725C118.591 96.2675 118.321 96.69 117.971 97.04C117.626 97.385 117.211 97.6525 116.726 97.8425C116.241 98.0275 115.704 98.12 115.114 98.12C114.519 98.12 113.976 98.0275 113.486 97.8425C113.001 97.6525 112.581 97.385 112.226 97.04C111.876 96.69 111.604 96.2675 111.409 95.7725C111.219 95.2725 111.124 94.7125 111.124 94.0925C111.124 93.4775 111.219 92.925 111.409 92.435C111.604 91.94 111.876 91.52 112.226 91.175C112.581 90.83 113.001 90.565 113.486 90.38C113.976 90.195 114.519 90.1025 115.114 90.1025ZM115.114 96.395C115.649 96.395 116.041 96.2075 116.291 95.8325C116.546 95.4525 116.674 94.8775 116.674 94.1075C116.674 93.3375 116.546 92.765 116.291 92.39C116.041 92.015 115.649 91.8275 115.114 91.8275C114.564 91.8275 114.161 92.015 113.906 92.39C113.651 92.765 113.524 93.3375 113.524 94.1075C113.524 94.8775 113.651 95.4525 113.906 95.8325C114.161 96.2075 114.564 96.395 115.114 96.395ZM123.59 96.47C123.88 96.47 124.11 96.3925 124.28 96.2375C124.45 96.0775 124.535 95.8625 124.535 95.5925C124.535 95.4825 124.522 95.3775 124.497 95.2775C124.477 95.1775 124.432 95.09 124.362 95.015C124.297 94.94 124.202 94.8825 124.077 94.8425C123.952 94.7975 123.79 94.775 123.59 94.775H122.45V96.47H123.59ZM122.45 91.6775V93.395H123.432C123.717 93.395 123.95 93.31 124.13 93.14C124.31 92.965 124.4 92.7425 124.4 92.4725C124.4 92.3775 124.385 92.2825 124.355 92.1875C124.325 92.0925 124.272 92.0075 124.197 91.9325C124.122 91.8575 124.022 91.7975 123.897 91.7525C123.772 91.7025 123.617 91.6775 123.432 91.6775H122.45ZM123.5 90.2225C124 90.2225 124.435 90.27 124.805 90.365C125.175 90.46 125.48 90.5925 125.72 90.7625C125.965 90.9325 126.145 91.135 126.26 91.37C126.38 91.6 126.44 91.8525 126.44 92.1275C126.44 92.2975 126.417 92.4725 126.372 92.6525C126.332 92.8275 126.26 92.9975 126.155 93.1625C126.05 93.3225 125.905 93.47 125.72 93.605C125.54 93.735 125.307 93.84 125.022 93.92C125.257 93.975 125.475 94.0525 125.675 94.1525C125.88 94.2525 126.055 94.375 126.2 94.52C126.35 94.665 126.465 94.835 126.545 95.03C126.63 95.22 126.672 95.4375 126.672 95.6825C126.672 96.0975 126.585 96.4525 126.41 96.7475C126.235 97.0375 126.002 97.275 125.712 97.46C125.427 97.645 125.1 97.7825 124.73 97.8725C124.365 97.9575 123.99 98 123.605 98H120.245V90.2225H123.5Z" fill="white"/>
<defs>
<filter id="filter0_d_120_49" x="10" y="9" width="176" height="155" filterUnits="userSpaceOnUse" color-interpolation-filters="sRGB">
<feFlood flood-opacity="0" result="BackgroundImageFix"/>
<feColorMatrix in="SourceAlpha" type="matrix" values="0 0 0 0 0 0 0 0 0 0 0 0 0 0 0 0 0 0 127 0" result="hardAlpha"/>
<feOffset dx="6" dy="4"/>
<feGaussianBlur stdDeviation="2"/>
<feComposite in2="hardAlpha" operator="out"/>
<feColorMatrix type="matrix" values="0 0 0 0 0.351772 0 0 0 0 0.300278 0 0 0 0 0.383333 0 0 0 0.25 0"/>
<feBlend mode="normal" in2="BackgroundImageFix" result="effect1_dropShadow_120_49"/>
<feBlend mode="normal" in="SourceGraphic" in2="effect1_dropShadow_120_49" result="shape"/>
</filter>
<filter id="filter1_d_120_49" x="10" y="10" width="176" height="155" filterUnits="userSpaceOnUse" color-interpolation-filters="sRGB">
<feFlood flood-opacity="0" result="BackgroundImageFix"/>
<feColorMatrix in="SourceAlpha" type="matrix" values="0 0 0 0 0 0 0 0 0 0 0 0 0 0 0 0 0 0 127 0" result="hardAlpha"/>
<feOffset dx="6" dy="4"/>
<feGaussianBlur stdDeviation="2"/>
<feComposite in2="hardAlpha" operator="out"/>
<feColorMatrix type="matrix" values="0 0 0 0 0.351772 0 0 0 0 0.300278 0 0 0 0 0.383333 0 0 0 0.25 0"/>
<feBlend mode="normal" in2="BackgroundImageFix" result="effect1_dropShadow_120_49"/>
<feBlend mode="normal" in="SourceGraphic" in2="effect1_dropShadow_120_49" result="shape"/>
</filter>
</defs>
</svg>
