<svg width="341" height="183" viewBox="0 0 341 183" fill="none" xmlns="http://www.w3.org/2000/svg">
<g filter="url(#filter0_d_3_2)">
<g filter="url(#filter1_d_3_2)">
<path d="M321.582 18.0855L323.43 0L14.4486 16L4 129L311.986 112L313.344 98.7032L227.402 103L235.363 21.5L321.582 18.0855Z" fill="#D01C82"/>
<path d="M235.363 21.5L227.402 103L313.344 98.7032L321.582 18.0855L235.363 21.5Z" fill="#FE0000"/>
<path d="M327.41 98L336.366 17.5L321.582 18.0855L313.344 98.7032L327.41 98Z" fill="#FF0000"/>
<path d="M68.1844 174.5L201.529 155L94.5548 141.19L68.1844 174.5Z" fill="#FF0000"/>
</g>
<g filter="url(#filter2_d_3_2)">
<path d="M205.509 117.5L4 129.5L202.026 155L205.509 117.5Z" fill="#FF0000"/>
</g>
<path d="M327.908 98L313.479 99L312.981 103.5L327.908 98Z" fill="black"/>
<path d="M214.963 118L205.509 124V118.5L214.963 118Z" fill="black"/>
</g>
<path d="M54.4235 39.1939L57.8492 104.559L47.9551 105.077L45.048 49.6066L44.665 49.6266L29.5612 60.6595L29.0661 51.2122L44.8167 39.6974L54.4235 39.1939ZM94.2968 91.6392L92.0354 48.4882L100.621 48.0383L102.882 91.1893L94.2968 91.6392ZM76.1235 75.2455L75.6752 66.6918L118.826 64.4304L119.274 72.984L76.1235 75.2455ZM156.764 33.8305L160.189 99.1954L150.295 99.7139L147.388 44.2432L147.005 44.2632L131.901 55.2961L131.406 45.8488L147.157 34.334L156.764 33.8305ZM179.054 59.7698L178.615 51.4077L219.5 49.265L219.939 57.6271L179.054 59.7698ZM180.084 79.4303L179.646 71.0682L220.531 68.9255L220.969 77.2877L180.084 79.4303ZM284.319 93.5861C279.936 93.8158 275.981 93.2657 272.455 91.9356C268.95 90.6044 266.128 88.6507 263.987 86.0746C261.866 83.476 260.639 80.404 260.303 76.8584L270.325 76.3332C270.554 78.2628 271.291 79.9097 272.536 81.274C273.802 82.6158 275.412 83.6196 277.367 84.2852C279.322 84.9509 281.47 85.2224 283.81 85.0997C286.385 84.9648 288.638 84.3986 290.57 83.4013C292.523 82.4028 294.022 81.0761 295.066 79.4211C296.109 77.7449 296.575 75.8536 296.465 73.7471C296.35 71.5555 295.685 69.6595 294.471 68.0589C293.276 66.436 291.579 65.202 289.38 64.3572C287.202 63.5112 284.603 63.1674 281.581 63.3257L276.06 63.6151L275.638 55.5722L281.16 55.2828C283.585 55.1557 285.69 54.608 287.474 53.6397C289.28 52.6703 290.663 51.3816 291.624 49.7737C292.584 48.1445 293.009 46.2767 292.899 44.1702C292.793 42.1488 292.243 40.4174 291.25 38.9759C290.278 37.5121 288.939 36.3981 287.235 35.6339C285.552 34.8687 283.593 34.5446 281.359 34.6617C279.231 34.7732 277.262 35.2711 275.453 36.1554C273.663 37.0173 272.231 38.2018 271.158 39.7089C270.084 41.1947 269.557 42.9399 269.576 44.9444L260.033 45.4446C259.955 41.9069 260.834 38.7457 262.673 35.961C264.532 33.1752 267.061 30.9411 270.258 29.2587C273.456 27.5763 277.055 26.6302 281.055 26.4206C285.247 26.2009 288.907 26.8305 292.036 28.3094C295.184 29.766 297.659 31.8019 299.461 34.4171C301.283 37.0313 302.268 39.9454 302.415 43.1594C302.628 46.8181 301.77 49.9781 299.839 52.6396C297.931 55.3 295.297 57.1556 291.938 58.2064L291.965 58.717C296.34 59.1491 299.792 60.6964 302.321 63.3589C304.872 66.0203 306.245 69.4154 306.44 73.5444C306.649 77.1392 305.818 80.4152 303.946 83.3723C302.096 86.3283 299.479 88.7164 296.097 90.5366C292.713 92.3354 288.787 93.3519 284.319 93.5861Z" fill="white"/>
<defs>
<filter id="filter0_d_3_2" x="0" y="0" width="340.366" height="182.5" filterUnits="userSpaceOnUse" color-interpolation-filters="sRGB">
<feFlood flood-opacity="0" result="BackgroundImageFix"/>
<feColorMatrix in="SourceAlpha" type="matrix" values="0 0 0 0 0 0 0 0 0 0 0 0 0 0 0 0 0 0 127 0" result="hardAlpha"/>
<feOffset dy="4"/>
<feGaussianBlur stdDeviation="2"/>
<feComposite in2="hardAlpha" operator="out"/>
<feColorMatrix type="matrix" values="0 0 0 0 0 0 0 0 0 0 0 0 0 0 0 0 0 0 0.25 0"/>
<feBlend mode="normal" in2="BackgroundImageFix" result="effect1_dropShadow_3_2"/>
<feBlend mode="normal" in="SourceGraphic" in2="effect1_dropShadow_3_2" result="shape"/>
</filter>
<filter id="filter1_d_3_2" x="0" y="0" width="340.366" height="182.5" filterUnits="userSpaceOnUse" color-interpolation-filters="sRGB">
<feFlood flood-opacity="0" result="BackgroundImageFix"/>
<feColorMatrix in="SourceAlpha" type="matrix" values="0 0 0 0 0 0 0 0 0 0 0 0 0 0 0 0 0 0 127 0" result="hardAlpha"/>
<feOffset dy="4"/>
<feGaussianBlur stdDeviation="2"/>
<feComposite in2="hardAlpha" operator="out"/>
<feColorMatrix type="matrix" values="0 0 0 0 0 0 0 0 0 0 0 0 0 0 0 0 0 0 0.25 0"/>
<feBlend mode="normal" in2="BackgroundImageFix" result="effect1_dropShadow_3_2"/>
<feBlend mode="normal" in="SourceGraphic" in2="effect1_dropShadow_3_2" result="shape"/>
</filter>
<filter id="filter2_d_3_2" x="0" y="117.5" width="209.509" height="45.5" filterUnits="userSpaceOnUse" color-interpolation-filters="sRGB">
<feFlood flood-opacity="0" result="BackgroundImageFix"/>
<feColorMatrix in="SourceAlpha" type="matrix" values="0 0 0 0 0 0 0 0 0 0 0 0 0 0 0 0 0 0 127 0" result="hardAlpha"/>
<feOffset dy="4"/>
<feGaussianBlur stdDeviation="2"/>
<feComposite in2="hardAlpha" operator="out"/>
<feColorMatrix type="matrix" values="0 0 0 0 0 0 0 0 0 0 0 0 0 0 0 0 0 0 0.25 0"/>
<feBlend mode="normal" in2="BackgroundImageFix" result="effect1_dropShadow_3_2"/>
<feBlend mode="normal" in="SourceGraphic" in2="effect1_dropShadow_3_2" result="shape"/>
</filter>
</defs>
</svg>
