<svg width="1018" height="443" viewBox="0 0 1018 443" fill="none" xmlns="http://www.w3.org/2000/svg">
<path d="M1017 33L0 101L43.7847 405L915.499 408L1017 33Z" fill="#F90BF2"/>
<path opacity="0.6" fill-rule="evenodd" clip-rule="evenodd" d="M79.6087 33L1017 95L978.191 349L43.7848 442L79.6087 33ZM1001.08 108L92.5451 47L58.7114 427L965.254 336L1001.08 108Z" fill="#D01C82" stroke="#FF0202"/>
<g filter="url(#filter0_d_5_2)">
<g filter="url(#filter1_d_5_2)">
<path d="M907.582 18.0855L909.43 0L600.449 16L590 129L897.986 112L899.344 98.7032L813.402 103L821.363 21.5L907.582 18.0855Z" fill="#D01C82"/>
<path d="M821.363 21.5L813.402 103L899.344 98.7032L907.582 18.0855L821.363 21.5Z" fill="#FE0000"/>
<path d="M913.41 98L922.366 17.5L907.582 18.0855L899.344 98.7032L913.41 98Z" fill="#FF0000"/>
<path d="M654.184 174.5L787.529 155L680.555 141.19L654.184 174.5Z" fill="#FF0000"/>
</g>
<g filter="url(#filter2_d_5_2)">
<path d="M791.509 117.5L590 129.5L788.026 155L791.509 117.5Z" fill="#FF0000"/>
</g>
<path d="M913.908 98L899.479 99L898.981 103.5L913.908 98Z" fill="black"/>
<path d="M800.963 118L791.509 124V118.5L800.963 118Z" fill="black"/>
</g>
<g filter="url(#filter3_i_5_2)">
<path d="M161.568 260H150.386L175.511 190.182H187.682L212.807 260H201.625L181.886 202.864H181.341L161.568 260ZM163.443 232.659H199.716V241.523H163.443V232.659ZM264.31 260L240.855 228.705H233.423V260H222.889V190.182H233.423V219.67H236.866L263.253 190.182H276.105L248.185 221.443L277.162 260H264.31ZM348.864 250.693L347.943 276.5H337.443V260H332.534V250.693H348.864ZM286.92 260V190.182H297.011V250.864H330.693V190.182H340.818V260H286.92ZM360.42 190.182H370.852V241.455H371.5L407.023 190.182H416.773V260H406.239V208.795H405.591L370.136 260H360.42V190.182ZM481.639 260H471.071V199.216H457.844C454.389 199.216 451.582 199.739 449.423 200.784C447.264 201.807 445.685 203.284 444.685 205.216C443.685 207.148 443.185 209.432 443.185 212.068C443.185 214.682 443.685 216.92 444.685 218.784C445.685 220.648 447.253 222.068 449.389 223.045C451.526 224.023 454.31 224.511 457.741 224.511H475.639V233.58H456.753C451.366 233.58 446.878 232.682 443.287 230.886C439.719 229.091 437.037 226.58 435.241 223.352C433.469 220.102 432.582 216.341 432.582 212.068C432.582 207.773 433.469 203.989 435.241 200.716C437.014 197.42 439.685 194.841 443.253 192.977C446.844 191.114 451.332 190.182 456.719 190.182H481.639V260ZM447.173 228.5H458.832L441.889 260H429.923L447.173 228.5ZM509.048 190.182L508.162 239.92H498.719L497.832 190.182H509.048ZM503.457 260.648C501.571 260.648 499.957 259.989 498.616 258.67C497.276 257.33 496.616 255.716 496.639 253.83C496.616 251.966 497.276 250.375 498.616 249.057C499.957 247.716 501.571 247.045 503.457 247.045C505.298 247.045 506.889 247.716 508.23 249.057C509.571 250.375 510.253 251.966 510.276 253.83C510.253 255.08 509.923 256.227 509.287 257.273C508.673 258.295 507.855 259.114 506.832 259.727C505.81 260.341 504.685 260.648 503.457 260.648Z" fill="white"/>
</g>
<path d="M131.196 331.909H136.523L145.784 354.523H146.125L155.386 331.909H160.713V361H156.537V339.949H156.267L147.688 360.957H144.222L135.642 339.935H135.372V361H131.196V331.909ZM170.177 343.642H178.018C180.177 343.642 182.014 343.992 183.529 344.693C185.044 345.394 186.2 346.384 186.995 347.662C187.8 348.94 188.198 350.446 188.188 352.179C188.198 353.912 187.8 355.441 186.995 356.767C186.2 358.093 185.044 359.13 183.529 359.878C182.014 360.626 180.177 361 178.018 361H167.123V331.909H171.526V357.307H178.018C179.277 357.307 180.338 357.061 181.2 356.568C182.071 356.076 182.729 355.437 183.174 354.651C183.629 353.865 183.856 353.022 183.856 352.122C183.856 350.815 183.354 349.693 182.35 348.756C181.346 347.809 179.902 347.335 178.018 347.335H170.177V343.642ZM195.276 331.909V361H190.873V331.909H195.276ZM236.413 341.369H231.981C231.81 340.422 231.493 339.589 231.029 338.869C230.565 338.15 229.997 337.539 229.325 337.037C228.652 336.535 227.899 336.156 227.066 335.901C226.242 335.645 225.366 335.517 224.438 335.517C222.762 335.517 221.261 335.938 219.935 336.781C218.619 337.624 217.577 338.86 216.81 340.489C216.053 342.117 215.674 344.106 215.674 346.455C215.674 348.822 216.053 350.82 216.81 352.449C217.577 354.078 218.624 355.309 219.95 356.142C221.275 356.975 222.767 357.392 224.424 357.392C225.343 357.392 226.214 357.269 227.038 357.023C227.871 356.767 228.624 356.393 229.296 355.901C229.969 355.408 230.537 354.807 231.001 354.097C231.474 353.377 231.801 352.553 231.981 351.625L236.413 351.639C236.176 353.069 235.717 354.385 235.035 355.588C234.362 356.781 233.496 357.813 232.435 358.685C231.384 359.546 230.182 360.214 228.827 360.688C227.473 361.161 225.996 361.398 224.396 361.398C221.877 361.398 219.632 360.801 217.663 359.608C215.693 358.405 214.14 356.687 213.004 354.452C211.877 352.217 211.313 349.551 211.313 346.455C211.313 343.348 211.881 340.683 213.018 338.457C214.154 336.223 215.707 334.509 217.677 333.315C219.647 332.113 221.886 331.511 224.396 331.511C225.939 331.511 227.379 331.734 228.714 332.179C230.058 332.615 231.266 333.259 232.336 334.111C233.406 334.954 234.291 335.986 234.992 337.207C235.693 338.42 236.166 339.807 236.413 341.369ZM239.463 368.031V357.278H241.381C242.034 356.729 242.645 355.948 243.213 354.935C243.781 353.921 244.264 352.553 244.662 350.83C245.06 349.106 245.334 346.895 245.486 344.196L246.168 331.909H264.108V357.278H267.403V367.989H263.199V361H243.668V368.031H239.463ZM246.551 357.278H259.903V335.688H250.145L249.69 344.196C249.567 346.251 249.364 348.098 249.08 349.736C248.805 351.374 248.45 352.823 248.014 354.082C247.588 355.332 247.1 356.398 246.551 357.278ZM272.212 361V331.909H290.45V335.688H276.601V344.551H289.499V348.315H276.601V357.222H290.621V361H272.212ZM294.112 361V357.193L294.964 357.165C296.119 357.136 297.028 356.743 297.691 355.986C298.363 355.228 298.851 354.007 299.154 352.321C299.467 350.635 299.675 348.386 299.779 345.574L300.276 331.909H318.671V361H314.339V335.631H304.41L303.955 346.739C303.832 349.854 303.52 352.473 303.018 354.594C302.516 356.705 301.664 358.301 300.461 359.381C299.268 360.46 297.568 361 295.362 361H294.112ZM327.521 361H322.862L333.33 331.909H338.401L348.87 361H344.211L335.987 337.193H335.759L327.521 361ZM328.302 349.608H343.415V353.301H328.302V349.608ZM353.071 361V331.909H371.31V335.688H357.46V344.551H370.358V348.315H357.46V357.222H371.48V361H353.071ZM377.173 331.909H382.499L391.761 354.523H392.102L401.363 331.909H406.69V361H402.513V339.949H402.244L393.664 360.957H390.198L381.619 339.935H381.349V361H377.173V331.909ZM423.657 361V331.909H434.31C436.375 331.909 438.084 332.25 439.438 332.932C440.792 333.604 441.806 334.518 442.478 335.673C443.15 336.819 443.487 338.112 443.487 339.551C443.487 340.763 443.264 341.786 442.819 342.619C442.374 343.443 441.777 344.106 441.029 344.608C440.29 345.1 439.476 345.46 438.586 345.688V345.972C439.552 346.019 440.494 346.331 441.413 346.909C442.341 347.477 443.108 348.287 443.714 349.338C444.32 350.389 444.623 351.668 444.623 353.173C444.623 354.66 444.272 355.995 443.572 357.179C442.88 358.353 441.81 359.286 440.362 359.977C438.913 360.659 437.061 361 434.808 361H423.657ZM428.046 357.236H434.381C436.484 357.236 437.989 356.829 438.898 356.014C439.808 355.2 440.262 354.182 440.262 352.96C440.262 352.042 440.03 351.199 439.566 350.432C439.102 349.665 438.439 349.054 437.577 348.599C436.725 348.145 435.712 347.918 434.538 347.918H428.046V357.236ZM428.046 344.494H433.927C434.912 344.494 435.797 344.305 436.583 343.926C437.379 343.547 438.008 343.017 438.472 342.335C438.946 341.644 439.183 340.83 439.183 339.892C439.183 338.689 438.761 337.681 437.918 336.866C437.076 336.052 435.783 335.645 434.04 335.645H428.046V344.494ZM452.286 361H447.627L458.096 331.909H463.167L473.636 361H468.977L460.752 337.193H460.525L452.286 361ZM453.067 349.608H468.181V353.301H453.067V349.608ZM478.22 331.909H482.567V357.193H492.169V331.909H496.516V357.193H506.089V331.909H510.422V361H478.22V331.909ZM550.539 331.909V361H546.164V335.659H532.471V361H528.096V331.909H550.539ZM582.521 346.455C582.521 349.561 581.952 352.231 580.816 354.466C579.68 356.691 578.122 358.405 576.143 359.608C574.173 360.801 571.933 361.398 569.424 361.398C566.905 361.398 564.656 360.801 562.677 359.608C560.707 358.405 559.154 356.687 558.018 354.452C556.881 352.217 556.313 349.551 556.313 346.455C556.313 343.348 556.881 340.683 558.018 338.457C559.154 336.223 560.707 334.509 562.677 333.315C564.656 332.113 566.905 331.511 569.424 331.511C571.933 331.511 574.173 332.113 576.143 333.315C578.122 334.509 579.68 336.223 580.816 338.457C581.952 340.683 582.521 343.348 582.521 346.455ZM578.174 346.455C578.174 344.087 577.79 342.094 577.023 340.474C576.266 338.846 575.224 337.615 573.898 336.781C572.582 335.938 571.091 335.517 569.424 335.517C567.748 335.517 566.252 335.938 564.935 336.781C563.619 337.615 562.577 338.846 561.81 340.474C561.053 342.094 560.674 344.087 560.674 346.455C560.674 348.822 561.053 350.82 561.81 352.449C562.577 354.068 563.619 355.299 564.935 356.142C566.252 356.975 567.748 357.392 569.424 357.392C571.091 357.392 572.582 356.975 573.898 356.142C575.224 355.299 576.266 354.068 577.023 352.449C577.79 350.82 578.174 348.822 578.174 346.455ZM585.308 335.688V331.909H607.822V335.688H598.746V361H594.371V335.688H585.308ZM636.817 346.455C636.817 349.561 636.249 352.231 635.113 354.466C633.977 356.691 632.419 358.405 630.44 359.608C628.47 360.801 626.23 361.398 623.721 361.398C621.202 361.398 618.953 360.801 616.974 359.608C615.004 358.405 613.451 356.687 612.315 354.452C611.178 352.217 610.61 349.551 610.61 346.455C610.61 343.348 611.178 340.683 612.315 338.457C613.451 336.223 615.004 334.509 616.974 333.315C618.953 332.113 621.202 331.511 623.721 331.511C626.23 331.511 628.47 332.113 630.44 333.315C632.419 334.509 633.977 336.223 635.113 338.457C636.249 340.683 636.817 343.348 636.817 346.455ZM632.471 346.455C632.471 344.087 632.087 342.094 631.32 340.474C630.563 338.846 629.521 337.615 628.195 336.781C626.879 335.938 625.388 335.517 623.721 335.517C622.045 335.517 620.549 335.938 619.232 336.781C617.916 337.615 616.874 338.846 616.107 340.474C615.35 342.094 614.971 344.087 614.971 346.455C614.971 348.822 615.35 350.82 616.107 352.449C616.874 354.068 617.916 355.299 619.232 356.142C620.549 356.975 622.045 357.392 623.721 357.392C625.388 357.392 626.879 356.975 628.195 356.142C629.521 355.299 630.563 354.068 631.32 352.449C632.087 350.82 632.471 348.822 632.471 346.455ZM640.088 361V357.193L640.94 357.165C642.096 357.136 643.005 356.743 643.668 355.986C644.34 355.228 644.828 354.007 645.131 352.321C645.443 350.635 645.652 348.386 645.756 345.574L646.253 331.909H664.648V361H660.315V335.631H650.386L649.932 346.739C649.809 349.854 649.496 352.473 648.994 354.594C648.492 356.705 647.64 358.301 646.438 359.381C645.244 360.46 643.545 361 641.338 361H640.088ZM696.31 346.455C696.31 349.561 695.741 352.231 694.605 354.466C693.469 356.691 691.911 358.405 689.932 359.608C687.962 360.801 685.723 361.398 683.213 361.398C680.694 361.398 678.445 360.801 676.466 359.608C674.496 358.405 672.943 356.687 671.807 354.452C670.67 352.217 670.102 349.551 670.102 346.455C670.102 343.348 670.67 340.683 671.807 338.457C672.943 336.223 674.496 334.509 676.466 333.315C678.445 332.113 680.694 331.511 683.213 331.511C685.723 331.511 687.962 332.113 689.932 333.315C691.911 334.509 693.469 336.223 694.605 338.457C695.741 340.683 696.31 343.348 696.31 346.455ZM691.963 346.455C691.963 344.087 691.58 342.094 690.812 340.474C690.055 338.846 689.013 337.615 687.688 336.781C686.371 335.938 684.88 335.517 683.213 335.517C681.537 335.517 680.041 335.938 678.724 336.781C677.408 337.615 676.366 338.846 675.599 340.474C674.842 342.094 674.463 344.087 674.463 346.455C674.463 348.822 674.842 350.82 675.599 352.449C676.366 354.068 677.408 355.299 678.724 356.142C680.041 356.975 681.537 357.392 683.213 357.392C684.88 357.392 686.371 356.975 687.688 356.142C689.013 355.299 690.055 354.068 690.812 352.449C691.58 350.82 691.963 348.822 691.963 346.455ZM719.04 361L709.268 347.96H706.171V361H701.782V331.909H706.171V344.196H707.606L718.6 331.909H723.955L712.322 344.935L724.396 361H719.04ZM759.673 361H755.269V335.673H749.758C748.318 335.673 747.149 335.891 746.249 336.327C745.35 336.753 744.692 337.368 744.275 338.173C743.858 338.978 743.65 339.93 743.65 341.028C743.65 342.117 743.858 343.05 744.275 343.827C744.692 344.603 745.345 345.195 746.235 345.602C747.125 346.009 748.285 346.213 749.715 346.213H757.173V349.991H749.303C747.059 349.991 745.189 349.617 743.692 348.869C742.206 348.121 741.088 347.075 740.34 345.73C739.602 344.376 739.232 342.809 739.232 341.028C739.232 339.239 739.602 337.662 740.34 336.298C741.079 334.925 742.192 333.85 743.678 333.074C745.174 332.297 747.045 331.909 749.289 331.909H759.673V361ZM745.312 347.875H750.17L743.11 361H738.124L745.312 347.875ZM766.079 361V331.909H776.448C778.711 331.909 780.586 332.321 782.073 333.145C783.56 333.969 784.673 335.096 785.411 336.526C786.15 337.946 786.519 339.546 786.519 341.327C786.519 343.116 786.145 344.726 785.397 346.156C784.658 347.577 783.541 348.704 782.045 349.537C780.558 350.361 778.688 350.773 776.434 350.773H769.303V347.051H776.036C777.466 347.051 778.626 346.805 779.516 346.312C780.406 345.811 781.06 345.129 781.477 344.267C781.893 343.405 782.102 342.425 782.102 341.327C782.102 340.228 781.893 339.253 781.477 338.401C781.06 337.548 780.402 336.881 779.502 336.398C778.612 335.915 777.438 335.673 775.979 335.673H770.468V361H766.079ZM792.247 331.909H796.58V341.511C796.58 342.847 796.812 343.902 797.276 344.679C797.74 345.446 798.412 345.991 799.293 346.312C800.183 346.634 801.262 346.795 802.531 346.795C803.204 346.795 803.885 346.772 804.577 346.724C805.277 346.668 805.973 346.592 806.665 346.497C807.356 346.393 808.024 346.275 808.668 346.142C809.321 346 809.927 345.844 810.486 345.673V349.409C809.937 349.589 809.354 349.75 808.739 349.892C808.133 350.025 807.498 350.143 806.835 350.247C806.172 350.342 805.481 350.418 804.761 350.474C804.042 350.531 803.298 350.56 802.531 350.56C800.41 350.56 798.578 350.257 797.034 349.651C795.5 349.035 794.316 348.064 793.483 346.739C792.659 345.413 792.247 343.67 792.247 341.511V331.909ZM809.832 331.909H814.179V361H809.832V331.909ZM820.923 361V331.909H839.161V335.688H825.312V344.551H838.21V348.315H825.312V357.222H839.332V361H820.923ZM850.038 331.909L849.669 352.634H845.734L845.365 331.909H850.038ZM847.709 361.27C846.923 361.27 846.25 360.995 845.692 360.446C845.133 359.887 844.858 359.215 844.868 358.429C844.858 357.652 845.133 356.99 845.692 356.44C846.25 355.882 846.923 355.602 847.709 355.602C848.476 355.602 849.139 355.882 849.697 356.44C850.256 356.99 850.54 357.652 850.55 358.429C850.54 358.95 850.403 359.428 850.138 359.864C849.882 360.29 849.541 360.631 849.115 360.886C848.689 361.142 848.22 361.27 847.709 361.27Z" fill="white"/>
<path d="M641.441 37.8337L645.619 103.155L635.731 103.787L632.186 48.3535L631.803 48.378L616.827 59.584L616.224 50.1431L631.841 38.4477L641.441 37.8337ZM681.915 89.8164L679.157 46.6943L687.737 46.1456L690.495 89.2677L681.915 89.8164ZM663.555 73.633L663.008 65.0851L706.13 62.327L706.677 70.8749L663.555 73.633ZM743.713 31.2924L747.89 96.6134L738.003 97.2458L734.457 41.8122L734.075 41.8367L719.099 53.0427L718.495 43.6018L734.112 31.9064L743.713 31.2924ZM766.3 56.9733L765.765 48.6168L806.623 46.0036L807.157 54.3601L766.3 56.9733ZM767.556 76.6207L767.022 68.2642L807.879 65.6509L808.414 74.0074L767.556 76.6207ZM871.948 89.5755C867.567 89.8556 863.607 89.351 860.065 88.0616C856.545 86.7709 853.7 84.8498 851.53 82.2985C849.38 79.7245 848.117 76.6668 847.741 73.1254L857.756 72.4848C858.007 74.4116 858.763 76.0499 860.024 77.3998C861.304 78.727 862.926 79.7121 864.889 80.3552C866.851 80.9983 869.002 81.2451 871.341 81.0954C873.914 80.9309 876.161 80.3388 878.081 79.3193C880.023 78.2984 881.506 76.9545 882.531 75.2877C883.554 73.5996 883.999 71.703 883.864 69.5979C883.724 67.4078 883.038 65.5195 881.805 63.9331C880.592 62.324 878.881 61.1097 876.672 60.2902C874.484 59.4693 871.881 59.1555 868.861 59.3486L863.343 59.7015L862.829 51.664L868.347 51.311C870.771 51.156 872.87 50.5841 874.643 49.5953C876.437 48.6052 877.805 47.3007 878.748 45.6819C879.689 44.0417 880.092 42.1691 879.958 40.0641C879.829 38.044 879.259 36.319 878.25 34.8891C877.26 33.4365 875.909 32.338 874.196 31.5935C872.504 30.8477 870.542 30.5462 868.309 30.689C866.183 30.825 864.22 31.3456 862.42 32.2506C860.641 33.1331 859.223 34.334 858.167 35.8533C857.11 37.3514 856.603 39.1025 856.646 41.1067L847.109 41.7167C846.99 38.1802 847.833 35.0091 849.639 32.2034C851.467 29.3964 853.969 27.1333 857.147 25.4142C860.325 23.695 863.913 22.7076 867.911 22.4519C872.099 22.184 875.767 22.7715 878.912 24.2143C882.077 25.6344 884.576 27.6417 886.407 30.2361C888.259 32.8291 889.278 35.7316 889.462 38.9438C889.717 42.5997 888.895 45.7694 886.995 48.453C885.117 51.1351 882.505 53.0209 879.159 54.1103L879.191 54.6206C883.571 55.0024 887.041 56.5098 889.601 59.143C892.182 61.7748 893.593 65.1539 893.836 69.2804C894.087 72.8726 893.294 76.1579 891.456 79.1364C889.639 82.1135 887.051 84.5315 883.689 86.3905C880.327 88.2282 876.413 89.2899 871.948 89.5755Z" fill="white"/>
<path d="M579.696 230.922V223.395H581.038C581.496 223.01 581.923 222.464 582.321 221.754C582.719 221.045 583.057 220.087 583.335 218.881C583.614 217.674 583.806 216.126 583.912 214.237L584.389 205.636H596.947V223.395H599.254V230.892H596.311V226H582.639V230.922H579.696ZM584.658 223.395H594.004V208.281H587.173L586.855 214.237C586.769 215.676 586.626 216.968 586.428 218.115C586.235 219.262 585.987 220.276 585.682 221.158C585.384 222.033 585.042 222.778 584.658 223.395ZM604.34 226H601.079L608.407 205.636H611.957L619.285 226H616.023L610.266 209.335H610.107L604.34 226ZM604.887 218.026H615.467V220.611H604.887V218.026ZM622.225 226V205.636H629.484C631.068 205.636 632.381 205.925 633.422 206.501C634.462 207.078 635.241 207.867 635.758 208.868C636.275 209.862 636.534 210.982 636.534 212.229C636.534 213.482 636.272 214.608 635.748 215.609C635.231 216.604 634.449 217.393 633.402 217.976C632.361 218.553 631.052 218.841 629.474 218.841H624.483V216.236H629.196C630.197 216.236 631.009 216.063 631.632 215.719C632.255 215.367 632.712 214.89 633.004 214.287C633.296 213.684 633.441 212.998 633.441 212.229C633.441 211.46 633.296 210.777 633.004 210.18C632.712 209.584 632.252 209.116 631.622 208.778C630.999 208.44 630.177 208.271 629.156 208.271H625.298V226H622.225ZM640.136 205.636H643.178V220.591H643.367L653.728 205.636H656.572V226H653.499V211.065H653.31L642.969 226H640.136V205.636ZM661.054 205.636H664.782L671.265 221.466H671.504L677.987 205.636H681.716V226H678.792V211.264H678.603L672.598 225.97H670.172L664.166 211.254H663.977V226H661.054V205.636ZM692.588 208.281V205.636H708.348V208.281H701.995V226H698.932V208.281H692.588ZM711.831 226V205.636H719.089C720.674 205.636 721.986 205.925 723.027 206.501C724.068 207.078 724.847 207.867 725.364 208.868C725.881 209.862 726.139 210.982 726.139 212.229C726.139 213.482 725.877 214.608 725.354 215.609C724.837 216.604 724.054 217.393 723.007 217.976C721.966 218.553 720.657 218.841 719.08 218.841H714.088V216.236H718.801C719.802 216.236 720.614 216.063 721.237 215.719C721.86 215.367 722.318 214.89 722.609 214.287C722.901 213.684 723.047 212.998 723.047 212.229C723.047 211.46 722.901 210.777 722.609 210.18C722.318 209.584 721.857 209.116 721.227 208.778C720.604 208.44 719.782 208.271 718.761 208.271H714.903V226H711.831ZM729.741 226V205.636H742.508V208.281H732.814V214.486H741.842V217.121H732.814V223.355H742.627V226H729.741ZM745.608 208.281V205.636H761.368V208.281H755.014V226H751.952V208.281H745.608ZM764.85 205.636H767.893V220.591H768.082L778.443 205.636H781.287V226H778.214V211.065H778.025L767.684 226H764.85V205.636ZM785.768 205.636H788.811V220.591H789L799.361 205.636H802.205V226H799.132V211.065H798.943L788.602 226H785.768V205.636ZM795.94 200.466H798.386C798.386 201.586 797.989 202.498 797.193 203.2C796.404 203.896 795.337 204.244 793.991 204.244C792.652 204.244 791.589 203.896 790.8 203.2C790.011 202.498 789.616 201.586 789.616 200.466H792.053C792.053 200.963 792.198 201.404 792.49 201.788C792.782 202.166 793.282 202.355 793.991 202.355C794.688 202.355 795.185 202.166 795.483 201.788C795.788 201.411 795.94 200.97 795.94 200.466ZM830.016 205.636V226H826.953V208.261H817.368V226H814.305V205.636H830.016ZM852.403 215.818C852.403 217.992 852.005 219.862 851.21 221.426C850.414 222.984 849.324 224.184 847.938 225.026C846.559 225.861 844.992 226.278 843.235 226.278C841.472 226.278 839.897 225.861 838.512 225.026C837.133 224.184 836.046 222.981 835.251 221.416C834.455 219.852 834.058 217.986 834.058 215.818C834.058 213.644 834.455 211.778 835.251 210.22C836.046 208.656 837.133 207.456 838.512 206.621C839.897 205.779 841.472 205.358 843.235 205.358C844.992 205.358 846.559 205.779 847.938 206.621C849.324 207.456 850.414 208.656 851.21 210.22C852.005 211.778 852.403 213.644 852.403 215.818ZM849.36 215.818C849.36 214.161 849.092 212.766 848.555 211.632C848.024 210.492 847.295 209.63 846.367 209.047C845.446 208.457 844.402 208.162 843.235 208.162C842.062 208.162 841.014 208.457 840.093 209.047C839.172 209.63 838.442 210.492 837.906 211.632C837.375 212.766 837.11 214.161 837.11 215.818C837.11 217.475 837.375 218.874 837.906 220.014C838.442 221.148 839.172 222.009 840.093 222.599C841.014 223.183 842.062 223.474 843.235 223.474C844.402 223.474 845.446 223.183 846.367 222.599C847.295 222.009 848.024 221.148 848.555 220.014C849.092 218.874 849.36 217.475 849.36 215.818ZM854.354 208.281V205.636H870.114V208.281H863.76V226H860.698V208.281H854.354ZM890.411 215.818C890.411 217.992 890.013 219.862 889.217 221.426C888.422 222.984 887.331 224.184 885.946 225.026C884.567 225.861 883 226.278 881.243 226.278C879.48 226.278 877.905 225.861 876.52 225.026C875.141 224.184 874.054 222.981 873.259 221.416C872.463 219.852 872.065 217.986 872.065 215.818C872.065 213.644 872.463 211.778 873.259 210.22C874.054 208.656 875.141 207.456 876.52 206.621C877.905 205.779 879.48 205.358 881.243 205.358C883 205.358 884.567 205.779 885.946 206.621C887.331 207.456 888.422 208.656 889.217 210.22C890.013 211.778 890.411 213.644 890.411 215.818ZM887.368 215.818C887.368 214.161 887.099 212.766 886.562 211.632C886.032 210.492 885.303 209.63 884.375 209.047C883.454 208.457 882.41 208.162 881.243 208.162C880.07 208.162 879.022 208.457 878.101 209.047C877.179 209.63 876.45 210.492 875.913 211.632C875.383 212.766 875.118 214.161 875.118 215.818C875.118 217.475 875.383 218.874 875.913 220.014C876.45 221.148 877.179 222.009 878.101 222.599C879.022 223.183 880.07 223.474 881.243 223.474C882.41 223.474 883.454 223.183 884.375 222.599C885.303 222.009 886.032 221.148 886.562 220.014C887.099 218.874 887.368 217.475 887.368 215.818ZM892.7 226V223.335L893.297 223.315C894.105 223.295 894.742 223.02 895.206 222.49C895.676 221.96 896.018 221.105 896.23 219.925C896.449 218.745 896.594 217.17 896.667 215.202L897.015 205.636H909.892V226H906.859V208.241H899.909L899.591 216.017C899.504 218.198 899.286 220.031 898.934 221.516C898.583 222.994 897.986 224.111 897.145 224.866C896.309 225.622 895.119 226 893.575 226H892.7ZM932.055 215.818C932.055 217.992 931.657 219.862 930.862 221.426C930.066 222.984 928.976 224.184 927.591 225.026C926.212 225.861 924.644 226.278 922.887 226.278C921.124 226.278 919.55 225.861 918.164 225.026C916.786 224.184 915.699 222.981 914.903 221.416C914.108 219.852 913.71 217.986 913.71 215.818C913.71 213.644 914.108 211.778 914.903 210.22C915.699 208.656 916.786 207.456 918.164 206.621C919.55 205.779 921.124 205.358 922.887 205.358C924.644 205.358 926.212 205.779 927.591 206.621C928.976 207.456 930.066 208.656 930.862 210.22C931.657 211.778 932.055 213.644 932.055 215.818ZM929.012 215.818C929.012 214.161 928.744 212.766 928.207 211.632C927.677 210.492 926.948 209.63 926.02 209.047C925.098 208.457 924.054 208.162 922.887 208.162C921.714 208.162 920.667 208.457 919.745 209.047C918.824 209.63 918.095 210.492 917.558 211.632C917.028 212.766 916.762 214.161 916.762 215.818C916.762 217.475 917.028 218.874 917.558 220.014C918.095 221.148 918.824 222.009 919.745 222.599C920.667 223.183 921.714 223.474 922.887 223.474C924.054 223.474 925.098 223.183 926.02 222.599C926.948 222.009 927.677 221.148 928.207 220.014C928.744 218.874 929.012 217.475 929.012 215.818ZM947.967 226L941.126 216.872H938.958V226H935.886V205.636H938.958V214.237H939.962L947.658 205.636H951.407L943.263 214.754L951.715 226H947.967ZM670.159 260V239.636H677.616C679.062 239.636 680.258 239.875 681.206 240.352C682.154 240.823 682.863 241.463 683.334 242.271C683.804 243.073 684.04 243.978 684.04 244.986C684.04 245.834 683.884 246.55 683.572 247.134C683.261 247.71 682.843 248.174 682.32 248.526C681.803 248.87 681.232 249.122 680.609 249.281V249.48C681.286 249.513 681.945 249.732 682.588 250.136C683.238 250.534 683.775 251.101 684.199 251.837C684.623 252.572 684.835 253.467 684.835 254.521C684.835 255.562 684.59 256.497 684.099 257.325C683.616 258.147 682.866 258.8 681.852 259.284C680.838 259.761 679.542 260 677.964 260H670.159ZM673.232 257.365H677.666C679.138 257.365 680.192 257.08 680.828 256.51C681.464 255.94 681.783 255.227 681.783 254.372C681.783 253.729 681.62 253.139 681.295 252.602C680.971 252.065 680.507 251.638 679.903 251.32C679.307 251.001 678.598 250.842 677.776 250.842H673.232V257.365ZM673.232 248.446H677.348C678.037 248.446 678.657 248.313 679.207 248.048C679.764 247.783 680.205 247.412 680.53 246.935C680.861 246.451 681.027 245.881 681.027 245.224C681.027 244.383 680.732 243.677 680.142 243.107C679.552 242.536 678.647 242.251 677.428 242.251H673.232V248.446ZM711.809 239.636V260H708.746V242.261H699.161V260H696.098V239.636H711.809ZM734.196 249.818C734.196 251.992 733.798 253.862 733.002 255.426C732.207 256.984 731.117 258.184 729.731 259.026C728.352 259.861 726.785 260.278 725.028 260.278C723.265 260.278 721.69 259.861 720.305 259.026C718.926 258.184 717.839 256.981 717.044 255.416C716.248 253.852 715.85 251.986 715.85 249.818C715.85 247.644 716.248 245.778 717.044 244.22C717.839 242.656 718.926 241.456 720.305 240.621C721.69 239.779 723.265 239.358 725.028 239.358C726.785 239.358 728.352 239.779 729.731 240.621C731.117 241.456 732.207 242.656 733.002 244.22C733.798 245.778 734.196 247.644 734.196 249.818ZM731.153 249.818C731.153 248.161 730.885 246.766 730.348 245.632C729.817 244.492 729.088 243.63 728.16 243.047C727.239 242.457 726.195 242.162 725.028 242.162C723.855 242.162 722.807 242.457 721.886 243.047C720.965 243.63 720.235 244.492 719.699 245.632C719.168 246.766 718.903 248.161 718.903 249.818C718.903 251.475 719.168 252.874 719.699 254.014C720.235 255.148 720.965 256.009 721.886 256.599C722.807 257.183 723.855 257.474 725.028 257.474C726.195 257.474 727.239 257.183 728.16 256.599C729.088 256.009 729.817 255.148 730.348 254.014C730.885 252.874 731.153 251.475 731.153 249.818ZM736.485 264.922V257.395H737.827C738.285 257.01 738.712 256.464 739.11 255.754C739.508 255.045 739.846 254.087 740.124 252.881C740.403 251.674 740.595 250.126 740.701 248.237L741.178 239.636H753.737V257.395H756.043V264.892H753.1V260H739.428V264.922H736.485ZM741.447 257.395H750.793V242.281H743.962L743.644 248.237C743.558 249.676 743.415 250.968 743.217 252.115C743.024 253.262 742.776 254.276 742.471 255.158C742.173 256.033 741.831 256.778 741.447 257.395ZM761.129 260H757.868L765.196 239.636H768.746L776.074 260H772.812L767.055 243.335H766.896L761.129 260ZM761.676 252.026H772.256V254.611H761.676V252.026ZM779.015 260V239.636H786.273C787.857 239.636 789.17 239.925 790.211 240.501C791.251 241.078 792.03 241.867 792.547 242.868C793.064 243.862 793.323 244.982 793.323 246.229C793.323 247.482 793.061 248.608 792.537 249.609C792.02 250.604 791.238 251.393 790.191 251.976C789.15 252.553 787.841 252.841 786.263 252.841H781.272V250.236H785.985C786.986 250.236 787.798 250.063 788.421 249.719C789.044 249.367 789.501 248.89 789.793 248.287C790.085 247.684 790.23 246.998 790.23 246.229C790.23 245.46 790.085 244.777 789.793 244.18C789.501 243.584 789.041 243.116 788.411 242.778C787.788 242.44 786.966 242.271 785.945 242.271H782.087V260H779.015ZM814.614 249.818C814.614 251.992 814.216 253.862 813.42 255.426C812.625 256.984 811.535 258.184 810.149 259.026C808.77 259.861 807.203 260.278 805.446 260.278C803.683 260.278 802.108 259.861 800.723 259.026C799.344 258.184 798.257 256.981 797.462 255.416C796.666 253.852 796.268 251.986 796.268 249.818C796.268 247.644 796.666 245.778 797.462 244.22C798.257 242.656 799.344 241.456 800.723 240.621C802.108 239.779 803.683 239.358 805.446 239.358C807.203 239.358 808.77 239.779 810.149 240.621C811.535 241.456 812.625 242.656 813.42 244.22C814.216 245.778 814.614 247.644 814.614 249.818ZM811.571 249.818C811.571 248.161 811.303 246.766 810.766 245.632C810.235 244.492 809.506 243.63 808.578 243.047C807.657 242.457 806.613 242.162 805.446 242.162C804.273 242.162 803.225 242.457 802.304 243.047C801.383 243.63 800.653 244.492 800.116 245.632C799.586 246.766 799.321 248.161 799.321 249.818C799.321 251.475 799.586 252.874 800.116 254.014C800.653 255.148 801.383 256.009 802.304 256.599C803.225 257.183 804.273 257.474 805.446 257.474C806.613 257.474 807.657 257.183 808.578 256.599C809.506 256.009 810.235 255.148 810.766 254.014C811.303 252.874 811.571 251.475 811.571 249.818ZM830.525 260L823.684 250.872H821.517V260H818.444V239.636H821.517V248.237H822.521L830.217 239.636H833.966L825.822 248.754L834.274 260H830.525ZM840.63 239.636L840.371 254.143H837.617L837.359 239.636H840.63ZM838.999 260.189C838.449 260.189 837.978 259.997 837.587 259.612C837.196 259.221 837.004 258.75 837.011 258.2C837.004 257.657 837.196 257.193 837.587 256.808C837.978 256.417 838.449 256.222 838.999 256.222C839.536 256.222 840 256.417 840.391 256.808C840.782 257.193 840.981 257.657 840.988 258.2C840.981 258.565 840.885 258.9 840.7 259.205C840.521 259.503 840.282 259.741 839.984 259.92C839.685 260.099 839.357 260.189 838.999 260.189Z" fill="black"/>
<defs>
<filter id="filter0_d_5_2" x="586" y="0" width="340.366" height="182.5" filterUnits="userSpaceOnUse" color-interpolation-filters="sRGB">
<feFlood flood-opacity="0" result="BackgroundImageFix"/>
<feColorMatrix in="SourceAlpha" type="matrix" values="0 0 0 0 0 0 0 0 0 0 0 0 0 0 0 0 0 0 127 0" result="hardAlpha"/>
<feOffset dy="4"/>
<feGaussianBlur stdDeviation="2"/>
<feComposite in2="hardAlpha" operator="out"/>
<feColorMatrix type="matrix" values="0 0 0 0 0 0 0 0 0 0 0 0 0 0 0 0 0 0 0.25 0"/>
<feBlend mode="normal" in2="BackgroundImageFix" result="effect1_dropShadow_5_2"/>
<feBlend mode="normal" in="SourceGraphic" in2="effect1_dropShadow_5_2" result="shape"/>
</filter>
<filter id="filter1_d_5_2" x="586" y="0" width="340.366" height="182.5" filterUnits="userSpaceOnUse" color-interpolation-filters="sRGB">
<feFlood flood-opacity="0" result="BackgroundImageFix"/>
<feColorMatrix in="SourceAlpha" type="matrix" values="0 0 0 0 0 0 0 0 0 0 0 0 0 0 0 0 0 0 127 0" result="hardAlpha"/>
<feOffset dy="4"/>
<feGaussianBlur stdDeviation="2"/>
<feComposite in2="hardAlpha" operator="out"/>
<feColorMatrix type="matrix" values="0 0 0 0 0 0 0 0 0 0 0 0 0 0 0 0 0 0 0.25 0"/>
<feBlend mode="normal" in2="BackgroundImageFix" result="effect1_dropShadow_5_2"/>
<feBlend mode="normal" in="SourceGraphic" in2="effect1_dropShadow_5_2" result="shape"/>
</filter>
<filter id="filter2_d_5_2" x="586" y="117.5" width="209.509" height="45.5" filterUnits="userSpaceOnUse" color-interpolation-filters="sRGB">
<feFlood flood-opacity="0" result="BackgroundImageFix"/>
<feColorMatrix in="SourceAlpha" type="matrix" values="0 0 0 0 0 0 0 0 0 0 0 0 0 0 0 0 0 0 127 0" result="hardAlpha"/>
<feOffset dy="4"/>
<feGaussianBlur stdDeviation="2"/>
<feComposite in2="hardAlpha" operator="out"/>
<feColorMatrix type="matrix" values="0 0 0 0 0 0 0 0 0 0 0 0 0 0 0 0 0 0 0.25 0"/>
<feBlend mode="normal" in2="BackgroundImageFix" result="effect1_dropShadow_5_2"/>
<feBlend mode="normal" in="SourceGraphic" in2="effect1_dropShadow_5_2" result="shape"/>
</filter>
<filter id="filter3_i_5_2" x="150.386" y="190.182" width="359.889" height="90.3182" filterUnits="userSpaceOnUse" color-interpolation-filters="sRGB">
<feFlood flood-opacity="0" result="BackgroundImageFix"/>
<feBlend mode="normal" in="SourceGraphic" in2="BackgroundImageFix" result="shape"/>
<feColorMatrix in="SourceAlpha" type="matrix" values="0 0 0 0 0 0 0 0 0 0 0 0 0 0 0 0 0 0 127 0" result="hardAlpha"/>
<feOffset dy="4"/>
<feGaussianBlur stdDeviation="2"/>
<feComposite in2="hardAlpha" operator="arithmetic" k2="-1" k3="1"/>
<feColorMatrix type="matrix" values="0 0 0 0 0 0 0 0 0 0 0 0 0 0 0 0 0 0 0.25 0"/>
<feBlend mode="normal" in2="shape" result="effect1_innerShadow_5_2"/>
</filter>
</defs>
</svg>
