<?xml version="1.0" encoding="UTF-8"?> <svg xmlns="http://www.w3.org/2000/svg" width="30" height="30" viewBox="0 0 30 30" fill="none"><path d="M6.21094 21.1523C4.75705 21.1523 3.57422 22.3352 3.57422 23.7891C3.57422 25.2429 4.75705 26.4258 6.21094 26.4258C7.66482 26.4258 8.84766 25.2429 8.84766 23.7891C8.84766 22.3352 7.66482 21.1523 6.21094 21.1523ZM6.21094 24.668C5.72631 24.668 5.33203 24.2737 5.33203 23.7891C5.33203 23.3044 5.72631 22.9102 6.21094 22.9102C6.69557 22.9102 7.08984 23.3044 7.08984 23.7891C7.08984 24.2737 6.69557 24.668 6.21094 24.668Z" fill="#ADADAD"></path><path d="M25.6055 17.6953H21.0054L29.7425 8.95816C30.0858 8.61492 30.0858 8.05846 29.7425 7.71522L24.7707 2.7433C23.0573 1.02996 20.2693 1.0299 18.5559 2.7433C18.0231 3.27609 13.6734 7.62574 12.3046 8.99455V0.878906C12.3046 0.393516 11.9111 0 11.4257 0H4.39453C1.97139 0 0 1.97139 0 4.39453V25.6055C0 28.0286 1.97139 30 4.39453 30H29.1211C29.6065 30 30 29.6065 30 29.1211V22.0898C30 19.6667 28.0286 17.6953 25.6055 17.6953ZM14.7806 17.6953L10.4353 13.3499L15.4071 8.37809L21.6219 14.5929L18.5195 17.6953H14.7806ZM1.75781 10.6641H10.5469V10.7524L3.60398 17.6953H1.75781V10.6641ZM9.1923 14.5929L12.2947 17.6953H6.08988L9.1923 14.5929ZM19.7988 3.98631C20.8269 2.95822 22.4997 2.95822 23.5278 3.98631L27.8781 8.33672L22.8649 13.35L16.65 7.13514L19.7988 3.98631ZM4.39453 1.75781H10.5469V8.90625H1.75781V4.39453C1.75781 2.94064 2.94064 1.75781 4.39453 1.75781ZM28.2422 28.2422H4.39453C2.94064 28.2422 1.75781 27.0594 1.75781 25.6055V19.4531H25.6055C27.0594 19.4531 28.2422 20.636 28.2422 22.0898V28.2422Z" fill="#ADADAD"></path></svg> 