<?xml version="1.0" encoding="UTF-8"?> <svg xmlns="http://www.w3.org/2000/svg" width="30" height="30" viewBox="0 0 30 30" fill="none"><path d="M14.8 0L0 14.8V19.5166L19.5166 0H14.8Z" fill="#ADADAD"></path><path d="M3.33336 0C1.5 0 0 1.5 0 3.33336V6.675L6.675 0H3.33336Z" fill="#ADADAD"></path><path d="M10.4834 30H15.2L30.0001 15.2V10.4834L10.4834 30Z" fill="#ADADAD"></path><path d="M27.5166 0.125L0.125 27.5166C0.275 28.0916 0.566641 28.6083 0.975 29.0166L0.983359 29.025C1.39172 29.4334 1.90836 29.725 2.48336 29.875L29.875 2.48336C29.5666 1.33336 28.6666 0.433359 27.5166 0.125Z" fill="#ADADAD"></path><path d="M26.6666 30.0002C27.5832 30.0002 28.4166 29.6252 29.0166 29.0252C29.625 28.4168 30 27.5836 30 26.6668V23.3252L23.325 30.0002H26.6666Z" fill="#ADADAD"></path></svg> 