<svg width="16" height="16" viewBox="0 0 16 16" fill="none" xmlns="http://www.w3.org/2000/svg">
<path d="M11.1468 2.32225C11.1468 2.19908 11.1958 2.08095 11.2829 1.99385C11.37 1.90674 11.4881 1.85781 11.6113 1.8578H13.0046V0.464452C13.0046 0.341272 13.0536 0.223137 13.1407 0.136035C13.2278 0.0489338 13.3459 8.34094e-07 13.4691 8.34094e-07C13.5923 8.34094e-07 13.7104 0.0489338 13.7975 0.136035C13.8846 0.223137 13.9335 0.341272 13.9335 0.464452V1.8578H15.3269C15.4501 1.8578 15.5682 1.90674 15.6553 1.99384C15.7424 2.08094 15.7913 2.19907 15.7913 2.32225C15.7913 2.44544 15.7424 2.56357 15.6553 2.65067C15.5682 2.73777 15.4501 2.78671 15.3269 2.78671H13.9335V4.18006C13.9335 4.30324 13.8846 4.42137 13.7975 4.50847C13.7104 4.59558 13.5923 4.64451 13.4691 4.64451C13.3459 4.64451 13.2278 4.59558 13.1407 4.50847C13.0536 4.42137 13.0046 4.30324 13.0046 4.18006V2.78671H11.6113C11.4881 2.7867 11.37 2.73777 11.2829 2.65066C11.1958 2.56356 11.1468 2.44543 11.1468 2.32225V2.32225ZM15.6937 6.65082C15.7587 7.06258 15.7914 7.4788 15.7913 7.89566C15.7918 8.99237 15.5632 10.0771 15.1202 11.0803C14.6772 12.0836 14.0296 12.9833 13.2189 13.7218C13.1924 13.7527 13.162 13.7799 13.1285 13.8028C11.6864 15.0837 9.82466 15.7913 7.89586 15.7913C5.96706 15.7914 4.10523 15.0839 2.66315 13.8031C2.62931 13.78 2.59867 13.7526 2.57206 13.7214C1.3962 12.6483 0.572354 11.2447 0.208692 9.69492C-0.154971 8.14511 -0.0414462 6.52155 0.53436 5.03742C1.11017 3.5533 2.12133 2.278 3.43508 1.37899C4.74884 0.479971 6.30376 -0.000730874 7.89566 8.34094e-07C8.31253 -2.13732e-05 8.72875 0.0326346 9.14051 0.0976687C9.20075 0.107214 9.25852 0.12853 9.31052 0.1604C9.36252 0.192271 9.40773 0.234072 9.44358 0.283416C9.47942 0.33276 9.5052 0.388681 9.51943 0.447986C9.53366 0.507292 9.53608 0.56882 9.52653 0.629058C9.51699 0.689296 9.49567 0.747064 9.4638 0.799064C9.43193 0.851064 9.39013 0.896278 9.34079 0.932123C9.29144 0.967969 9.23552 0.993744 9.17622 1.00798C9.11691 1.02221 9.05538 1.02462 8.99514 1.01508C8.63146 0.957706 8.26384 0.928892 7.89566 0.928902C6.5358 0.928166 5.20548 1.32564 4.06891 2.07227C2.93234 2.8189 2.03927 3.88199 1.49994 5.13033C0.960611 6.37868 0.798624 7.75763 1.03397 9.09697C1.26933 10.4363 1.89171 11.6774 2.82431 12.6671C3.5543 11.5325 4.64511 10.6767 5.92092 10.2377C5.28494 9.81383 4.80221 9.1966 4.54409 8.47723C4.28598 7.75786 4.26616 6.97453 4.48759 6.24303C4.70901 5.51153 5.15992 4.87069 5.77365 4.41523C6.38739 3.95976 7.13139 3.71386 7.89566 3.71386C8.65994 3.71386 9.40394 3.95976 10.0177 4.41523C10.6314 4.87069 11.0823 5.51153 11.3037 6.24303C11.5252 6.97453 11.5054 7.75786 11.2472 8.47723C10.9891 9.1966 10.5064 9.81383 9.87041 10.2377C11.1462 10.6767 12.237 11.5325 12.967 12.6671C14.1854 11.3774 14.8637 9.66995 14.8624 7.89566C14.8625 7.52749 14.8336 7.15989 14.7762 6.79622C14.7667 6.73598 14.7691 6.67445 14.7833 6.61513C14.7975 6.55582 14.8233 6.4999 14.8592 6.45055C14.895 6.4012 14.9402 6.35939 14.9922 6.32752C15.0442 6.29564 15.102 6.27432 15.1623 6.26478C15.2839 6.24549 15.4083 6.27533 15.5079 6.34773C15.5573 6.38358 15.5991 6.42879 15.631 6.4808C15.6628 6.5328 15.6842 6.59057 15.6937 6.65082V6.65082ZM7.89566 9.90829C8.4162 9.90829 8.92505 9.75393 9.35786 9.46473C9.79067 9.17554 10.128 8.76449 10.3272 8.28358C10.5264 7.80266 10.5785 7.27348 10.477 6.76294C10.3754 6.2524 10.1248 5.78345 9.75669 5.41537C9.38861 5.04729 8.91966 4.79663 8.40912 4.69508C7.89858 4.59353 7.3694 4.64565 6.88848 4.84485C6.40757 5.04405 5.99652 5.38139 5.70733 5.8142C5.41813 6.24701 5.26378 6.75586 5.26378 7.2764C5.26457 7.97417 5.54211 8.64315 6.03551 9.13655C6.52892 9.62995 7.19789 9.90749 7.89566 9.90829V9.90829ZM7.89566 14.8624C9.48999 14.8639 11.0361 14.3159 12.2736 13.3107C11.8189 12.556 11.1769 11.9317 10.4098 11.4983C9.64278 11.0649 8.7767 10.8372 7.89567 10.8372C7.01463 10.8372 6.14856 11.0649 5.38148 11.4983C4.61441 11.9317 3.97238 12.556 3.5177 13.3106C4.7552 14.3159 6.30133 14.8639 7.89566 14.8624V14.8624Z" fill="#CCCCCC"/>
</svg>
