<svg width="23" height="23" viewBox="0 0 23 23" fill="none" xmlns="http://www.w3.org/2000/svg">
<path d="M15.4531 7.00781V5.92969C15.4531 5.83086 15.3723 5.75 15.2734 5.75H6.64844C6.54961 5.75 6.46875 5.83086 6.46875 5.92969V7.00781C6.46875 7.10664 6.54961 7.1875 6.64844 7.1875H15.2734C15.3723 7.1875 15.4531 7.10664 15.4531 7.00781ZM6.64844 8.98438C6.54961 8.98438 6.46875 9.06523 6.46875 9.16406V10.2422C6.46875 10.341 6.54961 10.4219 6.64844 10.4219H10.7812C10.8801 10.4219 10.9609 10.341 10.9609 10.2422V9.16406C10.9609 9.06523 10.8801 8.98438 10.7812 8.98438H6.64844ZM15.0938 11.5898C12.4142 11.5898 10.2422 13.7618 10.2422 16.4414C10.2422 19.121 12.4142 21.293 15.0938 21.293C17.7733 21.293 19.9453 19.121 19.9453 16.4414C19.9453 13.7618 17.7733 11.5898 15.0938 11.5898ZM17.5083 18.856C16.8637 19.5006 16.0057 19.8555 15.0938 19.8555C14.1818 19.8555 13.3238 19.5006 12.6792 18.856C12.0346 18.2113 11.6797 17.3533 11.6797 16.4414C11.6797 15.5295 12.0346 14.6715 12.6792 14.0269C13.3238 13.3822 14.1818 13.0273 15.0938 13.0273C16.0057 13.0273 16.8637 13.3822 17.5083 14.0269C18.1529 14.6715 18.5078 15.5295 18.5078 16.4414C18.5078 17.3533 18.1529 18.2113 17.5083 18.856ZM14.375 18.2383C14.375 18.4289 14.4507 18.6117 14.5855 18.7465C14.7203 18.8813 14.9031 18.957 15.0938 18.957C15.2844 18.957 15.4672 18.8813 15.602 18.7465C15.7368 18.6117 15.8125 18.4289 15.8125 18.2383C15.8125 18.0477 15.7368 17.8648 15.602 17.73C15.4672 17.5953 15.2844 17.5195 15.0938 17.5195C14.9031 17.5195 14.7203 17.5953 14.5855 17.73C14.4507 17.8648 14.375 18.0477 14.375 18.2383ZM14.6445 16.8008H15.543C15.6418 16.8008 15.7227 16.7199 15.7227 16.6211V14.1055C15.7227 14.0066 15.6418 13.9258 15.543 13.9258H14.6445C14.5457 13.9258 14.4648 14.0066 14.4648 14.1055V16.6211C14.4648 16.7199 14.5457 16.8008 14.6445 16.8008ZM9.88281 19.1367H4.67188V3.32422H17.25V11.0508C17.25 11.1496 17.3309 11.2305 17.4297 11.2305H18.6875C18.7863 11.2305 18.8672 11.1496 18.8672 11.0508V2.42578C18.8672 2.02822 18.546 1.70703 18.1484 1.70703H3.77344C3.37588 1.70703 3.05469 2.02822 3.05469 2.42578V20.0352C3.05469 20.4327 3.37588 20.7539 3.77344 20.7539H9.88281C9.98164 20.7539 10.0625 20.673 10.0625 20.5742V19.3164C10.0625 19.2176 9.98164 19.1367 9.88281 19.1367Z" fill="#CCCCCC"/>
</svg>
