<svg width="23" height="23" viewBox="0 0 23 23" fill="none" xmlns="http://www.w3.org/2000/svg">
<path d="M21.6361 1.29388H6.20089C5.6254 1.29388 5.15887 1.80873 5.15887 2.44383V21.4942C5.15887 22.1293 5.6254 22.6442 6.20089 22.6442H21.6361C22.2116 22.6442 22.6781 22.1293 22.6781 21.4942V2.44383C22.6781 1.80873 22.2116 1.29388 21.6361 1.29388Z" fill="white"/>
<path d="M22.6775 3.60683V20.3312C22.6775 21.6087 21.8279 22.6442 20.78 22.6442H7.05693C6.05468 22.6442 5.23353 21.6953 5.16528 20.4973H18.4321C19.4805 20.4973 20.3296 19.4618 20.3296 18.1843V1.45994C20.3296 1.4036 20.3296 1.34904 20.3237 1.29388H20.7805C21.8284 1.29388 22.6775 2.32937 22.6775 3.60683Z" fill="#E7E7E7"/>
<path d="M21.6361 23H6.20141C5.83948 22.9999 5.49239 22.8412 5.23637 22.5589C4.98034 22.2765 4.8363 21.8936 4.83588 21.4942V2.44384C4.8363 2.04462 4.9802 1.66189 5.23599 1.3796C5.49178 1.09732 5.83859 0.93852 6.20034 0.938049H21.6361C21.9977 0.938677 22.3444 1.09754 22.6001 1.37981C22.8558 1.66208 22.9996 2.04472 23 2.44384V21.4942C22.9996 21.8933 22.8558 22.276 22.6001 22.5582C22.3444 22.8405 21.9977 22.9994 21.6361 23ZM6.20141 1.64973C6.01047 1.64973 5.82733 1.73335 5.69221 1.88224C5.55709 2.03113 5.48104 2.23312 5.48076 2.44384V21.4942C5.48104 21.7047 5.55694 21.9065 5.69183 22.0554C5.82672 22.2043 6.00958 22.288 6.20034 22.2883H21.6361C21.8267 22.2879 22.0095 22.204 22.1442 22.0552C22.279 21.9063 22.3548 21.7046 22.3551 21.4942V2.44384C22.3548 2.23332 22.2789 2.03152 22.144 1.88266C22.0092 1.7338 21.8263 1.65004 21.6355 1.64973H6.20141Z" fill="#426572"/>
<path d="M0.900451 0.532995C1.19621 0.310167 1.56006 0.226099 1.91197 0.299279C2.26389 0.372459 2.57506 0.596896 2.77705 0.923231L10.5919 13.5501C11.4946 15.0088 12.1924 16.6096 12.662 18.2982L12.7539 18.6291C12.787 18.7546 12.7831 18.8885 12.7429 19.0114C12.7027 19.1343 12.6282 19.24 12.53 19.3131C12.4319 19.3863 12.3153 19.4233 12.197 19.4187C12.0786 19.414 11.9647 19.3681 11.8715 19.2874L11.663 19.1095C10.3774 17.999 9.25453 16.6766 8.33377 15.1888L0.547379 2.60338C0.345582 2.2771 0.269417 1.87576 0.335622 1.48754C0.401826 1.09932 0.604983 0.755994 0.900451 0.532995V0.532995Z" fill="#FF3F40"/>
<path d="M12.7211 18.8237C12.7246 18.9411 12.6976 19.0572 12.6434 19.1583C12.5891 19.2594 12.5099 19.3414 12.4149 19.3945C12.3199 19.4476 12.2132 19.4697 12.1072 19.4582C12.0012 19.4467 11.9004 19.4021 11.8167 19.3295L11.6082 19.1516C10.3216 18.0413 9.19781 16.7189 8.27628 15.2309L0.491501 2.64548C0.368669 2.44674 0.291236 2.21815 0.265812 1.97923C0.240389 1.74031 0.267729 1.49814 0.3455 1.27341C0.423271 1.04868 0.549163 0.848047 0.71243 0.688649C0.875696 0.529251 1.07149 0.415817 1.28309 0.358032C1.12451 0.606221 1.03844 0.901967 1.03642 1.20565C1.03441 1.50933 1.11654 1.80643 1.27181 2.05716L9.05873 14.6396C9.98027 16.1276 11.1041 17.4501 12.3906 18.5603L12.5991 18.7383C12.6364 18.7722 12.6774 18.8008 12.7211 18.8237V18.8237Z" fill="#C6262F"/>
<path d="M5.10451 6.89203C5.19779 6.82032 4.87377 6.12905 4.38079 5.34803C3.88781 4.567 3.41256 3.99198 3.31928 4.06368C3.22601 4.13539 3.55003 4.82666 4.04301 5.60768C4.53599 6.38871 5.01124 6.96373 5.10451 6.89203Z" fill="white"/>
<path d="M2.92051 3.40898C3.01379 3.33727 2.88959 2.96257 2.6431 2.57206C2.39661 2.18155 2.12117 1.9231 2.0279 1.9948C1.93462 2.06651 2.05883 2.44121 2.30532 2.83172C2.55181 3.22223 2.82724 3.48068 2.92051 3.40898Z" fill="white"/>
<path d="M12.2262 19.8603C12.029 19.8595 11.8378 19.7853 11.6834 19.6498L11.4749 19.4719C10.1632 18.339 9.01765 16.9898 8.07855 15.4717L0.291083 2.88685C0.104629 2.58531 0.00336208 2.22955 8.22688e-05 1.86451C-0.00319754 1.49948 0.0916567 1.14157 0.272656 0.83601C0.453655 0.530455 0.712674 0.290975 1.01697 0.147839C1.32128 0.00470296 1.6572 -0.0356639 1.98228 0.0318407C2.19818 0.0758783 2.40404 0.166685 2.58797 0.299015C2.77189 0.431346 2.93024 0.602578 3.05386 0.802823L10.8682 13.4315C11.7895 14.9196 12.5017 16.5527 12.9807 18.2757L13.0726 18.6072C13.1276 18.8052 13.1231 19.0175 13.0597 19.2125C12.9964 19.4074 12.8776 19.5746 12.7211 19.6889C12.5755 19.7995 12.403 19.8592 12.2262 19.8603V19.8603ZM1.67005 0.710898C1.48321 0.7114 1.30002 0.768089 1.14017 0.874871C0.980333 0.981652 0.849884 1.13449 0.76285 1.31695C0.675815 1.49942 0.635487 1.70461 0.646198 1.91047C0.65691 2.11633 0.718258 2.31507 0.823646 2.48534L8.61111 15.0684C9.51291 16.5262 10.613 17.8218 11.8726 18.9096L12.0811 19.0876C12.1205 19.1228 12.1691 19.1432 12.2197 19.1457C12.2704 19.1483 12.3204 19.1328 12.3625 19.1016C12.4046 19.0704 12.4365 19.0251 12.4536 18.9724C12.4707 18.9197 12.4719 18.8624 12.4573 18.8088L12.3665 18.4826C11.9066 16.8283 11.2229 15.2601 10.3383 13.8312L2.52129 1.20611C2.44542 1.08293 2.34817 0.977584 2.23518 0.896147C2.12218 0.81471 1.99568 0.758802 1.86298 0.731656C1.79939 0.718126 1.73481 0.711177 1.67005 0.710898V0.710898Z" fill="#426572"/>
<path d="M13.8916 19.0561H18.9432V19.7678H13.8916V19.0561Z" fill="#426572"/>
<path d="M11.6883 12.1772H18.9432V12.8889H11.6883V12.1772Z" fill="#426572"/>
<path d="M11.6883 10.2942H18.9432V11.0059H11.6883V10.2942Z" fill="#426572"/>
<path d="M11.6883 8.41122H18.9432V9.1229H11.6883V8.41122Z" fill="#426572"/>
<path d="M11.6883 6.52826H18.9432V7.23994H11.6883V6.52826Z" fill="#426572"/>
<path d="M11.6883 4.64529H18.9432V5.35697H11.6883V4.64529Z" fill="#426572"/>
</svg>
