<?xml version="1.0" encoding="UTF-8"?> <svg xmlns="http://www.w3.org/2000/svg" width="59" height="59" viewBox="0 0 59 59" fill="none"><g clip-path="url(#clip0)"><path d="M29.9155 2.47771L33.3991 1.16127C33.7877 1.01446 34.225 1.08372 34.5492 1.34346L37.4556 3.672C37.6789 3.85096 37.9599 3.94222 38.2457 3.92874L41.9658 3.75324C42.3807 3.73365 42.7752 3.93462 43.0032 4.28193L45.0478 7.39464C45.2049 7.63387 45.4438 7.80741 45.7199 7.88289L49.3121 8.86549C49.7127 8.97508 50.0257 9.28806 50.1353 9.68873L51.1179 13.2809C51.1934 13.5569 51.3669 13.7959 51.6062 13.953L54.7189 15.9976C55.0661 16.2257 55.2672 16.6201 55.2476 17.035L55.0721 20.7551C55.0586 21.0409 55.15 21.3219 55.3288 21.5452L57.6573 24.4516C57.9171 24.7758 57.9863 25.2131 57.8395 25.6017L56.5231 29.0853C56.4219 29.353 56.4219 29.6484 56.5231 29.916L57.8395 33.3997C57.9863 33.7883 57.9171 34.2256 57.6573 34.5497L55.3288 37.4562C55.1498 37.6795 55.0586 37.9604 55.0721 38.2462L55.2476 41.9663C55.2672 42.3813 55.0662 42.7757 54.7189 43.0038L51.6062 45.0484C51.3669 45.2055 51.1934 45.4443 51.1179 45.7204L50.1353 49.3126C50.0257 49.7133 49.7127 50.0263 49.3121 50.1359L45.7199 51.1185C45.4439 51.194 45.2049 51.3675 45.0478 51.6067L43.0032 54.7194C42.7751 55.0666 42.3807 55.2677 41.9658 55.2481L38.2457 55.0726C37.9599 55.0592 37.6789 55.1505 37.4556 55.3294L34.5492 57.6579C34.225 57.9177 33.7877 57.9869 33.3991 57.8401L29.9155 56.5237C29.6478 56.4225 29.3524 56.4225 29.0847 56.5237L25.6011 57.8401C25.2125 57.9869 24.7752 57.9177 24.4511 57.6579L21.5446 55.3294C21.3213 55.1504 21.0404 55.0592 20.7546 55.0726L17.0345 55.2481C16.6195 55.2677 16.2251 55.0668 15.997 54.7194L13.9524 51.6067C13.7953 51.3675 13.5565 51.194 13.2804 51.1185L9.68815 50.1359C9.28748 50.0263 8.97451 49.7133 8.86492 49.3126L7.88232 45.7204C7.80684 45.4445 7.63329 45.2055 7.39407 45.0484L4.28147 43.0036C3.93427 42.7754 3.73319 42.3811 3.75278 41.9661L3.92828 38.246C3.94176 37.9601 3.85038 37.6793 3.67154 37.4559L1.34299 34.5495C1.08326 34.2254 1.014 33.788 1.16081 33.3995L2.47725 29.9158C2.57842 29.6481 2.57842 29.3528 2.47725 29.0851L1.16081 25.6012C1.014 25.2126 1.08326 24.7753 1.34299 24.4512L3.67154 21.5447C3.85049 21.3214 3.94176 21.0405 3.92828 20.7547L3.75278 17.0346C3.73319 16.6196 3.93415 16.2252 4.28147 15.9971L7.39418 13.9525C7.63341 13.7955 7.80695 13.5566 7.88243 13.2805L8.86503 9.68827C8.97462 9.2876 9.2876 8.97462 9.68827 8.86503L13.2805 7.88243C13.5565 7.80695 13.7955 7.63341 13.9525 7.39418L15.9971 4.28147C16.2253 3.93427 16.6196 3.73319 17.0346 3.75278L20.7547 3.92828C21.0405 3.94188 21.3214 3.85038 21.5447 3.67154L24.4512 1.34299C24.7753 1.08326 25.2126 1.014 25.6012 1.16081L29.0849 2.47725C29.3523 2.57877 29.6478 2.57877 29.9155 2.47771Z" fill="white"></path><path d="M38.3686 50.1928C22.0423 50.1928 8.80707 36.9577 8.80707 20.6313C8.80707 16.2587 9.76398 12.1121 11.4677 8.37793L9.68838 8.86468C9.28771 8.97427 8.97474 9.28724 8.86515 9.68791L7.88243 13.2801C7.80695 13.5561 7.63341 13.7951 7.39418 13.9523L4.28147 15.9969C3.93427 16.225 3.73319 16.6194 3.75278 17.0342L3.92828 20.7543C3.94176 21.0401 3.85038 21.3211 3.67154 21.5444L1.34299 24.4508C1.08326 24.775 1.014 25.2123 1.16081 25.6007L2.47725 29.0844C2.57842 29.3521 2.57842 29.6474 2.47725 29.9151L1.16081 33.3988C1.014 33.7873 1.08326 34.2247 1.34299 34.5488L3.67154 37.4552C3.85049 37.6786 3.94176 37.9595 3.92828 38.2453L3.75278 41.9654C3.73319 42.3804 3.93415 42.7748 4.28147 43.0029L7.39418 45.0475C7.63329 45.2045 7.80695 45.4434 7.88243 45.7195L8.86515 49.3117C8.97474 49.7124 9.28771 50.0254 9.68838 50.1352L13.2806 51.1179C13.5566 51.1934 13.7956 51.3669 13.9526 51.6061L15.9972 54.7189C16.2254 55.0661 16.6197 55.267 17.0347 55.2476L20.7547 55.0721C21.0406 55.0586 21.3215 55.1499 21.5448 55.3288L24.4513 57.6573C24.7754 57.917 25.2128 57.9863 25.6012 57.8395L29.0849 56.5231C29.3526 56.4219 29.6479 56.4219 29.9156 56.5231L33.3992 57.8395C33.7878 57.9863 34.2251 57.9171 34.5492 57.6573L37.4556 55.3288C37.6789 55.1499 37.9599 55.0587 38.2458 55.0721L41.9658 55.2476C42.3807 55.2671 42.7752 55.0662 43.0032 54.7189L45.0478 51.6061C45.2049 51.367 45.4438 51.1934 45.7199 51.1179L49.3121 50.1352C49.7127 50.0256 50.0257 49.7126 50.1353 49.3117L50.6221 47.5324C46.8876 49.236 42.7411 50.1928 38.3686 50.1928Z" fill="white"></path><path d="M29.4999 52.1636C42.0168 52.1636 52.1637 42.0167 52.1637 29.4998C52.1637 16.9829 42.0168 6.83594 29.4999 6.83594C16.983 6.83594 6.83606 16.9829 6.83606 29.4998C6.83606 42.0167 16.983 52.1636 29.4999 52.1636Z" fill="#92278F"></path><path d="M38.7807 45.6244C38.6152 45.3486 38.3278 45.1728 38.0078 45.14C26.5869 43.9722 17.6754 34.3309 17.6754 22.6019C17.6754 19.6303 18.2504 16.794 19.2914 14.1943C19.5571 13.5309 18.815 12.9305 18.2292 13.3397C12.55 17.3061 9.05549 24.1832 9.92436 31.8123C10.9346 40.6828 18.026 47.862 26.8768 49.0333C31.0628 49.5874 35.0035 48.7889 38.3916 47.0557C38.9114 46.7898 39.0811 46.1252 38.7807 45.6244Z" fill="#92278F"></path><path d="M44.2857 26.0511C44.2857 24.6905 43.1828 23.5876 41.8222 23.5876H33.2938C35.5877 21.7304 37.1454 19.2391 37.3706 17.1902C37.5375 15.671 36.4871 14.2281 34.9589 14.214C33.5883 14.2013 32.4728 15.2973 32.4728 16.6648C32.4728 17.552 30.5472 20.1848 26.9387 21.3563C26.3601 21.544 25.8557 21.9014 25.4394 22.3448C25.1326 22.6713 24.3154 23.6656 23.514 24.2078C23.3686 23.845 23.017 23.5875 22.6023 23.5875H16.69C16.1458 23.5875 15.7046 24.0287 15.7046 24.5729V40.339C15.7046 40.8831 16.1458 41.3244 16.69 41.3244H22.6023C23.1464 41.3244 23.5877 40.8831 23.5877 40.339H39.3587C40.4473 40.339 41.3295 39.4565 41.3295 38.3683C41.3295 37.2798 40.4473 36.3975 39.3587 36.3975H40.3441C41.4326 36.3975 42.3149 35.515 42.3149 34.4268C42.3149 33.3383 41.4326 32.456 40.3441 32.456H41.3295C42.418 32.456 43.3002 31.5736 43.3002 30.4853C43.3002 29.3968 42.418 28.5146 41.3295 28.5146H41.8222C43.1827 28.5144 44.2857 27.4117 44.2857 26.0511Z" fill="white"></path><path d="M38.3685 34.4268C37.8244 34.4268 37.3832 34.868 37.3832 35.4121C37.3832 35.9563 37.8244 36.3975 38.3685 36.3975H39.3589H40.2389C41.2206 36.3975 42.1305 35.7266 42.2881 34.7576C42.3063 34.6449 42.3053 34.5359 42.3051 34.4268H38.3685Z" fill="#9B2066"></path><path d="M38.3685 30.4854C37.8244 30.4854 37.3832 30.9266 37.3832 31.4707C37.3832 32.0149 37.8244 32.4561 38.3685 32.4561H40.3442H41.2243C42.206 32.4561 43.1158 31.7852 43.2735 30.8162C43.2917 30.7035 43.2907 30.5945 43.2905 30.4854H38.3685Z" fill="#9B2066"></path><path d="M38.3685 26.543C37.8244 26.543 37.3832 26.9842 37.3832 27.5283C37.3832 28.0725 37.8244 28.5137 38.3685 28.5137H41.3296H41.8224C43.0126 28.5137 43.9929 27.665 44.223 26.543H38.3685Z" fill="#9B2066"></path><path d="M26.5439 37.3828V25.3128C26.5439 24.8839 26.8199 24.5087 27.2273 24.3752C29.2131 23.7242 34.8719 21.2947 35.3571 14.6417C35.1928 14.4731 35.1044 14.3825 34.9401 14.2139C33.5781 14.2113 32.4727 15.3034 32.4727 16.6648C32.4727 17.552 30.5471 20.1849 26.9386 21.3563C26.36 21.544 25.8556 21.9014 25.4392 22.3448C25.1419 22.6612 24.3647 23.6019 23.5875 24.1534V38.3681H20.6314C19.5429 38.3681 18.6607 37.4859 18.6607 36.3974V23.5874H16.69C16.1458 23.5874 15.7046 24.0286 15.7046 24.5727V40.3389C15.7046 40.883 16.1458 41.3242 16.69 41.3242H22.6023C23.1464 41.3242 23.5877 40.883 23.5877 40.3389H39.3587C40.4473 40.3389 41.3295 39.4564 41.3295 38.3681H27.5291C26.985 38.3681 26.5439 37.927 26.5439 37.3828Z" fill="white"></path><path d="M45.2096 26.051C45.2096 24.1831 43.6901 22.6637 41.8222 22.6637H35.597C37.1095 20.9636 38.098 19.0278 38.2889 17.2911C38.4055 16.2304 38.0778 15.1775 37.3895 14.4023C36.7605 13.6937 35.9002 13.2988 34.9673 13.2902C34.9565 13.29 34.9456 13.29 34.9349 13.29C34.0325 13.29 33.1855 13.6376 32.5463 14.2709C31.907 14.9044 31.5532 15.7482 31.5491 16.6488C31.5163 16.8459 31.1694 17.5257 30.3207 18.3328C29.6258 18.9938 28.4255 19.9024 26.6534 20.4778C25.9585 20.7034 25.3234 21.1188 24.7659 21.7125C24.4734 22.0239 24.0352 22.4539 23.4928 22.8856C23.2266 22.7446 22.9239 22.6639 22.6023 22.6639H16.69C15.6372 22.6639 14.7808 23.5203 14.7808 24.5731V40.3392C14.7808 41.392 15.6372 42.2484 16.69 42.2484H22.6023C23.32 42.2484 23.9458 41.85 24.2719 41.2631H39.3588C40.9549 41.2631 42.2533 39.9646 42.2533 38.3685C42.2533 37.8319 42.1066 37.329 41.851 36.8975C42.6827 36.3884 43.2387 35.4714 43.2387 34.4269C43.2387 33.8903 43.092 33.3874 42.8364 32.9559C43.6681 32.4468 44.2241 31.5298 44.2241 30.4853C44.2241 29.8813 44.0381 29.3198 43.7204 28.8552C44.6184 28.2454 45.2096 27.2159 45.2096 26.051ZM41.8222 27.5906H41.3295C40.8194 27.5906 40.4057 28.0042 40.4057 28.5145C40.4057 29.0246 40.8192 29.4383 41.3295 29.4383C41.9068 29.4383 42.3765 29.908 42.3765 30.4853C42.3765 31.0626 41.9068 31.5323 41.3295 31.5323H40.3441C39.834 31.5323 39.4203 31.9459 39.4203 32.4562C39.4203 32.9664 39.8339 33.38 40.3441 33.38C40.9215 33.38 41.3911 33.8497 41.3911 34.427C41.3911 35.0043 40.9215 35.474 40.3441 35.474H39.3588C38.8486 35.474 38.4349 35.8876 38.4349 36.3979C38.4349 36.9081 38.8485 37.3217 39.3588 37.3217C39.9361 37.3217 40.4058 37.7914 40.4058 38.3687C40.4058 38.946 39.9361 39.4157 39.3588 39.4157H24.5115V30.4857C24.5115 29.9755 24.0979 29.5618 23.5877 29.5618C23.0775 29.5618 22.6638 29.9754 22.6638 30.4857V40.3395C22.6638 40.3735 22.6363 40.401 22.6023 40.401H16.69C16.656 40.401 16.6284 40.3735 16.6284 40.3395V24.5729C16.6284 24.5389 16.656 24.5113 16.69 24.5113H22.6023C22.6363 24.5113 22.6638 24.5389 22.6638 24.5729V26.5437C22.6638 27.0539 23.0774 27.4676 23.5877 27.4676C24.0978 27.4676 24.5115 27.054 24.5115 26.5437V24.5729C24.5115 24.528 24.5078 24.4841 24.5047 24.4401C25.1974 23.9039 25.7513 23.3619 26.1127 22.9772C26.4546 22.613 26.8284 22.3634 27.2238 22.2351C29.3982 21.5292 30.8616 20.3925 31.7062 19.5633C32.7647 18.524 33.3965 17.4406 33.3965 16.6649C33.3965 16.2551 33.5564 15.8711 33.8466 15.5834C34.1405 15.2922 34.5296 15.1384 34.9501 15.1378C35.468 15.1427 35.8109 15.4076 36.0076 15.6291C36.3448 16.0088 36.5107 16.5547 36.4521 17.0893C36.2503 18.9249 34.7823 21.1938 32.7123 22.8696C32.4082 23.1158 32.2921 23.527 32.4227 23.8959C32.5532 24.2647 32.9022 24.5113 33.2935 24.5113H41.822C42.6711 24.5113 43.3617 25.2019 43.3617 26.051C43.3617 26.9 42.6712 27.5906 41.8222 27.5906Z" fill="black"></path><path d="M19.6462 36.4492C19.1361 36.4492 18.7175 36.8677 18.7175 37.3779C18.7175 37.888 19.1361 38.3066 19.6462 38.3066C20.1563 38.3066 20.5749 37.888 20.5749 37.3779C20.5749 36.8677 20.1565 36.4492 19.6462 36.4492Z" fill="white"></path><path d="M57.353 29.5L58.94 25.3005C59.0556 24.995 59.001 24.6512 58.7967 24.3962L55.9897 20.8926L56.2013 16.4083C56.2168 16.0822 56.0587 15.7719 55.7858 15.5927L52.0335 13.1279L50.8491 8.79764C50.7629 8.48259 50.5168 8.23645 50.2019 8.15037L45.8716 6.96599L43.4068 3.21384C43.2275 2.94085 42.9173 2.78344 42.5912 2.79831L38.1069 3.00988L34.6033 0.202885C34.3484 -0.00131068 34.0046 -0.0558165 33.699 0.0596483L29.4996 1.64666L25.3003 0.0597635C24.9946 -0.0558166 24.6509 -0.00131069 24.3961 0.203L20.8925 3.00999L16.4081 2.79842C16.0804 2.78298 15.7717 2.94108 15.5925 3.21396L13.1277 6.96622L8.79758 8.1506C8.48253 8.2368 8.23639 8.48293 8.15031 8.79787L6.96593 13.1281L3.21367 15.5929C2.94068 15.7722 2.78269 16.0824 2.79814 16.4085L3.00971 20.8929L0.202712 24.3963C-0.00148335 24.6512 -0.0559892 24.995 0.0594756 25.3006L1.64637 29.5L0.0593604 33.6993C-0.0562197 34.0048 -0.00171381 34.3486 0.202597 34.6036L3.00959 38.1072L2.79802 42.5915C2.78258 42.9176 2.94068 43.2279 3.21356 43.4071L6.96582 45.8719L8.1502 50.2022C8.23639 50.5172 8.48253 50.7633 8.79747 50.8494L13.1277 52.0338L15.5925 55.7861C15.7718 56.0591 16.0826 56.2161 16.4081 56.2016L20.8925 55.99L24.3961 58.797C24.6509 59.0013 24.9948 59.0558 25.3003 58.9403L29.4998 57.3533L33.6993 58.9403C33.8053 58.9803 33.9158 58.9998 34.0257 58.9998C34.2327 58.9998 34.437 58.9304 34.6034 58.797L38.107 55.99L42.5913 56.2016C42.9185 56.2161 43.2277 56.0589 43.407 55.7861L45.8717 52.0338L50.202 50.8494C50.517 50.7632 50.7632 50.5171 50.8493 50.2022L52.0336 45.8719L55.7859 43.4071C56.0589 43.2278 56.2169 42.9176 56.2014 42.5915L55.9899 38.1072L58.7969 34.6036C59.001 34.3487 59.0556 34.0049 58.9401 33.6993L57.353 29.5ZM55.5013 29.8265L57.0254 33.8596L54.3296 37.2243C54.1889 37.3999 54.1171 37.6208 54.1277 37.8455L54.3309 42.1521L50.7273 44.5191C50.5394 44.6426 50.4027 44.8305 50.3434 45.0476L49.2059 49.2063L45.0472 50.3438C44.8302 50.4031 44.6424 50.5397 44.5187 50.7277L42.1517 54.3314L37.8451 54.1281C37.6202 54.1177 37.3994 54.1893 37.2239 54.33L33.8592 57.0258L29.8261 55.5017C29.7209 55.4619 29.6102 55.4421 29.4996 55.4421C29.3889 55.4421 29.2782 55.462 29.173 55.5017L25.1399 57.0258L21.7752 54.33C21.5997 54.1893 21.3784 54.1177 21.154 54.1281L16.8474 54.3314L14.4804 50.7277C14.3569 50.5398 14.169 50.4031 13.9519 50.3438L9.79321 49.2063L8.65573 45.0476C8.59638 44.8306 8.45983 44.6428 8.27177 44.5191L4.66827 42.1521L4.87155 37.8455C4.88215 37.6206 4.81036 37.3999 4.66966 37.2243L1.97386 33.8596L3.49795 29.8265C3.57758 29.6161 3.57758 29.3838 3.49795 29.1734L1.97386 25.1403L4.66966 21.7756C4.81036 21.6001 4.88215 21.3792 4.87155 21.1545L4.66827 16.8478L8.27177 14.4808C8.45972 14.3574 8.59638 14.1694 8.65573 13.9523L9.79321 9.79361L13.9519 8.65613C14.1689 8.59679 14.3567 8.46023 14.4804 8.27217L16.8474 4.66868L21.154 4.87195C21.3785 4.88244 21.5997 4.81076 21.7752 4.67006L25.1399 1.97427L29.173 3.49836C29.3835 3.57798 29.6157 3.57798 29.8261 3.49836L33.8592 1.97427L37.2239 4.67006C37.3994 4.81088 37.6205 4.88255 37.8451 4.87195L42.1517 4.66868L44.5187 8.27217C44.6422 8.46012 44.8301 8.59679 45.0472 8.65613L49.2059 9.79361L50.3434 13.9523C50.4027 14.1693 50.5393 14.3571 50.7273 14.4808L54.3308 16.8478L54.1276 21.1545C54.117 21.3793 54.1887 21.6001 54.3294 21.7756L57.0252 25.1403L55.5012 29.1734C55.4218 29.3839 55.4218 29.6161 55.5013 29.8265Z" fill="black"></path><path d="M44.8428 14.1152C45.0649 14.3373 45.2851 14.5671 45.4972 14.7981C45.6794 14.9965 45.9283 15.0971 46.178 15.0971C46.4012 15.0971 46.6251 15.0167 46.8025 14.8538C47.1783 14.5088 47.2033 13.9244 46.8583 13.5486C46.6284 13.2983 46.3899 13.0494 46.1492 12.8088C45.9085 12.5682 45.6597 12.3296 45.4094 12.0997C45.0336 11.7547 44.4493 11.7796 44.1041 12.1555C43.7591 12.5313 43.784 13.1158 44.1599 13.4608C44.3908 13.6728 44.6205 13.8929 44.8428 14.1152Z" fill="black"></path><path d="M14.0977 14.115C17.617 10.5957 22.2761 8.37568 27.2166 7.86392C32.0881 7.3592 37.0312 8.5218 41.1359 11.1369C41.5663 11.4111 42.1372 11.2845 42.4114 10.8543C42.6855 10.424 42.559 9.85298 42.1287 9.57884C37.6737 6.74062 32.31 5.47926 27.0262 6.02628C21.6649 6.58171 16.6096 8.99034 12.7912 12.8086C8.58892 17.0109 6.14226 22.5933 5.90188 28.5275C5.66312 34.4267 7.61703 40.1543 11.404 44.6549C11.5866 44.872 11.848 44.9839 12.1114 44.9839C12.3214 44.9839 12.5324 44.9127 12.7057 44.767C13.096 44.4385 13.1462 43.8558 12.8178 43.4655C9.32838 39.3183 7.52795 34.0399 7.74817 28.6023C7.96953 23.1331 10.2246 17.9881 14.0977 14.115Z" fill="black"></path><path d="M48.1036 16.5462C47.6732 16.8204 47.5468 17.3915 47.821 17.8216C50.4361 21.9265 51.5985 26.8699 51.094 31.741C50.5822 36.6816 48.3622 41.3406 44.843 44.8601C40.9698 48.7332 35.8248 50.9882 30.3557 51.2097C24.9191 51.4307 19.6396 49.6294 15.4925 46.1402C15.1022 45.8116 14.5195 45.8619 14.191 46.2523C13.8624 46.6426 13.9127 47.2253 14.3031 47.5538C18.5577 51.1336 23.908 53.0755 29.464 53.0754C29.7854 53.0754 30.1081 53.0688 30.4307 53.0558C36.3649 52.8156 41.9472 50.3689 46.1496 46.1667C49.968 42.3482 52.3768 37.2928 52.932 31.9315C53.4793 26.6474 52.2177 21.284 49.3794 16.829C49.105 16.3986 48.5337 16.272 48.1036 16.5462Z" fill="black"></path></g><defs><clipPath id="clip0"><rect width="59" height="59" fill="white"></rect></clipPath></defs></svg> 