<?xml version="1.0" encoding="UTF-8"?> <svg xmlns="http://www.w3.org/2000/svg" width="59" height="59" viewBox="0 0 59 59" fill="none"><g clip-path="url(#clip0)"><path d="M43.835 34.3368C43.835 23.7717 35.2928 15.207 24.7556 15.207C14.2184 15.207 5.67664 23.7717 5.67664 34.3368C5.67664 44.9019 14.2184 53.4666 24.7556 53.4666C35.2928 53.4666 43.835 44.9019 43.835 34.3368Z" fill="white"></path><path d="M24.7556 15.207C23.7766 15.207 22.8146 15.2813 21.8748 15.424C31.0449 16.8167 38.0728 24.7535 38.0728 34.3368C38.0728 43.9197 31.0449 51.857 21.8748 53.2497C22.8146 53.3924 23.7766 53.4666 24.7556 53.4666C35.2928 53.4666 43.835 44.9019 43.835 34.3368C43.835 23.7717 35.2928 15.207 24.7556 15.207Z" fill="white"></path><path d="M22.2758 22.6413C19.3369 24.4828 17.1326 27.4298 18.7859 30.745C20.4388 34.0603 24.1128 32.7711 27.5113 32.3106C30.9094 31.8501 28.3378 42.3482 30.3584 44.927C32.3791 47.5053 38.0733 42.3482 37.5223 39.0329C36.7067 34.1247 36.4204 32.4024 43.0333 28.9031L43.0513 28.8968C40.8223 21.3489 34.0752 15.7488 25.9507 15.2451L25.9498 15.2739C25.9498 15.2739 25.2152 20.7993 22.2758 22.6413Z" fill="white"></path><path d="M36.7098 19.4277C36.7107 19.4286 36.7121 19.4295 36.7134 19.4304C36.7121 19.4295 36.7112 19.4286 36.7098 19.4277Z" fill="#BAEB6C"></path><path d="M39.0424 21.6592C39.0428 21.6596 39.0433 21.6601 39.0433 21.6601C39.0433 21.6601 39.0428 21.6596 39.0424 21.6592Z" fill="#BAEB6C"></path><path d="M12.0811 42.993C11.1984 41.6471 13.6422 38.4809 14.1936 36.0866C14.7446 33.6923 11.4379 33.8764 10.4278 33.0478C9.41725 32.2186 8.03984 28.6274 7.02929 27.7987L6.86769 27.6709C6.09796 29.7469 5.67664 31.9922 5.67664 34.3369C5.67664 40.66 8.73665 46.2655 13.4527 49.7486L13.4586 49.3476C13.4586 49.3476 14.1936 46.2164 12.0811 42.993Z" fill="#92278F"></path><path d="M37.5222 39.0325C37.5182 39.0087 37.5141 38.9852 37.5105 38.9609C37.145 40.436 36.6094 41.8431 35.9252 43.1602C37.0109 41.8796 37.7361 40.3176 37.5222 39.0325Z" fill="#BAEB6C"></path><path d="M25.9507 15.2451L25.9498 15.2739C25.9498 15.2739 25.8881 15.7353 25.7306 16.4348C32.4209 18.9673 37.3193 25.1607 37.9931 32.5793C38.8363 31.4261 40.3784 30.308 43.0333 28.9031L43.0513 28.8968C40.8218 21.3489 34.0747 15.7488 25.9507 15.2451Z" fill="#92278F"></path><path d="M19.4831 21.7717C10.2563 20.2062 4.53284 8.58955 4.53284 8.58955C4.53284 8.58955 13.7682 -0.489211 22.9946 1.07591C32.221 2.64147 37.9445 14.2581 37.9445 14.2581C37.9445 14.2581 28.7091 23.3368 19.4831 21.7717Z" fill="#92278F"></path><path d="M22.9947 1.07662C21.2328 0.777734 19.4715 0.867761 17.7736 1.20761C26.6137 3.1927 32.0676 14.2584 32.0676 14.2584C32.0676 14.2584 26.0218 20.2001 18.8269 21.6406C19.0438 21.6896 19.2622 21.7342 19.4832 21.772C28.7091 23.3371 37.9445 14.2584 37.9445 14.2584C37.9445 14.2584 32.2211 2.64174 22.9947 1.07662Z" fill="#9B2066"></path><path d="M44.2199 10.4967C46.6952 4.64001 55.2707 2.66797 55.2707 2.66797C55.2707 2.66797 59.8337 10.192 57.3589 16.0487C54.884 21.9054 46.3081 23.8769 46.3081 23.8769C46.3081 23.8769 41.745 16.3534 44.2199 10.4967Z" fill="#92278F"></path><path d="M55.2711 2.66797C55.2711 2.66797 53.3207 3.1172 51.012 4.22138C52.1963 6.73088 54.0742 11.8232 52.2885 16.0487C50.9935 19.1123 48.0294 21.1127 45.4965 22.324C45.9538 23.2927 46.3081 23.8769 46.3081 23.8769C46.3081 23.8769 54.884 21.9054 57.3588 16.0487C59.8341 10.192 55.2711 2.66797 55.2711 2.66797Z" fill="#9B2066"></path><path d="M58.0673 6.87624C57.2147 4.19569 56.0597 2.27632 56.0106 2.19574C55.8211 1.88335 55.4313 1.72085 55.0779 1.80188C54.9866 1.82303 52.8048 2.33213 50.2885 3.58891C46.8914 5.28502 44.5182 7.54919 43.4249 10.1361C42.5147 12.29 42.3842 14.9237 43.0297 17.833C41.6545 16.2971 40.1074 14.9534 38.4212 13.8223C37.9062 12.805 36.5446 10.3004 34.4159 7.68288C33.715 6.82132 32.3664 7.90255 33.0745 8.77311C34.5091 10.5372 35.5885 12.272 36.2637 13.464L28.3908 11.9294L20.9105 1.72625C21.637 1.73661 22.3658 1.80683 23.091 1.94907C25.3902 2.3992 27.6616 3.57 29.8425 5.42906C30.6973 6.15738 31.8069 4.83173 30.9638 4.11332C28.5542 2.0598 26.0173 0.760715 23.4232 0.252514C19.4629 -0.522617 14.844 0.494686 10.065 3.19549C6.5026 5.20849 4.12049 7.41955 4.02101 7.51273C3.70232 7.81027 3.65145 8.35133 3.91838 8.69928C4.26769 9.4159 5.59153 12.001 7.79494 14.7842C9.09403 16.4254 10.4638 17.8298 11.8808 18.984C11.4784 19.3211 11.0863 19.674 10.7073 20.0454C8.68215 22.0264 7.13144 24.3631 6.11324 26.9176C5.21342 29.175 4.72953 31.603 4.70252 34.1058C4.65795 38.1984 5.84361 42.1456 8.13254 45.5212C10.3684 48.8184 13.4941 51.35 17.1717 52.8417C18.2007 53.2585 18.8516 51.6578 17.8217 51.2401C16.4893 50.6995 15.2375 50.0072 14.0829 49.1835C14.2305 48.3647 14.5731 45.4176 12.6154 42.3666C12.3413 41.9399 13.1605 40.264 13.6498 39.263C14.1544 38.2312 14.6757 37.1644 14.9192 36.1602C15.1776 35.0934 14.8868 34.1976 14.0784 33.5692C13.4846 33.1078 12.7082 32.8692 12.0235 32.6586C11.5788 32.5217 11.0746 32.3669 10.8946 32.2165C10.5237 31.906 9.91777 30.7577 9.43118 29.8353C8.89102 28.8122 8.37651 27.8385 7.85166 27.239C9.03326 24.4328 10.931 21.9499 13.3077 20.0503C15.4787 21.5295 17.9567 22.5499 20.5905 22.7565C17.5358 25.1233 16.5478 28.1455 17.9603 31.0489C19.6096 34.4389 23.0041 33.8974 25.9993 33.4202C26.5174 33.3374 27.0535 33.2519 27.5671 33.1879C27.7597 33.1636 27.8178 33.2163 27.8565 33.2505C28.5124 33.8339 28.493 36.6202 28.4791 38.6548C28.4597 41.4691 28.4417 44.1271 29.4901 45.4919C30.0248 46.1878 30.7779 46.5434 31.6606 46.5434C32.1895 46.5434 32.7643 46.416 33.3671 46.1577C35.9738 45.0413 38.6836 41.6815 38.2704 39.023C37.9089 36.699 37.6699 35.1636 38.2335 33.9257C38.7547 32.7801 40.0142 31.7196 42.4949 30.3665C42.792 31.7043 42.9419 33.0961 42.9266 34.5239C42.8735 39.3975 40.9253 43.9592 37.4412 47.3676C33.5476 51.1767 28.0748 53.0578 22.6615 52.4613C21.5582 52.3416 21.3678 54.058 22.4725 54.1795C28.398 54.8322 34.3889 52.7724 38.6498 48.6032C42.4643 44.8716 44.597 39.8783 44.6551 34.5424C44.7321 27.4672 41.1017 21.1991 35.5754 17.5885C36.7174 16.7742 37.5682 16.0702 38.0399 15.6615C40.0547 17.1069 41.8417 18.8876 43.3285 20.9623C46.8981 25.9435 48.3138 32.0162 47.3154 38.0624C45.2538 50.5433 33.4233 59.0211 20.9402 56.9591C14.8936 55.9602 9.59818 52.6675 6.02861 47.6863C2.45905 42.7051 1.04338 36.6319 2.04177 30.5862C2.22138 29.4982 0.516718 29.2128 0.336664 30.3044C-0.737356 36.8061 0.785448 43.3367 4.62329 48.6933C8.46159 54.0494 14.1567 57.5906 20.6584 58.6646C22.0183 58.8893 23.3795 59 24.7312 59C29.8412 59 34.812 57.4133 39.0482 54.378C44.4053 50.5397 47.9469 44.8455 49.0205 38.3438C49.8073 33.5796 49.1983 28.8 47.3073 24.4778C48.1801 24.2204 49.6655 23.7207 51.2923 22.9082C54.689 21.2121 57.0626 18.9479 58.1555 16.361C59.2493 13.7736 59.2187 10.494 58.0673 6.87624ZM7.90207 30.642C8.54531 31.8614 9.15345 33.0137 9.78543 33.5422C10.2329 33.9163 10.8559 34.108 11.5153 34.3106C13.2047 34.83 13.4009 35.0848 13.2389 35.7528C13.0399 36.5743 12.5605 37.5551 12.0969 38.5036C11.2043 40.3298 10.3612 42.0542 11.1601 43.3002C12.2936 45.0661 12.4876 46.8045 12.4682 47.8862C7.32005 43.2439 5.22377 35.9117 7.14134 29.2475C7.39567 29.6832 7.66305 30.1896 7.90207 30.642ZM49.7195 13.6566L47.2632 7.70404C48.4583 6.58635 49.8451 5.74505 51.0263 5.15268C52.0323 4.64808 52.9898 4.27041 53.7573 4.00303L49.7195 13.6566ZM55.3507 4.67328C55.6942 5.4106 56.0921 6.36174 56.4319 7.43666C56.8047 8.61646 57.1468 10.0785 57.2147 11.6035L51.4584 13.9785L55.3507 4.67328ZM45.017 10.8091C45.2718 10.2063 45.6013 9.64727 45.9821 9.13141L48.7783 15.9068L46.2688 21.9067C45.9164 21.159 45.5013 20.1764 45.1489 19.0605C44.4422 16.826 43.8457 13.5801 45.017 10.8091ZM50.5541 21.3445C49.5859 21.8306 48.6617 22.1984 47.9091 22.4639L50.5131 16.2386L57.1414 13.5036C57.045 14.2463 56.8618 14.9823 56.5634 15.6881C55.3926 18.4591 52.6495 20.2938 50.5541 21.3445ZM19.3881 20.8525C19.0825 20.7926 18.7814 20.7197 18.4843 20.6364L28.0501 13.6242L35.9265 15.1596C33.0574 17.4202 26.0744 22.1623 19.3881 20.8525ZM10.6456 15.4445C8.59978 13.2398 7.10038 10.882 6.23928 9.37268L16.2629 11.3267L10.6456 15.4445ZM12.416 3.91301L16.6099 9.63331L6.52151 7.66668C7.79134 6.66378 9.88806 5.15808 12.416 3.91301ZM19.1104 10.1208L14.0261 3.18559C15.5481 2.5599 17.182 2.06791 18.857 1.84869L25.8903 11.442L19.1104 10.1208ZM18.5725 11.7769L25.7409 13.1741L16.5406 19.918C14.8058 19.1167 13.2443 17.9648 11.8781 16.6842L18.5725 11.7769ZM42.0254 28.6551C38.9096 30.3152 37.3836 31.6192 36.6598 33.21C35.8824 34.9178 36.1674 36.7512 36.5617 39.2886C36.7944 40.7849 35.0164 43.5707 32.6865 44.5687C31.8245 44.9378 31.2105 44.8941 30.8607 44.4386C30.1738 43.5451 30.1927 40.8398 30.2076 38.6665C30.2278 35.6596 30.2458 33.0628 29.0053 31.9591C28.5592 31.5625 27.9884 31.3946 27.3542 31.4725C26.8109 31.54 26.2594 31.6278 25.7269 31.7128C22.5499 32.2192 20.5504 32.4218 19.5146 30.2927C17.8365 26.8437 21.2337 24.2892 22.7718 23.3512C23.0851 23.1603 23.3759 22.9352 23.646 22.6845C27.3641 22.2402 30.8774 20.6449 34.0081 18.6468C37.7617 20.8894 40.6435 24.4387 42.0254 28.6551Z" fill="black"></path></g><defs><clipPath id="clip0"><rect width="59" height="59" fill="white"></rect></clipPath></defs></svg> 