<?xml version="1.0" encoding="UTF-8"?> <svg xmlns="http://www.w3.org/2000/svg" width="59" height="59" viewBox="0 0 59 59" fill="none"><path d="M13.5608 30.5139C13.0498 30.5119 12.5482 30.6523 12.1125 30.9193C11.6768 31.1864 11.324 31.5695 11.0939 32.0258C11.0874 32.0378 11.0846 32.0516 11.0791 32.0645V32.0719V32.0645C10.7826 32.7184 10.743 33.46 10.9683 34.1417C11.1936 34.8234 11.6673 35.3953 12.2951 35.7437L17.4603 38.7186L12.2978 35.7437C11.67 35.3953 11.1964 34.8234 10.9711 34.1417C10.7458 33.46 10.7853 32.7184 11.0819 32.0645L8.46652 22.3314C8.29242 21.6253 7.85698 21.0115 7.24806 20.6139C6.63914 20.2162 5.90207 20.0644 5.18557 20.1889C4.81758 20.2658 4.46913 20.4169 4.16151 20.633C3.85388 20.8491 3.59355 21.1257 3.3964 21.4457C3.19925 21.7658 3.06943 22.1228 3.01487 22.4947C2.96032 22.8667 2.98216 23.2459 3.07908 23.6091L7.08002 38.5342C7.27262 39.2518 7.6775 39.8944 8.24158 40.378L12.5403 44.0655C12.9445 44.4119 13.269 44.8418 13.4913 45.3256C13.7136 45.8094 13.8285 46.3356 13.8281 46.868V48.8592H24.8906V40.9422C24.8906 39.6563 24.5544 38.3928 23.9153 37.277C23.2762 36.1612 22.3565 35.2319 21.2474 34.5812L14.9436 30.8827C14.5228 30.641 14.046 30.5139 13.5608 30.5139Z" fill="white"></path><path d="M46.4625 44.0655L50.7612 40.378C51.3253 39.8945 51.7302 39.2518 51.9228 38.5343L55.9209 23.6091C56.0179 23.2459 56.0397 22.8667 55.9851 22.4948C55.9306 22.1228 55.8008 21.7659 55.6036 21.4458C55.4065 21.1257 55.1461 20.8491 54.8385 20.6331C54.5309 20.417 54.1824 20.2659 53.8145 20.189C53.0981 20.0644 52.3611 20.2161 51.7522 20.6136C51.1433 21.011 50.7078 21.6246 50.5335 22.3305L47.9209 32.0646C48.2175 32.7184 48.257 33.46 48.0317 34.1417C47.8064 34.8234 47.3328 35.3954 46.705 35.7438L41.5397 38.7187L46.7022 35.7438C47.33 35.3954 47.8036 34.8234 48.0289 34.1417C48.2543 33.46 48.2147 32.7184 47.9181 32.0646V32.0719V32.0646C47.9126 32.0517 47.9098 32.0378 47.9034 32.0258C47.7327 31.6916 47.4959 31.3956 47.2074 31.1556C46.9188 30.9157 46.5846 30.7369 46.2248 30.63C45.8651 30.5231 45.4874 30.4904 45.1147 30.5338C44.7419 30.5773 44.3819 30.696 44.0564 30.8827L37.7526 34.5813C36.6435 35.2319 35.7238 36.1612 35.0847 37.2771C34.4457 38.3929 34.1094 39.6564 34.1094 40.9422V48.8593H45.1719V46.868C45.1718 46.3354 45.2872 45.8091 45.51 45.3253C45.7328 44.8415 46.0577 44.4117 46.4625 44.0655Z" fill="white"></path><path d="M31.3438 48.8594V56.2344H47.9375V48.8594H45.1719H34.1094H31.3438Z" fill="#92278F"></path><path d="M11.0625 48.8594V56.2344H27.6562V48.8594H24.8906H13.8281H11.0625Z" fill="#92278F"></path><path d="M43.3281 2.76562V14.3813C43.3269 18.3919 42.2362 22.3269 40.1725 25.7659C38.1088 29.2049 35.1496 32.0186 31.6111 33.9066L29.5 35.0312L27.3889 33.9066C23.8504 32.0186 20.8912 29.2049 18.8275 25.7659C16.7638 22.3269 15.6731 18.3919 15.6719 14.3813V2.76562L16.9809 3.51234C18.5621 4.41554 20.3416 4.91497 22.1618 4.96643C23.982 5.01788 25.7869 4.61977 27.4166 3.80734L29.5 2.76562L31.5834 3.80734C33.2115 4.61984 35.0148 5.01802 36.8336 4.96656C38.6524 4.9151 40.4304 4.41559 42.0098 3.51234L43.3281 2.76562Z" fill="#92278F"></path><path d="M36.5256 8.66507C34.2372 8.66223 31.9805 8.12961 29.9324 7.10895L29.5 6.8877L29.0741 7.10157C27.024 8.12359 24.7651 8.65685 22.4744 8.65954C21.4272 8.6596 20.383 8.54804 19.3594 8.32674V14.3807C19.3556 17.7232 20.2624 21.0037 21.9822 23.8698C23.702 26.736 26.17 29.0796 29.1211 30.649L29.5 30.8509L29.8798 30.649C32.8306 29.0792 35.2982 26.7355 37.0178 23.8694C38.7375 21.0033 39.6442 17.7231 39.6406 14.3807V8.32766C38.6172 8.55031 37.573 8.66341 36.5256 8.66507Z" fill="#92278F"></path><path d="M36.5256 8.66553C36.3348 8.66553 36.144 8.6388 35.9531 8.63142V14.3812C35.9554 17.4329 35.1982 20.4373 33.7497 23.1235C32.3013 25.8096 30.2073 28.0931 27.6562 29.7682C28.1301 30.0798 28.6141 30.3794 29.1211 30.6495L29.5 30.8514L29.8798 30.6495C32.8306 29.0797 35.2982 26.7359 37.0178 23.8699C38.7375 21.0038 39.6442 17.7235 39.6406 14.3812V8.32812C38.6172 8.55077 37.573 8.66387 36.5256 8.66553Z" fill="#9B2066"></path><path d="M31.3438 48.8594H47.9375V51.625H31.3438V48.8594Z" fill="white"></path><path d="M11.0625 48.8594H27.6562V51.625H11.0625V48.8594Z" fill="white"></path><path d="M54.0044 19.2874C53.0568 19.1096 52.077 19.3011 51.2662 19.8228C50.4553 20.3444 49.8749 21.1566 49.6439 22.0927L47.4664 30.2052C46.8957 29.8276 46.231 29.6167 45.547 29.5962C44.863 29.5756 44.1869 29.7463 43.5946 30.089L37.2908 33.7867C36.0444 34.5204 35.0105 35.5661 34.291 36.8208C33.5715 38.0755 33.1912 39.4959 33.1875 40.9423V47.9375H31.3438C31.0993 47.9375 30.8648 48.0346 30.6919 48.2075C30.519 48.3804 30.4219 48.6148 30.4219 48.8593V56.2343C30.4219 56.4788 30.519 56.7133 30.6919 56.8862C30.8648 57.0591 31.0993 57.1562 31.3438 57.1562H47.9375C48.182 57.1562 48.4165 57.0591 48.5894 56.8862C48.7623 56.7133 48.8594 56.4788 48.8594 56.2343V48.8593C48.8594 48.6148 48.7623 48.3804 48.5894 48.2075C48.4165 48.0346 48.182 47.9375 47.9375 47.9375H46.0938V46.8681C46.0937 46.4692 46.1799 46.0749 46.3465 45.7124C46.5131 45.3499 46.7561 45.0278 47.059 44.7681L51.3577 41.0806C52.0638 40.4768 52.5703 39.6733 52.8105 38.7759L56.8106 23.8489C56.8945 23.5359 56.9364 23.2132 56.935 22.8892C56.9305 22.0447 56.6374 21.227 56.1043 20.5719C55.5713 19.9168 54.8303 19.4636 54.0044 19.2874ZM47.0156 55.3125H32.2656V49.7812H47.0156V55.3125ZM55.0304 23.3704L51.0295 38.2993C50.8859 38.8378 50.5821 39.32 50.1583 39.6821L45.8596 43.3696C45.3549 43.8022 44.9498 44.3388 44.6719 44.9427C44.3941 45.5466 44.2502 46.2034 44.25 46.8681V47.9375H35.0313V40.9423C35.0336 39.8175 35.3288 38.7128 35.8877 37.7368C36.4467 36.7608 37.2502 35.9472 38.2191 35.376L44.5155 31.682C44.796 31.5209 45.1139 31.436 45.4374 31.4359C45.7796 31.4329 46.1157 31.5264 46.4071 31.7058C46.6985 31.8851 46.9334 32.1431 47.0848 32.45C47.2864 32.8956 47.3118 33.401 47.156 33.8646C47.0003 34.3283 46.6747 34.7157 46.2449 34.9492L41.0824 37.9241C40.9775 37.9846 40.8855 38.0652 40.8117 38.1613C40.7379 38.2574 40.6837 38.3671 40.6523 38.4841C40.6209 38.6011 40.6128 38.7232 40.6286 38.8433C40.6443 38.9635 40.6836 39.0793 40.7441 39.1843C40.8046 39.2892 40.8853 39.3812 40.9813 39.455C41.0774 39.5289 41.1871 39.583 41.3041 39.6144C41.4212 39.6458 41.5432 39.6539 41.6634 39.6381C41.7835 39.6224 41.8994 39.5831 42.0043 39.5226L47.1668 36.5477C47.9401 36.1167 48.5368 35.4269 48.8519 34.5996C49.1671 33.7722 49.1805 32.8603 48.8898 32.0241L51.4259 22.5748C51.5408 22.0978 51.8309 21.6814 52.2385 21.4082C52.6461 21.135 53.1415 21.0249 53.6264 21.0998C54.0377 21.1874 54.4068 21.4124 54.6731 21.7378C54.9394 22.0633 55.0869 22.4697 55.0913 22.8901C55.0925 23.0522 55.072 23.2138 55.0304 23.3704Z" fill="#231F20"></path><path d="M27.6563 47.9368H25.8125V40.9416C25.8095 39.4956 25.4299 38.0753 24.7112 36.8204C23.9926 35.5656 22.9596 34.5195 21.7139 33.7851L15.4027 30.0829C14.8099 29.7411 14.1337 29.5713 13.4497 29.5925C12.7658 29.6136 12.1014 29.8249 11.5308 30.2027L9.3543 22.0902C9.12213 21.1545 8.54114 20.3428 7.73021 19.8213C6.91928 19.2998 5.93973 19.108 4.99199 19.2849C4.50191 19.3885 4.03802 19.5906 3.62852 19.8791C3.21903 20.1675 2.8725 20.5363 2.61 20.9629C2.3475 21.3895 2.17453 21.865 2.10161 22.3606C2.02868 22.8561 2.05733 23.3613 2.1858 23.8455L6.18674 38.7743C6.42621 39.6718 6.93252 40.4755 7.63869 41.079L11.9374 44.7665C12.241 45.026 12.4848 45.3481 12.6521 45.7108C12.8193 46.0735 12.9061 46.4681 12.9063 46.8674V47.9368H11.0625C10.818 47.9368 10.5836 48.0339 10.4107 48.2068C10.2378 48.3797 10.1407 48.6142 10.1407 48.8587V56.2337C10.1407 56.4782 10.2378 56.7127 10.4107 56.8856C10.5836 57.0584 10.818 57.1556 11.0625 57.1556H27.6563C27.9008 57.1556 28.1353 57.0584 28.3081 56.8856C28.481 56.7127 28.5782 56.4782 28.5782 56.2337V48.8587C28.5782 48.6142 28.481 48.3797 28.3081 48.2068C28.1353 48.0339 27.9008 47.9368 27.6563 47.9368ZM13.1404 43.3671L8.84174 39.6796C8.41765 39.3178 8.11378 38.8355 7.97056 38.2968L3.96963 23.3689C3.92808 23.2125 3.90762 23.0513 3.90878 22.8895C3.9114 22.4673 4.05829 22.0588 4.32508 21.7316C4.59186 21.4045 4.96251 21.1784 5.37549 21.0909C5.86034 21.0166 6.35542 21.1269 6.76287 21.4001C7.17031 21.6732 7.46047 22.0892 7.576 22.5659L10.1121 32.0142C9.82118 32.8506 9.83446 33.7627 10.1496 34.5903C10.4647 35.4178 11.0615 36.1077 11.8351 36.5388L16.9976 39.5136C17.2095 39.6359 17.4614 39.6689 17.6977 39.6055C17.9341 39.542 18.1355 39.3873 18.2578 39.1753C18.38 38.9633 18.413 38.7115 18.3496 38.4751C18.2862 38.2388 18.1314 38.0374 17.9194 37.9151L12.7569 34.9402C12.327 34.7069 12.0013 34.3195 11.8453 33.8559C11.6893 33.3923 11.7147 32.8868 11.9162 32.441C12.0688 32.1363 12.3038 31.8806 12.5946 31.7028C12.8853 31.525 13.22 31.4323 13.5608 31.4353C13.8821 31.4346 14.198 31.5178 14.4772 31.6768L20.7809 35.3763C21.7499 35.9472 22.5535 36.7606 23.1124 37.7365C23.6714 38.7123 23.9666 39.817 23.9688 40.9416V47.9368H14.75V46.8674C14.7501 46.2024 14.6063 45.5452 14.3285 44.941C14.0507 44.3368 13.6454 43.7999 13.1404 43.3671ZM26.7344 55.3118H11.9844V49.7806H26.7344V55.3118Z" fill="#231F20"></path><path d="M44.25 14.3811V2.76549C44.2503 2.60352 44.208 2.44431 44.1272 2.30392C44.0464 2.16352 43.9301 2.04689 43.7899 1.96576C43.6497 1.88463 43.4906 1.84188 43.3286 1.8418C43.1666 1.84172 43.0075 1.88432 42.8672 1.96531L41.5535 2.71571C40.1049 3.54554 38.4736 4.00414 36.8048 4.05062C35.136 4.09711 33.4816 3.73004 31.9891 2.98213L29.9047 1.94042C29.7768 1.87648 29.6357 1.84319 29.4926 1.84319C29.3496 1.84319 29.2085 1.87648 29.0806 1.94042L27.0109 2.97845C25.5182 3.72765 23.8633 4.09567 22.1937 4.04967C20.5242 4.00366 18.892 3.54506 17.4428 2.71479L16.1328 1.96531C15.9925 1.88432 15.8334 1.84172 15.6714 1.8418C15.5095 1.84188 15.3504 1.88463 15.2102 1.96576C15.07 2.04689 14.9536 2.16352 14.8728 2.30392C14.7921 2.44431 14.7497 2.60352 14.75 2.76549V14.3811C14.7455 18.5591 15.8789 22.6595 18.0284 26.2422C20.1779 29.8248 23.2625 32.7545 26.951 34.7168L29.0658 35.8442C29.1994 35.9156 29.3485 35.9529 29.5 35.9529C29.6515 35.9529 29.8006 35.9156 29.9342 35.8442L32.049 34.7168C35.7377 32.7546 38.8223 29.825 40.9719 26.2423C43.1214 22.6596 44.2547 18.5592 44.25 14.3811ZM29.5 33.9866L27.8194 33.0897C24.4258 31.2845 21.5879 28.5893 19.6102 25.2933C17.6325 21.9973 16.5897 18.2249 16.5938 14.3811V4.35388C18.301 5.31778 20.219 5.84715 22.179 5.89538C24.1389 5.9436 26.0807 5.50921 27.8333 4.63045L29.4926 3.80076L31.1649 4.63598C32.9182 5.5143 34.8605 5.94797 36.8208 5.89877C38.7811 5.84958 40.6993 5.31904 42.4063 4.35388V14.3811C42.4105 18.225 41.3678 21.9974 39.3901 25.2935C37.4124 28.5895 34.5743 31.2847 31.1806 33.0897L29.5 33.9866Z" fill="#231F20"></path><path d="M40.5625 8.32758C40.5626 8.18997 40.5318 8.05408 40.4725 7.9299C40.4133 7.80571 40.3269 7.69637 40.2198 7.60991C40.1128 7.52345 39.9877 7.46205 39.8538 7.43023C39.72 7.3984 39.5806 7.39695 39.4461 7.42599C36.3698 8.08177 33.1622 7.67793 30.3445 6.2801L29.9093 6.06346C29.7807 5.99862 29.6386 5.96484 29.4945 5.96484C29.3504 5.96484 29.2083 5.99862 29.0796 6.06346L28.6537 6.27641C25.8356 7.67616 22.6268 8.081 19.5493 7.42507C19.4151 7.39682 19.2763 7.39886 19.143 7.43105C19.0097 7.46324 18.8852 7.52477 18.7787 7.61115C18.6722 7.69752 18.5863 7.80657 18.5273 7.93036C18.4683 8.05414 18.4376 8.18953 18.4375 8.32666V14.3806C18.4336 17.8902 19.3856 21.3345 21.1913 24.3439C22.9971 27.3533 25.5883 29.8141 28.6869 31.462L29.0658 31.6648C29.1993 31.736 29.3483 31.7733 29.4996 31.7733C29.6508 31.7733 29.7998 31.736 29.9333 31.6648L30.3131 31.462C33.4117 29.8141 36.003 27.3533 37.8087 24.3439C39.6144 21.3345 40.5664 17.8902 40.5625 14.3806V8.32758ZM38.7188 14.3806C38.7222 17.5455 37.8665 20.6519 36.243 23.3686C34.6194 26.0853 32.2889 28.3103 29.5 29.8064C26.7111 28.3103 24.3806 26.0853 22.757 23.3686C21.1335 20.6519 20.2778 17.5455 20.2813 14.3806V9.42738C23.4297 9.86432 26.6367 9.3416 29.4834 7.92749L29.5 7.91827L29.5221 7.93025C32.3671 9.34378 35.5723 9.86589 38.7188 9.4283V14.3806Z" fill="white"></path><path d="M34.715 12.84L27.6562 19.8988L24.7781 17.0207C24.6043 16.8528 24.3714 16.7599 24.1297 16.762C23.888 16.7641 23.6568 16.861 23.4858 17.032C23.3149 17.2029 23.218 17.4341 23.2159 17.6758C23.2138 17.9175 23.3067 18.1504 23.4746 18.3243L27.0045 21.8541C27.1773 22.0269 27.4118 22.124 27.6562 22.124C27.9007 22.124 28.1351 22.0269 28.308 21.8541L36.0186 14.1436C36.1066 14.0585 36.1768 13.9568 36.2251 13.8443C36.2735 13.7319 36.2989 13.6109 36.3 13.4885C36.301 13.3661 36.2777 13.2447 36.2313 13.1314C36.185 13.0181 36.1165 12.9152 36.03 12.8286C35.9434 12.742 35.8405 12.6736 35.7272 12.6272C35.6139 12.5809 35.4925 12.5576 35.3701 12.5586C35.2477 12.5597 35.1267 12.5851 35.0143 12.6334C34.9018 12.6818 34.8001 12.752 34.715 12.84Z" fill="white"></path></svg> 