<?xml version="1.0" encoding="UTF-8"?> <svg xmlns="http://www.w3.org/2000/svg" width="59" height="59" viewBox="0 0 59 59" fill="none"><g clip-path="url(#clip0)"><path d="M26.5655 23.6262C26.5655 30.6809 20.8465 36.3999 13.7918 36.3999C6.73706 36.3999 1.01807 30.6809 1.01807 23.6262C1.01807 16.5715 6.73706 10.8525 13.7918 10.8525C20.8465 10.8525 26.5655 16.5715 26.5655 23.6262Z" fill="#92278F"></path><path d="M58.0084 30.5044C58.0084 41.358 49.2102 50.1562 38.3566 50.1562C27.5034 50.1562 18.7047 41.358 18.7047 30.5044C18.7047 19.6512 27.5034 10.8525 38.3566 10.8525C49.2102 10.8525 58.0084 19.6512 58.0084 30.5044Z" fill="white"></path><path d="M11.8265 49.1739C9.11481 49.171 6.91693 46.9731 6.91357 44.2609C6.91357 43.7183 7.35353 43.2783 7.89617 43.2783C8.4388 43.2783 8.87876 43.7183 8.87876 44.2609C8.87876 45.8893 10.1986 47.2087 11.8265 47.2087C12.3692 47.2087 12.8091 47.6487 12.8091 48.1913C12.8091 48.7339 12.3692 49.1739 11.8265 49.1739Z" fill="#4F83D1"></path><path d="M11.8265 49.1739C9.11481 49.171 6.91693 46.9731 6.91357 44.2609C6.91357 43.7183 7.35353 43.2783 7.89617 43.2783C8.4388 43.2783 8.87876 43.7183 8.87876 44.2609C8.87876 45.8893 10.1986 47.2087 11.8265 47.2087C12.3692 47.2087 12.8091 47.6487 12.8091 48.1913C12.8091 48.7339 12.3692 49.1739 11.8265 49.1739Z" fill="#4F83D1"></path><path d="M3.96587 49.1739C3.42324 49.1739 2.98328 48.7339 2.98328 48.1913C2.98328 47.6487 3.42324 47.2087 3.96587 47.2087C5.59377 47.2087 6.91364 45.8893 6.91364 44.2609C6.91364 43.7183 7.3536 43.2783 7.89624 43.2783C8.43887 43.2783 8.87883 43.7183 8.87883 44.2609C8.87547 46.9731 6.67807 49.171 3.96587 49.1739Z" fill="#4F83D1"></path><path d="M7.89617 53.1036C7.35353 53.1036 6.91357 52.6636 6.91357 52.121C6.91693 49.4092 9.11481 47.2114 11.8265 47.208C12.3692 47.208 12.8091 47.648 12.8091 48.1906C12.8091 48.7332 12.3692 49.1732 11.8265 49.1732C10.1986 49.1732 8.87876 50.4931 8.87876 52.121C8.87876 52.6636 8.4388 53.1036 7.89617 53.1036Z" fill="#4F83D1"></path><path d="M7.89617 53.1036C7.35353 53.1036 6.91357 52.6636 6.91357 52.121C6.91693 49.4092 9.11481 47.2114 11.8265 47.208C12.3692 47.208 12.8091 47.648 12.8091 48.1906C12.8091 48.7332 12.3692 49.1732 11.8265 49.1732C10.1986 49.1732 8.87876 50.4931 8.87876 52.121C8.87876 52.6636 8.4388 53.1036 7.89617 53.1036Z" fill="#4F83D1"></path><path d="M7.89624 53.1036C7.3536 53.1036 6.91364 52.6636 6.91364 52.121C6.91364 50.4931 5.59377 49.1732 3.96587 49.1732C3.42324 49.1732 2.98328 48.7332 2.98328 48.1906C2.98328 47.648 3.42324 47.208 3.96587 47.208C6.67807 47.2114 8.87547 49.4092 8.87883 52.121C8.87883 52.6636 8.43887 53.1036 7.89624 53.1036Z" fill="#4F83D1"></path><path d="M53.0955 5.9395C50.3837 5.93662 48.1859 3.73874 48.1825 1.02654C48.1825 0.483905 48.6225 0.0439453 49.1651 0.0439453C49.7077 0.0439453 50.1477 0.483905 50.1477 1.02654C50.1477 2.65491 51.4676 3.97431 53.0955 3.97431C53.6381 3.97431 54.0781 4.41427 54.0781 4.9569C54.0781 5.49954 53.6381 5.9395 53.0955 5.9395Z" fill="#4F83D1"></path><path d="M53.0955 5.9395C50.3837 5.93662 48.1859 3.73874 48.1825 1.02654C48.1825 0.483905 48.6225 0.0439453 49.1651 0.0439453C49.7077 0.0439453 50.1477 0.483905 50.1477 1.02654C50.1477 2.65491 51.4676 3.97431 53.0955 3.97431C53.6381 3.97431 54.0781 4.41427 54.0781 4.9569C54.0781 5.49954 53.6381 5.9395 53.0955 5.9395Z" fill="#4F83D1"></path><path d="M45.2348 5.9395C44.6922 5.9395 44.2522 5.49954 44.2522 4.9569C44.2522 4.41427 44.6922 3.97431 45.2348 3.97431C46.8627 3.97431 48.1826 2.65491 48.1826 1.02654C48.1826 0.483905 48.6225 0.0439453 49.1652 0.0439453C49.7078 0.0439453 50.1478 0.483905 50.1478 1.02654C50.1444 3.73874 47.947 5.93662 45.2348 5.9395Z" fill="#4F83D1"></path><path d="M49.1651 9.87016C48.6225 9.87016 48.1825 9.4302 48.1825 8.88757C48.1859 6.17585 50.3837 3.97797 53.0955 3.97461C53.6381 3.97461 54.0781 4.41457 54.0781 4.9572C54.0781 5.49983 53.6381 5.93979 53.0955 5.93979C51.4676 5.93979 50.1477 7.25967 50.1477 8.88757C50.1477 9.4302 49.7077 9.87016 49.1651 9.87016Z" fill="#4F83D1"></path><path d="M49.1651 9.87016C48.6225 9.87016 48.1825 9.4302 48.1825 8.88757C48.1859 6.17585 50.3837 3.97797 53.0955 3.97461C53.6381 3.97461 54.0781 4.41457 54.0781 4.9572C54.0781 5.49983 53.6381 5.93979 53.0955 5.93979C51.4676 5.93979 50.1477 7.25967 50.1477 8.88757C50.1477 9.4302 49.7077 9.87016 49.1651 9.87016Z" fill="#4F83D1"></path><path d="M49.1652 9.87016C48.6225 9.87016 48.1826 9.4302 48.1826 8.88757C48.1826 7.25967 46.8627 5.93979 45.2348 5.93979C44.6922 5.93979 44.2522 5.49983 44.2522 4.9572C44.2522 4.41457 44.6922 3.97461 45.2348 3.97461C47.947 3.97797 50.1444 6.17585 50.1478 8.88757C50.1478 9.4302 49.7078 9.87016 49.1652 9.87016Z" fill="#4F83D1"></path><path d="M51.1302 32.4698C48.4185 32.4669 46.2206 30.269 46.2173 27.5568C46.2173 27.0142 46.6572 26.5742 47.1999 26.5742C47.7425 26.5742 48.1825 27.0142 48.1825 27.5568C48.1825 29.1852 49.5024 30.5046 51.1302 30.5046C51.6729 30.5046 52.1128 30.9446 52.1128 31.4872C52.1128 32.0298 51.6729 32.4698 51.1302 32.4698Z" fill="#E6F1FD"></path><path d="M51.1302 32.4698C48.4185 32.4669 46.2206 30.269 46.2173 27.5568C46.2173 27.0142 46.6572 26.5742 47.1999 26.5742C47.7425 26.5742 48.1825 27.0142 48.1825 27.5568C48.1825 29.1852 49.5024 30.5046 51.1302 30.5046C51.6729 30.5046 52.1128 30.9446 52.1128 31.4872C52.1128 32.0298 51.6729 32.4698 51.1302 32.4698Z" fill="#E6F1FD"></path><path d="M43.2696 32.4698C42.7269 32.4698 42.287 32.0298 42.287 31.4872C42.287 30.9446 42.7269 30.5046 43.2696 30.5046C44.8975 30.5046 46.2173 29.1852 46.2173 27.5568C46.2173 27.0142 46.6573 26.5742 47.1999 26.5742C47.7426 26.5742 48.1825 27.0142 48.1825 27.5568C48.1792 30.269 45.9818 32.4669 43.2696 32.4698Z" fill="#E6F1FD"></path><path d="M47.1999 36.4004C46.6572 36.4004 46.2173 35.9605 46.2173 35.4178C46.2206 32.7061 48.4185 30.5082 51.1302 30.5049C51.6729 30.5049 52.1128 30.9448 52.1128 31.4875C52.1128 32.0301 51.6729 32.4701 51.1302 32.4701C49.5024 32.4701 48.1825 33.7899 48.1825 35.4178C48.1825 35.9605 47.7425 36.4004 47.1999 36.4004Z" fill="#E6F1FD"></path><path d="M47.1999 36.4004C46.6572 36.4004 46.2173 35.9605 46.2173 35.4178C46.2206 32.7061 48.4185 30.5082 51.1302 30.5049C51.6729 30.5049 52.1128 30.9448 52.1128 31.4875C52.1128 32.0301 51.6729 32.4701 51.1302 32.4701C49.5024 32.4701 48.1825 33.7899 48.1825 35.4178C48.1825 35.9605 47.7425 36.4004 47.1999 36.4004Z" fill="#E6F1FD"></path><path d="M47.1999 36.4004C46.6573 36.4004 46.2173 35.9605 46.2173 35.4178C46.2173 33.7899 44.8975 32.4701 43.2696 32.4701C42.7269 32.4701 42.287 32.0301 42.287 31.4875C42.287 30.9448 42.7269 30.5049 43.2696 30.5049C45.9818 30.5082 48.1792 32.7061 48.1825 35.4178C48.1825 35.9605 47.7426 36.4004 47.1999 36.4004Z" fill="#E6F1FD"></path><path d="M39.3392 23.626C36.6275 23.6232 34.4296 21.4253 34.4263 18.7131C34.4263 18.1704 34.8662 17.7305 35.4089 17.7305C35.9515 17.7305 36.3915 18.1704 36.3915 18.7131C36.3915 20.3414 37.7113 21.6608 39.3392 21.6608C39.8819 21.6608 40.3218 22.1008 40.3218 22.6434C40.3218 23.1861 39.8819 23.626 39.3392 23.626Z" fill="#E6F1FD"></path><path d="M39.3392 23.626C36.6275 23.6232 34.4296 21.4253 34.4263 18.7131C34.4263 18.1704 34.8662 17.7305 35.4089 17.7305C35.9515 17.7305 36.3915 18.1704 36.3915 18.7131C36.3915 20.3414 37.7113 21.6608 39.3392 21.6608C39.8819 21.6608 40.3218 22.1008 40.3218 22.6434C40.3218 23.1861 39.8819 23.626 39.3392 23.626Z" fill="#E6F1FD"></path><path d="M31.4784 23.626C30.9358 23.626 30.4958 23.1861 30.4958 22.6434C30.4958 22.1008 30.9358 21.6608 31.4784 21.6608C33.1063 21.6608 34.4262 20.3414 34.4262 18.7131C34.4262 18.1704 34.8662 17.7305 35.4088 17.7305C35.9514 17.7305 36.3914 18.1704 36.3914 18.7131C36.388 21.4253 34.1906 23.6232 31.4784 23.626Z" fill="#E6F1FD"></path><path d="M35.4089 27.5567C34.8662 27.5567 34.4263 27.1167 34.4263 26.5741C34.4296 23.8624 36.6275 21.6645 39.3392 21.6611C39.8819 21.6611 40.3218 22.1011 40.3218 22.6437C40.3218 23.1864 39.8819 23.6263 39.3392 23.6263C37.7113 23.6263 36.3915 24.9462 36.3915 26.5741C36.3915 27.1167 35.9515 27.5567 35.4089 27.5567Z" fill="#E6F1FD"></path><path d="M35.4089 27.5567C34.8662 27.5567 34.4263 27.1167 34.4263 26.5741C34.4296 23.8624 36.6275 21.6645 39.3392 21.6611C39.8819 21.6611 40.3218 22.1011 40.3218 22.6437C40.3218 23.1864 39.8819 23.6263 39.3392 23.6263C37.7113 23.6263 36.3915 24.9462 36.3915 26.5741C36.3915 27.1167 35.9515 27.5567 35.4089 27.5567Z" fill="#E6F1FD"></path><path d="M35.4088 27.5567C34.8662 27.5567 34.4262 27.1167 34.4262 26.5741C34.4262 24.9462 33.1063 23.6263 31.4784 23.6263C30.9358 23.6263 30.4958 23.1864 30.4958 22.6437C30.4958 22.1011 30.9358 21.6611 31.4784 21.6611C34.1906 21.6645 36.388 23.8624 36.3914 26.5741C36.3914 27.1167 35.9514 27.5567 35.4088 27.5567Z" fill="#E6F1FD"></path><path d="M11.8267 40.3301H13.7918V42.2953H11.8267V40.3301Z" fill="#FCEC97"></path><path d="M2.00073 54.0869H3.96592V56.0521H2.00073V54.0869Z" fill="#FCEC97"></path><path d="M57.0258 51.139C57.0258 52.2248 56.1459 53.1042 55.0606 53.1042C53.9754 53.1042 53.0955 52.2248 53.0955 51.139C53.0955 50.0538 53.9754 49.1738 55.0606 49.1738C56.1459 49.1738 57.0258 50.0538 57.0258 51.139Z" fill="#9B2066"></path><path d="M28.5307 6.92239C28.5307 8.55076 27.2108 9.87016 25.5829 9.87016C23.955 9.87016 22.6351 8.55076 22.6351 6.92239C22.6351 5.29449 23.955 3.97461 25.5829 3.97461C27.2108 3.97461 28.5307 5.29449 28.5307 6.92239Z" fill="#9B2066"></path><path d="M35.4088 4.95703H37.374V6.92222H35.4088V4.95703Z" fill="#FCEC97"></path><path d="M39.3392 41.3125H41.3044V43.2777H39.3392V41.3125Z" fill="#E6F1FD"></path><path d="M45.2347 54.0869H47.1999V56.0521H45.2347V54.0869Z" fill="#FCEC97"></path><path d="M11.8267 25.5918H13.7918V27.557H11.8267V25.5918Z" fill="#E6F1FD"></path><path d="M3.96583 25.68C3.9452 25.454 3.49708 20.0867 6.66892 16.6145C8.52135 14.6853 11.1213 13.6581 13.7917 13.8001V15.7653C11.6769 15.6357 9.60902 16.4288 8.12314 17.9401C5.53136 20.7766 5.92238 25.4559 5.93101 25.5029L3.96583 25.68Z" fill="#E6F1FD"></path><path d="M53.1047 29.6523C51.2805 15.9756 39.8238 15.766 39.3392 15.766V13.8008C39.476 13.8008 52.9972 13.9797 55.0521 29.3927L53.1047 29.6523Z" fill="#E6F1FD"></path><path d="M35.4088 48.1911C35.4088 53.6179 31.0097 58.0171 25.5829 58.0171C20.1561 58.0171 15.757 53.6179 15.757 48.1911C15.757 42.7648 20.1561 38.3652 25.5829 38.3652C31.0097 38.3652 35.4088 42.7648 35.4088 48.1911Z" fill="#92278F"></path><path d="M38.3567 9.87078C33.2734 9.86454 28.3695 11.7506 24.6004 15.1613C20.2555 9.5949 12.4019 8.22177 6.42673 11.9847C0.451056 15.7471 -1.70508 23.4227 1.43701 29.7467C4.57909 36.0702 11.9989 38.9877 18.6065 36.4982C18.8852 37.4131 19.2297 38.3065 19.6365 39.172C15.6179 41.8175 13.8336 46.8015 15.2595 51.3963C16.6854 55.9907 20.978 59.0891 25.7878 58.9951C30.5981 58.9011 34.766 55.6376 36.0115 50.9904C43.6151 51.8665 51.0785 48.4605 55.3994 42.1428C59.7199 35.825 60.1872 27.6342 56.6128 20.8659C53.0384 14.0976 46.0106 9.86502 38.3567 9.87078ZM2.00075 23.6271C1.99259 18.5558 5.23352 14.0497 10.0438 12.4438C14.8541 10.838 20.1523 12.4937 23.1922 16.5527C19.6706 20.3449 17.7165 25.3303 17.7222 30.5052C17.7251 31.8721 17.8633 33.2347 18.1339 34.5742C14.5058 36.0285 10.3916 35.5847 7.15696 33.3897C3.92227 31.1951 1.99019 27.5363 2.00075 23.6271ZM25.583 57.0352C20.6988 57.0352 16.7396 53.076 16.7396 48.1919C16.7396 43.3082 20.6988 39.3485 25.583 39.3485C30.4671 39.3485 34.4263 43.3082 34.4263 48.1919C34.421 53.0736 30.4647 57.0299 25.583 57.0352ZM38.3567 49.1745C37.6854 49.1697 37.0152 49.1289 36.3483 49.0516C36.3708 48.7676 36.3915 48.4821 36.3915 48.1919C36.3915 44.5681 34.5745 41.1851 31.5538 39.183C28.5327 37.1809 24.7093 36.8263 21.3714 38.2383C20.883 37.178 20.4973 36.0736 20.22 34.9398C19.8668 33.488 19.6879 31.9992 19.6874 30.5052C19.6874 20.1947 28.0462 11.836 38.3567 11.836C48.6676 11.836 57.0259 20.1947 57.0259 30.5052C57.0259 40.8162 48.6676 49.1745 38.3567 49.1745Z" fill="black"></path><path d="M8.87883 44.2609C8.87883 43.7183 8.43887 43.2783 7.89624 43.2783C7.3536 43.2783 6.91364 43.7183 6.91364 44.2609C6.91364 45.8893 5.59377 47.2087 3.96587 47.2087C3.42324 47.2087 2.98328 47.6487 2.98328 48.1913C2.98328 48.7339 3.42324 49.1739 3.96587 49.1739C5.59377 49.1739 6.91364 50.4938 6.91364 52.1217C6.91364 52.6643 7.3536 53.1043 7.89624 53.1043C8.43887 53.1043 8.87883 52.6643 8.87883 52.1217C8.87883 50.4938 10.1987 49.1739 11.8266 49.1739C12.3692 49.1739 12.8092 48.7339 12.8092 48.1913C12.8092 47.6487 12.3692 47.2087 11.8266 47.2087C10.1987 47.2087 8.87883 45.8893 8.87883 44.2609ZM7.89624 49.2046C7.61029 48.8188 7.26868 48.4777 6.88342 48.1913C7.26868 47.9053 7.61029 47.5637 7.89624 47.1785C8.18267 47.5637 8.52379 47.9053 8.90953 48.1913C8.52379 48.4777 8.18267 48.8188 7.89624 49.2046Z" fill="black"></path><path d="M48.1826 8.88727C48.1826 9.4299 48.6225 9.86986 49.1652 9.86986C49.7078 9.86986 50.1477 9.4299 50.1477 8.88727C50.1477 7.25938 51.4676 5.9395 53.0955 5.9395C53.6382 5.9395 54.0781 5.49954 54.0781 4.9569C54.0781 4.41427 53.6382 3.97431 53.0955 3.97431C51.4676 3.97431 50.1477 2.65491 50.1477 1.02654C50.1477 0.483905 49.7078 0.0439453 49.1652 0.0439453C48.6225 0.0439453 48.1826 0.483905 48.1826 1.02654C48.1826 2.65491 46.8627 3.97431 45.2348 3.97431C44.6922 3.97431 44.2522 4.41427 44.2522 4.9569C44.2522 5.49954 44.6922 5.9395 45.2348 5.9395C46.8627 5.9395 48.1826 7.25938 48.1826 8.88727ZM49.1652 3.94409C49.4516 4.32935 49.7927 4.67096 50.1785 4.9569C49.7927 5.24333 49.4516 5.58446 49.1652 5.9702C48.8792 5.58446 48.5376 5.24333 48.1523 4.9569C48.5376 4.67096 48.8792 4.32935 49.1652 3.94409Z" fill="black"></path><path d="M51.1303 30.5046C49.5024 30.5046 48.1825 29.1852 48.1825 27.5568C48.1825 27.0142 47.7426 26.5742 47.1999 26.5742C46.6573 26.5742 46.2174 27.0142 46.2174 27.5568C46.2174 29.1852 44.8975 30.5046 43.2696 30.5046C42.7269 30.5046 42.287 30.9445 42.287 31.4872C42.287 32.0298 42.7269 32.4698 43.2696 32.4698C44.8975 32.4698 46.2174 33.7896 46.2174 35.4175C46.2174 35.9602 46.6573 36.4001 47.1999 36.4001C47.7426 36.4001 48.1825 35.9602 48.1825 35.4175C48.1825 33.7896 49.5024 32.4698 51.1303 32.4698C51.6729 32.4698 52.1129 32.0298 52.1129 31.4872C52.1129 30.9445 51.6729 30.5046 51.1303 30.5046ZM47.1999 32.5005C46.914 32.1147 46.5724 31.7736 46.1871 31.4872C46.5724 31.2012 46.914 30.8596 47.1999 30.4744C47.4864 30.8596 47.8275 31.2012 48.2132 31.4872C47.8275 31.7736 47.4864 32.1147 47.1999 32.5005Z" fill="black"></path><path d="M40.3218 22.6434C40.3218 22.1008 39.8818 21.6608 39.3392 21.6608C37.7113 21.6608 36.3914 20.3414 36.3914 18.7131C36.3914 18.1704 35.9514 17.7305 35.4088 17.7305C34.8662 17.7305 34.4262 18.1704 34.4262 18.7131C34.4262 20.3414 33.1063 21.6608 31.4784 21.6608C30.9358 21.6608 30.4958 22.1008 30.4958 22.6434C30.4958 23.1861 30.9358 23.626 31.4784 23.626C33.1063 23.626 34.4262 24.9459 34.4262 26.5738C34.4262 27.1164 34.8662 27.5564 35.4088 27.5564C35.9514 27.5564 36.3914 27.1164 36.3914 26.5738C36.3914 24.9459 37.7113 23.626 39.3392 23.626C39.8818 23.626 40.3218 23.1861 40.3218 22.6434ZM35.4088 23.6567C35.1229 23.271 34.7813 22.9299 34.396 22.6434C34.7813 22.3575 35.1229 22.0159 35.4088 21.6306C35.6952 22.0159 36.0364 22.3575 36.4221 22.6434C36.0364 22.9299 35.6952 23.271 35.4088 23.6567Z" fill="black"></path><path d="M11.8267 40.3301H13.7918V42.2953H11.8267V40.3301Z" fill="black"></path><path d="M2.00073 54.0869H3.96592V56.0521H2.00073V54.0869Z" fill="black"></path><path d="M58.0084 51.1392C58.0084 49.5113 56.6886 48.1914 55.0607 48.1914C53.4328 48.1914 52.1129 49.5113 52.1129 51.1392C52.1129 52.7676 53.4328 54.087 55.0607 54.087C56.6886 54.087 58.0084 52.7676 58.0084 51.1392ZM54.0781 51.1392C54.0781 50.5966 54.518 50.1566 55.0607 50.1566C55.6033 50.1566 56.0433 50.5966 56.0433 51.1392C56.0433 51.6818 55.6033 52.1218 55.0607 52.1218C54.518 52.1218 54.0781 51.6818 54.0781 51.1392Z" fill="black"></path><path d="M29.5133 6.92256C29.5133 4.75203 27.7535 2.99219 25.583 2.99219C23.4124 2.99219 21.6526 4.75203 21.6526 6.92256C21.6526 9.09357 23.4124 10.8529 25.583 10.8529C27.7535 10.8529 29.5133 9.09357 29.5133 6.92256ZM23.6178 6.92256C23.6178 5.83729 24.4977 4.95737 25.583 4.95737C26.6682 4.95737 27.5481 5.83729 27.5481 6.92256C27.5481 8.0083 26.6682 8.88774 25.583 8.88774C24.4977 8.88774 23.6178 8.0083 23.6178 6.92256Z" fill="black"></path><path d="M35.4088 4.95703H37.374V6.92222H35.4088V4.95703Z" fill="black"></path><path d="M39.3392 41.3125H41.3044V43.2777H39.3392V41.3125Z" fill="black"></path><path d="M45.2347 54.0869H47.1999V56.0521H45.2347V54.0869Z" fill="black"></path><path d="M11.8267 25.5918H13.7918V27.557H11.8267V25.5918Z" fill="white"></path><path d="M3.96581 25.6798L5.93099 25.5028C5.92619 25.4557 5.53805 20.7793 8.12695 17.9366C9.61235 16.4282 11.6783 15.6361 13.7917 15.7651V13.7999C11.1227 13.6589 8.52421 14.6861 6.67273 16.6143C3.5009 20.0889 3.94901 25.4538 3.96581 25.6798Z" fill="white"></path><path d="M39.3392 13.8008V15.766C39.8305 15.766 51.2829 15.9756 53.1066 29.6523L55.054 29.3927C52.9972 13.9797 39.476 13.8008 39.3392 13.8008Z" fill="black"></path></g><defs><clipPath id="clip0"><rect width="59" height="59" fill="white"></rect></clipPath></defs></svg> 