<svg width="21" height="21" viewBox="0 0 21 21" fill="none" xmlns="http://www.w3.org/2000/svg">
<g clip-path="url(#clip0)">
<path d="M19.5126 11.7075C20.116 6.62856 19.2227 3.42209 17.6115 1.97181L17.6123 1.97097C15.0118 -0.505718 6.22918 -0.872292 3.11794 2.0822C1.72075 3.52743 1.22862 5.6485 1.17468 8.27434C1.12075 10.901 1.05671 15.8215 5.64182 17.1564H5.64603L5.64182 19.1949C5.64182 19.1949 5.61064 20.0207 6.13817 20.1867C6.74154 20.3822 7.01457 19.9988 8.89126 17.7572C12.0295 18.0294 14.4396 17.4058 14.7135 17.3148C15.3472 17.1024 18.9328 16.628 19.5126 11.7075ZM9.20053 16.3229C9.20053 16.3229 7.21429 18.7996 6.5966 19.4426C6.39435 19.6516 6.17272 19.6322 6.17609 19.2176C6.17609 18.9454 6.19126 15.8333 6.19126 15.8333C2.3039 14.7193 2.53311 10.5294 2.57525 8.33755C2.61738 6.14485 3.0185 4.34906 4.20165 3.13979C6.93115 0.580519 14.6309 1.15271 16.5927 2.99653C18.991 5.12266 18.1373 11.1294 18.1424 11.3342C17.6494 15.4415 14.7438 15.7019 14.2095 15.8797C13.9811 15.9555 11.8618 16.5008 9.20053 16.3229V16.3229Z" fill="white"/>
<path d="M10.2995 3.62109C9.97504 3.62109 9.97504 4.12671 10.2995 4.13093C12.8166 4.15031 14.8896 5.9048 14.9124 9.12306C14.9124 9.46267 15.4096 9.45846 15.4054 9.11885H15.4045C15.3776 5.65115 13.1141 3.64048 10.2995 3.62109V3.62109Z" fill="white"/>
<path d="M13.6103 8.58935C13.6027 8.92474 14.0991 8.94075 14.1033 8.60115C14.1446 6.68907 12.9657 5.11407 10.7502 4.94806C10.4258 4.92446 10.3921 5.4343 10.7157 5.45789C12.637 5.60368 13.6491 6.91491 13.6103 8.58935V8.58935Z" fill="white"/>
<path d="M13.0795 10.7645C12.6632 10.5235 12.2393 10.6735 12.064 10.9103L11.6975 11.3847C11.5112 11.6258 11.1632 11.5937 11.1632 11.5937C8.62331 10.9221 7.9441 8.26424 7.9441 8.26424C7.9441 8.26424 7.91292 7.90441 8.14551 7.71143L8.60393 7.33222C8.83315 7.15019 8.97809 6.71199 8.74466 6.28137C8.12107 5.15469 7.70225 4.7662 7.48904 4.46789C7.26489 4.18727 6.92781 4.12407 6.57725 4.31368H6.56966C5.84073 4.74008 5.04269 5.53811 5.29803 6.35974C5.73371 7.22604 6.53427 9.98755 9.08595 12.0741C10.2851 13.0609 12.1829 14.0721 12.9885 14.3055L12.9961 14.3173C13.7899 14.5819 14.5618 13.7527 14.9739 13.0019V12.996C15.1567 12.6328 15.0961 12.289 14.8289 12.064C14.3553 11.6022 13.6407 11.0923 13.0795 10.7645Z" fill="white"/>
<path d="M11.0974 6.82922C11.9073 6.87641 12.3 7.29944 12.3421 8.16826C12.3573 8.50787 12.8502 8.48428 12.8351 8.14467C12.7811 7.0104 12.1896 6.37838 11.1244 6.31939C10.8 6.3 10.7696 6.80984 11.0974 6.82922V6.82922Z" fill="white"/>
</g>
<defs>
<clipPath id="clip0">
<rect width="20.2247" height="20.2247" fill="white"/>
</clipPath>
</defs>
</svg>
