<svg width="127" height="163" viewBox="0 0 127 163" fill="none" xmlns="http://www.w3.org/2000/svg">
<path d="M63.8265 36.5314C58.4817 36.5314 53.257 38.1163 48.813 41.0857C44.3689 44.0551 40.9052 48.2757 38.8599 53.2136C36.8145 58.1515 36.2794 63.5851 37.3221 68.8272C38.3648 74.0693 40.9386 78.8844 44.7179 82.6637C48.4972 86.4431 53.3124 89.0168 58.5545 90.0596C63.7966 91.1023 69.2301 90.5671 74.168 88.5217C79.106 86.4764 83.3265 83.0127 86.2959 78.5687C89.2653 74.1246 90.8502 68.8999 90.8502 63.5551C90.8422 56.3905 87.9924 49.5216 82.9263 44.4554C77.8601 39.3892 70.9912 36.5395 63.8265 36.5314ZM63.8265 84.5735C59.6695 84.5735 55.6058 83.3408 52.1493 81.0313C48.6929 78.7218 45.9989 75.4391 44.408 71.5985C42.8172 67.7579 42.401 63.5318 43.212 59.4546C44.023 55.3774 46.0248 51.6323 48.9643 48.6928C51.9037 45.7534 55.6489 43.7515 59.726 42.9405C63.8032 42.1295 68.0293 42.5458 71.8699 44.1366C75.7106 45.7274 78.9932 48.4214 81.3027 51.8779C83.6123 55.3344 84.845 59.3981 84.845 63.5551C84.8387 69.1276 82.6223 74.4701 78.6819 78.4105C74.7415 82.3509 69.399 84.5673 63.8265 84.5735V84.5735ZM63.8265 0.499817C47.109 0.518751 31.0817 7.16814 19.2606 18.9892C7.43955 30.8103 0.790167 46.8376 0.771233 63.5551C0.771233 86.3886 11.4087 110.691 31.5343 133.835C40.6451 144.361 50.8982 153.84 62.1046 162.099C62.6093 162.452 63.2104 162.642 63.8265 162.642C64.4426 162.642 65.0438 162.452 65.5485 162.099C76.7549 153.84 87.008 144.361 96.1188 133.835C116.244 110.691 126.882 86.3886 126.882 63.5551C126.863 46.8376 120.214 30.8103 108.392 18.9892C96.5714 7.16814 80.544 0.518751 63.8265 0.499817V0.499817ZM91.6786 129.789C83.292 139.407 73.9612 148.158 63.8265 155.912C53.6919 148.158 44.3611 139.407 35.9745 129.789C22.6547 114.447 6.7765 90.5011 6.7765 63.5551C6.7765 48.4245 12.7871 33.9136 23.4861 23.2146C34.185 12.5157 48.6959 6.50508 63.8265 6.50508C78.9571 6.50508 93.468 12.5157 104.167 23.2146C114.866 33.9136 120.877 48.4245 120.877 63.5551C120.877 90.5011 104.998 114.447 91.6786 129.789Z" fill="black"/>
</svg>
