<svg width="127" height="127" viewBox="0 0 127 127" fill="none" xmlns="http://www.w3.org/2000/svg">
<path d="M92.1123 126.111C41.3214 126.111 0 84.7894 0 33.9985C0.00820006 25.6762 3.04577 17.6415 8.54531 11.3953C14.0449 5.14905 21.6302 1.11849 29.8845 0.0564943C31.5801 -0.147302 33.2962 0.203519 34.7759 1.05645C36.2555 1.90938 37.4192 3.21856 38.0927 4.78805L51.3114 35.6305C51.8256 36.8271 52.0352 38.1324 51.9215 39.4298C51.8078 40.7273 51.3743 41.9763 50.6598 43.0651L39.7144 59.7894C39.4665 60.1604 39.3186 60.5892 39.2851 61.0342C39.2515 61.4792 39.3335 61.9253 39.523 62.3293H39.5236C44.7323 72.9553 53.3479 81.532 63.9974 86.6926C64.4038 86.8808 64.8521 86.9604 65.2985 86.9237C65.7449 86.887 66.1741 86.7352 66.5444 86.4831L83.0161 75.4991C84.108 74.7685 85.3653 74.3228 86.6736 74.2026C87.9818 74.0824 89.2993 74.2916 90.506 74.811L121.323 88.0181C122.892 88.6918 124.201 89.8554 125.054 91.3349C125.907 92.8143 126.258 94.5301 126.054 96.2257C124.992 104.48 120.962 112.066 114.716 117.565C108.469 123.065 100.435 126.103 92.1123 126.111V126.111ZM30.8572 5.25902C30.7526 5.25895 30.6481 5.2656 30.5443 5.27893C23.5608 6.178 17.1434 9.58872 12.491 14.8739C7.83867 20.1591 5.26952 26.9573 5.26356 33.9985C5.26356 81.8871 44.2237 120.847 92.1123 120.847C99.1536 120.841 105.952 118.272 111.237 113.619C116.522 108.967 119.933 102.549 120.832 95.5658C120.896 95.0038 120.776 94.4361 120.491 93.9477C120.206 93.4593 119.77 93.0764 119.249 92.8563L88.4332 79.6492C88.0308 79.4763 87.5915 79.4068 87.1553 79.4468C86.7192 79.4869 86.2999 79.6353 85.9357 79.8786L69.464 90.8625C68.3313 91.621 67.0211 92.0723 65.6617 92.1723C64.3022 92.2723 62.9401 92.0176 61.7087 91.4331C49.9971 85.7573 40.5221 76.325 34.7933 64.6392L34.794 64.6399C34.206 63.4158 33.9447 62.0605 34.0352 60.7055C34.1257 59.3506 34.565 58.0421 35.3106 56.9071L46.256 40.1828C46.4942 39.8196 46.6387 39.4031 46.6766 38.9704C46.7145 38.5377 46.6446 38.1024 46.4731 37.7033L33.2545 6.86211C33.0544 6.39055 32.7209 5.98767 32.295 5.7029C31.8692 5.41814 31.3695 5.26386 30.8572 5.25902V5.25902Z" fill="black"/>
</svg>
