<svg width="87" height="66" viewBox="0 0 87 66" fill="none" xmlns="http://www.w3.org/2000/svg">
<path d="M86.1484 1.60835C86.1456 1.54593 86.1393 1.48372 86.1297 1.42198C86.12 1.36739 86.1045 1.31554 86.09 1.26295C86.0759 1.20792 86.0591 1.15365 86.0395 1.10035C86.0174 1.04673 85.9927 0.994282 85.9652 0.943215C85.9408 0.895465 85.9177 0.847823 85.8887 0.802072C85.8535 0.749228 85.8155 0.698352 85.7749 0.649672C85.7511 0.619904 85.733 0.587207 85.7069 0.558692C85.6985 0.549645 85.6884 0.543549 85.68 0.534714C85.6344 0.489193 85.5863 0.446317 85.5359 0.406296C85.498 0.374528 85.4618 0.340138 85.4219 0.312162C85.3724 0.279793 85.3213 0.250027 85.2687 0.222986C85.2227 0.197426 85.1785 0.169029 85.1308 0.147997C85.0792 0.125277 85.0243 0.110552 84.9705 0.092885C84.9179 0.0757392 84.8666 0.0559658 84.8129 0.0439766C84.7624 0.0327241 84.7098 0.0290395 84.6579 0.0223104C84.597 0.012776 84.5356 0.0065922 84.474 0.00378633C84.4614 0.00347184 84.4496 0 84.4368 0H1.7232C1.71058 0 1.69922 0.00336502 1.68658 0.00367951C1.62254 0.0065832 1.55871 0.013008 1.49537 0.0229267C1.44615 0.0295524 1.39629 0.0329219 1.34855 0.0435411C1.29117 0.0581489 1.23458 0.0757015 1.179 0.096129C1.12936 0.112749 1.07846 0.126211 1.03092 0.147139C0.979592 0.169649 0.931833 0.200046 0.882408 0.227699C0.834236 0.254943 0.784616 0.279554 0.739158 0.311317C0.69772 0.340344 0.660067 0.375895 0.620731 0.409024C0.571624 0.448316 0.524649 0.4902 0.480006 0.534498C0.471592 0.543437 0.461481 0.549537 0.453081 0.558687C0.426996 0.587193 0.408906 0.619899 0.385135 0.649668C0.344442 0.69831 0.306452 0.749151 0.271335 0.80196C0.242308 0.847922 0.218958 0.895672 0.194558 0.943422C0.168279 0.994958 0.141759 1.04586 0.120517 1.10023C0.0998986 1.15377 0.0851905 1.20825 0.0700306 1.26315C0.055517 1.31574 0.0399483 1.36749 0.0302725 1.42197C0.0206734 1.48371 0.0144242 1.54592 0.0115537 1.60834C0.00904647 1.64705 0 1.68386 0 1.7232V60.312C0.00153135 61.6826 0.546676 62.9966 1.51583 63.9658C2.48499 64.9349 3.79901 65.4801 5.1696 65.4816H80.9904C82.361 65.4801 83.675 64.9349 84.6442 63.9658C85.6133 62.9966 86.1585 61.6826 86.16 60.312V1.7232C86.16 1.68386 86.151 1.64705 86.1484 1.60835ZM80.0066 3.4464L43.08 37.296L6.15341 3.4464H80.0066ZM80.9904 62.0352H5.1696C4.71273 62.0347 4.27471 61.853 3.95165 61.5299C3.62859 61.2069 3.44689 60.7689 3.4464 60.312V5.64058L41.9155 40.9039C42.2334 41.1952 42.6489 41.3568 43.08 41.3568C43.5112 41.3568 43.9266 41.1952 44.2445 40.9039L82.7136 5.64058V60.312C82.7131 60.7689 82.5314 61.2069 82.2084 61.5299C81.8853 61.853 81.4473 62.0347 80.9904 62.0352V62.0352Z" fill="black"/>
</svg>
