<?xml version="1.0" encoding="UTF-8"?> <svg xmlns="http://www.w3.org/2000/svg" width="30" height="30" viewBox="0 0 30 30" fill="none"><g clip-path="url(#clip0)"><path d="M29.1409 23.5338C30.2833 24.6762 30.2833 26.5347 29.1409 27.677C29.1393 27.6789 29.1375 27.6805 29.1357 27.6823L27.1311 29.6619C26.9027 29.8873 26.6052 29.9999 26.3079 29.9999C26.0053 29.9999 25.7031 29.8837 25.4738 29.6516C25.0192 29.1911 25.0238 28.449 25.4843 27.9943L26.6571 26.8359H7.85063C5.26587 26.8359 3.16314 24.7332 3.16314 22.1484V3.31352L1.99401 4.46708C1.53327 4.92164 0.791238 4.9166 0.336679 4.45586C-0.117879 3.99512 -0.112844 3.25309 0.347894 2.79853L2.32772 0.845488C3.46686 -0.27832 5.32034 -0.27832 6.45949 0.845488L8.43931 2.79853C8.90005 3.25309 8.90508 3.99512 8.45052 4.45586C8.22119 4.68818 7.91883 4.80468 7.61625 4.80468C7.31893 4.80468 7.02162 4.6923 6.79319 4.46708L5.50688 3.19793V22.1484C5.50688 23.4407 6.55836 24.4921 7.85063 24.4921H26.7759L25.4843 23.2166C25.0238 22.7618 25.019 22.0198 25.4738 21.5593C25.9286 21.099 26.6706 21.0942 27.1311 21.549L29.1357 23.5285C29.1375 23.5304 29.1393 23.532 29.1409 23.5338ZM26.4834 0H11.3077C10.6588 0 10.1335 0.527343 10.1358 1.17622C10.1383 1.82167 10.6622 2.34375 11.3077 2.34375H26.4834C27.1307 2.34375 27.6553 2.86834 27.6553 3.51562V18.75C27.6553 19.3954 28.1774 19.9195 28.8228 19.9218C29.4717 19.9241 29.999 19.3988 29.999 18.75V3.51562C29.999 1.57402 28.425 0 26.4834 0ZM17.2256 20.0912C17.8729 20.0912 18.3975 19.5666 18.3975 18.9193V13.7036C18.3975 11.9266 16.9519 10.4809 15.1748 10.4809C14.3964 10.4809 13.6816 10.7583 13.1241 11.2195C12.5665 10.7583 11.8517 10.4809 11.0733 10.4809C10.6263 10.4809 10.2001 10.5727 9.81283 10.738C9.60432 10.5471 9.32737 10.4297 9.0225 10.4297C8.37522 10.4297 7.85063 10.9543 7.85063 11.6015V18.9257C7.85063 19.573 8.37522 20.0976 9.0225 20.0976C9.66978 20.0976 10.1944 19.573 10.1944 18.9257V13.7036C10.1944 13.219 10.5887 12.8247 11.0733 12.8247C11.5578 12.8247 11.9522 13.219 11.9522 13.7036V18.9257C11.9522 19.573 12.4768 20.0976 13.1241 20.0976C13.7713 20.0976 14.2959 19.573 14.2959 18.9257V13.7036C14.2959 13.219 14.6903 12.8247 15.1748 12.8247C15.6594 12.8247 16.0537 13.219 16.0537 13.7036V18.9193C16.0537 19.5666 16.5783 20.0912 17.2256 20.0912ZM22.543 6.32811C22.5368 6.32811 22.5309 6.32903 22.5247 6.32903C22.5187 6.32903 22.5128 6.32811 22.5066 6.32811C21.0163 6.32811 19.8037 7.5421 19.8037 9.03418C19.8037 9.68122 20.3283 10.206 20.9756 10.206C21.6229 10.206 22.1475 9.68122 22.1475 9.03418C22.1475 8.8378 22.312 8.67186 22.5066 8.67186C22.5128 8.67186 22.5187 8.67094 22.5249 8.67094C22.5309 8.67094 22.5368 8.67186 22.543 8.67186C22.7295 8.67186 22.8884 8.82429 22.9012 9.00992C22.8781 9.09575 22.6984 9.62652 21.5755 10.8618C20.879 11.6276 20.1947 12.2513 20.188 12.2573C19.8294 12.5828 19.7081 13.0954 19.8825 13.547C20.0569 13.9988 20.4913 14.2968 20.9756 14.2968H24.1397C24.7869 14.2968 25.3115 13.7723 25.3115 13.125C25.3115 12.4777 24.7869 11.9531 24.1397 11.9531H23.7366C24.7771 10.7281 25.2458 9.81649 25.2458 9.03418C25.2458 7.5421 24.0332 6.32811 22.543 6.32811Z" fill="#ADADAD"></path></g><defs><clipPath id="clip0"><rect width="30" height="30" fill="white"></rect></clipPath></defs></svg> 