<svg width="25" height="24" viewBox="0 0 25 24" fill="none" xmlns="http://www.w3.org/2000/svg">
<path d="M24 0H1C0.446875 0 0 0.429 0 0.96V23.04C0 23.571 0.446875 24 1 24H24C24.5531 24 25 23.571 25 23.04V0.96C25 0.429 24.5531 0 24 0ZM10.2563 19.59H8.66875C8.6 19.59 8.52812 19.557 8.48438 19.503L7.375 18.198L6.26562 19.503C6.24399 19.5302 6.21608 19.5522 6.18409 19.5673C6.1521 19.5824 6.1169 19.5902 6.08125 19.59H4.49375C4.2875 19.59 4.175 19.353 4.3125 19.197L6.27188 16.893L4.35938 14.646C4.225 14.49 4.3375 14.253 4.54375 14.253H6.13437C6.20312 14.253 6.275 14.286 6.31875 14.34L7.38125 15.588L8.44375 14.34C8.49063 14.283 8.55625 14.253 8.62813 14.253H10.2156C10.4219 14.253 10.5344 14.49 10.4 14.646L8.48438 16.89L10.4438 19.194C10.575 19.353 10.4625 19.59 10.2563 19.59ZM10.5 8.13C10.5 8.196 10.4562 8.25 10.4 8.25H8.25V10.311C8.25 10.368 8.19375 10.41 8.125 10.41H6.625C6.55625 10.41 6.5 10.368 6.5 10.314V8.25H4.35C4.29375 8.25 4.25 8.196 4.25 8.13V6.69C4.25 6.624 4.29375 6.57 4.35 6.57H6.5V4.506C6.5 4.452 6.55625 4.41 6.625 4.41H8.125C8.19375 4.41 8.25 4.452 8.25 4.506V6.57H10.3969C10.4563 6.57 10.5 6.624 10.5 6.69V8.13ZM20.75 19.2C20.75 19.266 20.7062 19.32 20.65 19.32H14.6C14.5438 19.32 14.5 19.266 14.5 19.2V17.76C14.5 17.694 14.5438 17.64 14.6 17.64H20.6469C20.7063 17.64 20.75 17.694 20.75 17.76V19.2ZM20.75 16.08C20.75 16.146 20.7062 16.2 20.65 16.2H14.6C14.5438 16.2 14.5 16.146 14.5 16.08V14.64C14.5 14.574 14.5438 14.52 14.6 14.52H20.6469C20.7063 14.52 20.75 14.574 20.75 14.64V16.08ZM20.75 8.13C20.75 8.196 20.7062 8.25 20.65 8.25H14.6C14.5438 8.25 14.5 8.196 14.5 8.13V6.69C14.5 6.624 14.5438 6.57 14.6 6.57H20.6469C20.7063 6.57 20.75 6.624 20.75 6.69V8.13Z" fill="#F8F8F8"/>
</svg>
