<svg width="24" height="23" viewBox="0 0 24 23" fill="none" xmlns="http://www.w3.org/2000/svg">
<path d="M14.6719 1.8941C14.7224 1.71739 14.8456 1.5667 15.0146 1.47512C15.1835 1.38353 15.3843 1.35854 15.5728 1.40563C17.3612 1.85646 18.9918 2.73995 20.3012 3.96758C21.6107 5.19521 22.5531 6.72389 23.034 8.40047C23.0589 8.488 23.0652 8.57929 23.0526 8.66911C23.0399 8.75893 23.0084 8.84553 22.9601 8.92397C22.9117 9.0024 22.8473 9.07114 22.7706 9.12624C22.6939 9.18135 22.6063 9.22175 22.5129 9.24514C22.4196 9.26852 22.3222 9.27444 22.2264 9.26255C22.1306 9.25066 22.0382 9.22119 21.9545 9.17584C21.8709 9.13048 21.7976 9.07011 21.7388 8.99819C21.68 8.92627 21.6369 8.8442 21.612 8.75666C21.1982 7.31425 20.3875 5.99908 19.2609 4.94291C18.1343 3.88674 16.7315 3.12664 15.1929 2.73877C15.0043 2.69153 14.8435 2.576 14.7458 2.4176C14.6481 2.25919 14.6215 2.07088 14.6719 1.8941V1.8941ZM14.1768 6.29385C15.05 6.51394 15.8462 6.94531 16.4856 7.54473C17.125 8.14416 17.5851 8.89059 17.8199 9.70923C17.8703 9.88595 17.9936 10.0367 18.1625 10.1282C18.3315 10.2198 18.5323 10.2447 18.7208 10.1974C18.9093 10.1502 19.0701 10.0347 19.1678 9.87639C19.2656 9.71805 19.2922 9.5298 19.2419 9.35304C18.9399 8.30024 18.3482 7.34032 17.5259 6.56944C16.7036 5.79856 15.6797 5.24379 14.5567 4.9607C14.3682 4.91347 14.1673 4.9384 13.9983 5.03001C13.8294 5.12161 13.7062 5.27239 13.6558 5.44918C13.6054 5.62597 13.632 5.81428 13.7297 5.97268C13.8274 6.13109 13.9882 6.24661 14.1768 6.29385ZM23.9877 17.5759C23.7821 19.074 23.0019 20.4508 21.7927 21.4489C20.5834 22.4471 19.028 22.9985 17.4168 23C7.81319 23 0 15.6751 0 6.67171C0.00163094 5.16125 0.589736 3.70301 1.65446 2.56937C2.71918 1.43573 4.1877 0.704247 5.78569 0.511548C6.15459 0.469945 6.52795 0.541412 6.84993 0.715263C7.17191 0.889115 7.42521 1.15601 7.57195 1.47603L10.0362 6.86643C10.148 7.11038 10.1937 7.37653 10.1689 7.64106C10.1442 7.90559 10.05 8.16026 9.89459 8.38227L7.85415 11.3051C7.83109 11.3366 7.81708 11.3731 7.81349 11.4111C7.8099 11.4491 7.81685 11.4873 7.83367 11.5221V11.5222C8.78048 13.333 10.3465 14.7945 12.2823 15.6739C12.3196 15.6896 12.3605 15.6959 12.4012 15.6922C12.4419 15.6885 12.4808 15.675 12.5143 15.653L15.5849 13.7334C15.8224 13.5843 16.0959 13.4934 16.3805 13.4689C16.665 13.4444 16.9516 13.4871 17.214 13.5931L22.9588 15.9013C23.3002 16.0388 23.5849 16.2763 23.7704 16.5781C23.9558 16.88 24.0321 17.2301 23.9877 17.5759H23.9877ZM22.5273 17.403C22.5328 17.3543 22.5213 17.3052 22.4945 17.2631C22.4678 17.221 22.4272 17.1882 22.3789 17.1695L16.6343 14.8613C16.5968 14.8463 16.5558 14.8403 16.5152 14.8438C16.4745 14.8473 16.4354 14.8602 16.4015 14.8814L13.3309 16.8011C13.0843 16.9558 12.7989 17.0478 12.5029 17.0681C12.2069 17.0883 11.9104 17.0361 11.6424 16.9165C9.40962 15.9021 7.60322 14.2163 6.51107 12.1277C6.383 11.8779 6.32597 11.6014 6.34551 11.3249C6.36505 11.0483 6.4605 10.7813 6.62259 10.5495L8.66302 7.62654C8.68524 7.5948 8.69872 7.55839 8.70225 7.52057C8.70578 7.48274 8.69926 7.44469 8.68326 7.40982L6.21917 2.01965C6.20087 1.97859 6.17022 1.94342 6.13095 1.91844C6.09169 1.89345 6.04551 1.87973 5.99805 1.87894C5.98872 1.87895 5.9794 1.87951 5.97015 1.88063C4.72751 2.03065 3.58562 2.59966 2.75781 3.48135C1.93 4.36305 1.47288 5.49712 1.47184 6.67171C1.47661 10.6349 3.15805 14.4345 6.14728 17.2369C9.13652 20.0393 13.1894 21.6157 17.4168 21.6201C18.6697 21.6192 19.8794 21.1906 20.8199 20.4146C21.7603 19.6385 22.3673 18.568 22.5273 17.403V17.403Z" fill="#15E42A"/>
</svg>
